M48
; DRILL file {KiCad 7.0.11-7.0.11~ubuntu22.04.1} date 15.05.2026 (пт) 15:03:49
; FORMAT={-:-/ absolute / metric / decimal}
; #@! TF.CreationDate,2026-05-15T15:03:49+03:00
; #@! TF.GenerationSoftware,Kicad,Pcbnew,7.0.11-7.0.11~ubuntu22.04.1
; #@! TF.FileFunction,Plated,1,2,PTH
FMAT,2
METRIC
; #@! TA.AperFunction,Plated,PTH,ViaDrill
T1C0.400
; #@! TA.AperFunction,Plated,PTH,ViaDrill
T2C0.600
; #@! TA.AperFunction,Plated,PTH,ComponentDrill
T3C0.800
; #@! TA.AperFunction,Plated,PTH,ComponentDrill
T4C1.000
; #@! TA.AperFunction,Plated,PTH,ComponentDrill
T5C1.300
%
G90
G05
T1
X34.0Y60.8
X34.0Y55.9
X34.0Y53.3
X34.0Y44.3
X34.0Y30.3
X34.0Y21.8
X34.0Y14.2
X35.035Y54.6
X35.035Y46.008
X36.996Y6.396
X38.1Y32.008
X38.1Y23.508
X38.7Y15.3
X38.7Y14.2
X39.25Y38.75
X39.25Y36.25
X39.6Y60.5
X41.6Y9.1
X42.0Y6.0
X42.2Y43.25
X42.2Y40.6
X42.2Y38.1
X42.449Y2.721
X43.0Y44.9
X43.1Y32.5
X43.1Y29.9
X43.25Y6.0
X43.8Y61.0
X44.6Y45.779
X44.75Y10.5
X44.75Y8.75
X44.892Y2.892
X45.3Y38.4
X45.4Y44.1
X46.0Y6.0
X46.181Y36.4
X46.181Y34.4
X46.7Y25.573
X46.7Y24.0
X46.7Y22.5
X46.7Y19.25
X46.7Y17.75
X47.1Y33.2
X47.25Y10.5
X47.25Y8.75
X47.25Y6.0
X47.25Y1.5
X47.8Y32.4
X47.8Y29.07
X47.8Y27.173
X48.25Y19.25
X48.5Y6.0
X48.65Y29.995
X48.8Y63.4
X49.0Y12.7
X49.429Y33.429
X49.9Y63.4
X50.1Y2.9
X50.4Y13.758
X51.0Y63.421
X51.0Y6.2
X51.2Y23.473
X51.5Y16.0
X51.5Y14.75
X51.8Y29.07
X51.8Y12.8
X51.93Y24.203
X52.1Y32.85
X52.25Y10.5
X52.25Y8.75
X52.5Y41.3
X52.6Y3.3
X52.9Y33.3
X52.9Y32.4
X53.3Y57.1
X53.8Y52.1
X54.0Y44.9
X54.73Y3.0
X54.8Y49.5
X54.9Y10.5
X54.9Y8.75
X55.314Y44.414
X55.7Y42.846
X56.0Y66.0
X56.8Y21.1
X57.25Y64.75
X59.8Y4.3
X60.9Y21.1
X62.2Y51.1
X64.412Y23.566
X64.6Y21.1
X65.743Y21.1
T2
X1.5Y4.0
X1.5Y1.0
X6.5Y4.0
X6.5Y1.0
X10.25Y4.0
X10.25Y1.0
X14.0Y4.25
X14.0Y1.0
X17.75Y4.0
X17.75Y1.0
X19.0Y8.6
X19.8Y9.4
X21.75Y42.5
X21.8Y29.0
X21.863Y59.537
X22.75Y4.0
X22.75Y1.0
X23.1Y20.3
X25.0Y1.0
X25.25Y11.0
X27.25Y1.0
X31.75Y1.0
X32.0Y59.3
X32.0Y55.5
X32.0Y51.75
X32.0Y49.25
X32.0Y42.8
X32.0Y40.25
X32.0Y37.75
X32.0Y34.75
X32.0Y28.8
X32.0Y26.25
X32.0Y20.3
X32.0Y17.75
X32.0Y15.25
X32.0Y12.75
X32.0Y10.25
X34.0Y5.25
X34.75Y4.5
X35.0Y64.5
X35.5Y44.0
X35.5Y42.25
X36.25Y1.0
X37.5Y64.5
X39.0Y51.75
X39.0Y48.75
X39.0Y45.75
X39.0Y43.75
X39.0Y1.0
X39.25Y30.45
X39.25Y28.45
X39.25Y26.5
X39.25Y24.5
X39.5Y20.0
X39.5Y17.75
X41.75Y1.0
X43.75Y63.5
X44.25Y26.8
X44.25Y24.8
X44.25Y22.8
X46.25Y63.5
X46.25Y29.073
X46.6Y59.0
X46.6Y56.5
X46.6Y52.0
X46.6Y49.5
X46.6Y46.98
X46.6Y42.5
X47.3Y62.111
X48.1Y43.6
X51.3Y59.0
X51.3Y56.5
X51.3Y52.0
X51.3Y49.5
X51.3Y46.98
X51.3Y42.5
X58.0Y14.0
X58.0Y10.25
X58.0Y6.5
X58.0Y2.75
X59.75Y12.0
X59.75Y8.25
X60.25Y2.75
X61.25Y27.75
X61.25Y25.5
X61.25Y22.5
X62.25Y66.0
X62.25Y64.75
X62.5Y2.75
X62.75Y62.25
X62.75Y59.75
X62.75Y57.75
X62.75Y47.0
X63.25Y43.75
X63.25Y41.25
X63.25Y37.5
X63.25Y33.75
X63.25Y30.0
X63.25Y27.75
X63.25Y25.5
X66.75Y37.5
X66.75Y33.75
X66.755Y40.245
X66.755Y6.245
X66.801Y23.245
X67.25Y20.5
X68.5Y35.5
X68.5Y19.25
T4
X24.32Y68.5
X26.86Y68.5
X29.4Y68.5
X31.94Y68.5
X34.0Y1.5
X34.48Y68.5
X37.02Y68.5
X39.56Y68.5
X41.11Y64.76
X41.11Y62.22
X41.11Y59.68
X41.11Y57.14
X41.11Y54.6
X41.11Y52.06
X41.11Y49.52
X41.11Y46.98
X41.11Y44.44
X41.11Y41.9
X41.11Y39.36
X41.11Y36.82
X41.11Y34.28
X41.11Y31.74
X41.11Y29.2
X41.11Y26.66
X41.11Y24.12
X41.11Y21.58
X41.11Y19.04
X41.11Y16.5
X42.1Y68.5
X44.64Y68.5
X47.18Y68.5
X49.72Y68.5
X52.26Y68.5
X54.8Y68.5
X57.34Y68.5
X58.89Y64.76
X58.89Y62.22
X58.89Y59.68
X58.89Y57.14
X58.89Y54.6
X58.89Y52.06
X58.89Y49.52
X58.89Y46.98
X58.89Y44.44
X58.89Y41.9
X58.89Y39.36
X58.89Y36.82
X58.89Y34.28
X58.89Y31.74
X58.89Y29.2
X58.89Y26.66
X58.89Y24.12
X58.89Y21.58
X58.89Y19.04
X58.89Y16.5
X59.88Y68.5
X62.42Y68.5
X64.96Y68.5
X65.0Y1.5
X67.5Y68.5
T5
X4.5Y67.5
X4.5Y62.5
X4.5Y57.5
X4.5Y52.5
X4.5Y47.5
X4.5Y42.5
X4.5Y37.5
X4.5Y32.5
X4.5Y27.5
X4.5Y22.5
X4.5Y17.5
X4.5Y12.5
X4.5Y7.5
X4.5Y2.5
X71.2Y60.875
X71.2Y43.625
X71.2Y26.375
X71.2Y9.125
X73.2Y66.875
X73.2Y54.875
X73.2Y49.625
X73.2Y37.625
X73.2Y32.375
X73.2Y20.375
X73.2Y15.125
X73.2Y3.125
X85.2Y66.875
X85.2Y54.875
X85.2Y49.625
X85.2Y37.625
X85.2Y32.375
X85.2Y20.375
X85.2Y15.125
X85.2Y3.125
X95.5Y65.875
X95.5Y60.875
X95.5Y55.875
X95.5Y48.625
X95.5Y43.625
X95.5Y38.625
X95.5Y31.375
X95.5Y26.375
X95.5Y21.375
X95.5Y14.125
X95.5Y9.125
X95.5Y4.125
T3
G00X20.68Y6.98
M15
G01X20.68Y6.08
M16
G05
G00X20.68Y2.65
M15
G01X20.68Y2.05
M16
G05
G00X29.32Y6.98
M15
G01X29.32Y6.08
M16
G05
G00X29.32Y2.65
M15
G01X29.32Y2.05
M16
G05
M30
