%TF.GenerationSoftware,KiCad,Pcbnew,7.0.11-7.0.11~ubuntu22.04.1*%
%TF.CreationDate,2026-05-15T15:03:24+03:00*%
%TF.ProjectId,PICO-EVB_Rev_A,5049434f-2d45-4564-925f-5265765f412e,A*%
%TF.SameCoordinates,PX6146580PY7bfa480*%
%TF.FileFunction,Soldermask,Top*%
%TF.FilePolarity,Negative*%
%FSLAX46Y46*%
G04 Gerber Fmt 4.6, Leading zero omitted, Abs format (unit mm)*
G04 Created by KiCad (PCBNEW 7.0.11-7.0.11~ubuntu22.04.1) date 2026-05-15 15:03:24*
%MOMM*%
%LPD*%
G01*
G04 APERTURE LIST*
G04 Aperture macros list*
%AMRoundRect*
0 Rectangle with rounded corners*
0 $1 Rounding radius*
0 $2 $3 $4 $5 $6 $7 $8 $9 X,Y pos of 4 corners*
0 Add a 4 corners polygon primitive as box body*
4,1,4,$2,$3,$4,$5,$6,$7,$8,$9,$2,$3,0*
0 Add four circle primitives for the rounded corners*
1,1,$1+$1,$2,$3*
1,1,$1+$1,$4,$5*
1,1,$1+$1,$6,$7*
1,1,$1+$1,$8,$9*
0 Add four rect primitives between the rounded corners*
20,1,$1+$1,$2,$3,$4,$5,0*
20,1,$1+$1,$4,$5,$6,$7,0*
20,1,$1+$1,$6,$7,$8,$9,0*
20,1,$1+$1,$8,$9,$2,$3,0*%
G04 Aperture macros list end*
%ADD10C,3.000000*%
%ADD11C,2.201600*%
%ADD12RoundRect,0.050800X-0.889000X0.889000X-0.889000X-0.889000X0.889000X-0.889000X0.889000X0.889000X0*%
%ADD13C,1.879600*%
%ADD14RoundRect,0.050800X1.524000X-1.524000X1.524000X1.524000X-1.524000X1.524000X-1.524000X-1.524000X0*%
%ADD15C,3.149600*%
%ADD16RoundRect,0.050800X-0.400000X-0.400000X0.400000X-0.400000X0.400000X0.400000X-0.400000X0.400000X0*%
%ADD17RoundRect,0.050800X-0.762000X-0.889000X0.762000X-0.889000X0.762000X0.889000X-0.762000X0.889000X0*%
%ADD18RoundRect,0.050800X0.275000X-0.250000X0.275000X0.250000X-0.275000X0.250000X-0.275000X-0.250000X0*%
%ADD19RoundRect,0.050800X-0.275000X0.250000X-0.275000X-0.250000X0.275000X-0.250000X0.275000X0.250000X0*%
%ADD20RoundRect,0.050800X-1.143000X0.889000X-1.143000X-0.889000X1.143000X-0.889000X1.143000X0.889000X0*%
%ADD21RoundRect,0.050800X0.635000X-0.762000X0.635000X0.762000X-0.635000X0.762000X-0.635000X-0.762000X0*%
%ADD22RoundRect,0.050800X-1.524000X1.524000X-1.524000X-1.524000X1.524000X-1.524000X1.524000X1.524000X0*%
%ADD23RoundRect,0.050800X0.400000X-0.400000X0.400000X0.400000X-0.400000X0.400000X-0.400000X-0.400000X0*%
%ADD24C,3.401600*%
%ADD25RoundRect,0.050800X-0.762000X0.889000X-0.762000X-0.889000X0.762000X-0.889000X0.762000X0.889000X0*%
%ADD26RoundRect,0.050800X0.700000X-0.500000X0.700000X0.500000X-0.700000X0.500000X-0.700000X-0.500000X0*%
%ADD27RoundRect,0.050800X0.250000X0.275000X-0.250000X0.275000X-0.250000X-0.275000X0.250000X-0.275000X0*%
%ADD28RoundRect,0.050800X-0.250000X-0.275000X0.250000X-0.275000X0.250000X0.275000X-0.250000X0.275000X0*%
%ADD29C,2.641600*%
%ADD30RoundRect,0.050800X1.000000X0.850000X-1.000000X0.850000X-1.000000X-0.850000X1.000000X-0.850000X0*%
%ADD31RoundRect,0.050800X0.700000X0.500000X-0.700000X0.500000X-0.700000X-0.500000X0.700000X-0.500000X0*%
%ADD32RoundRect,0.050800X-0.889000X-0.889000X0.889000X-0.889000X0.889000X0.889000X-0.889000X0.889000X0*%
%ADD33RoundRect,0.050800X-0.635000X0.762000X-0.635000X-0.762000X0.635000X-0.762000X0.635000X0.762000X0*%
%ADD34C,1.301600*%
%ADD35RoundRect,0.050800X0.500000X-2.125000X0.500000X2.125000X-0.500000X2.125000X-0.500000X-2.125000X0*%
%ADD36RoundRect,0.050800X-0.500000X0.700000X-0.500000X-0.700000X0.500000X-0.700000X0.500000X0.700000X0*%
%ADD37C,0.701600*%
%ADD38RoundRect,0.050800X-0.550000X-1.100000X0.550000X-1.100000X0.550000X1.100000X-0.550000X1.100000X0*%
%ADD39O,1.301600X2.301600*%
%ADD40RoundRect,0.050800X-0.550000X-1.000000X0.550000X-1.000000X0.550000X1.000000X-0.550000X1.000000X0*%
%ADD41O,1.401600X2.101600*%
%ADD42RoundRect,0.050800X-0.150000X-0.575000X0.150000X-0.575000X0.150000X0.575000X-0.150000X0.575000X0*%
%ADD43RoundRect,0.050800X-0.125000X-0.575000X0.125000X-0.575000X0.125000X0.575000X-0.125000X0.575000X0*%
%ADD44RoundRect,0.050800X-0.400000X0.400000X-0.400000X-0.400000X0.400000X-0.400000X0.400000X0.400000X0*%
%ADD45RoundRect,0.050800X-0.125000X-0.450000X0.125000X-0.450000X0.125000X0.450000X-0.125000X0.450000X0*%
G04 APERTURE END LIST*
D10*
%TO.C,FID1*%
X11500000Y9500000D03*
%TD*%
%TO.C,FID3*%
X68000000Y50000000D03*
%TD*%
%TO.C,FID2*%
X67500000Y2000000D03*
%TD*%
D11*
%TO.C,MH1*%
X44300000Y17130000D03*
%TD*%
%TO.C,MH2*%
X55700000Y17130000D03*
%TD*%
D12*
%TO.C,EXT3*%
X58890000Y64760000D03*
D13*
X58890000Y62220000D03*
X58890000Y59680000D03*
X58890000Y57140000D03*
X58890000Y54600000D03*
X58890000Y52060000D03*
X58890000Y49520000D03*
X58890000Y46980000D03*
X58890000Y44440000D03*
X58890000Y41900000D03*
X58890000Y39360000D03*
X58890000Y36820000D03*
X58890000Y34280000D03*
X58890000Y31740000D03*
X58890000Y29200000D03*
X58890000Y26660000D03*
X58890000Y24120000D03*
X58890000Y21580000D03*
X58890000Y19040000D03*
X58890000Y16500000D03*
%TD*%
D12*
%TO.C,EXT2*%
X41110000Y64760000D03*
D13*
X41110000Y62220000D03*
X41110000Y59680000D03*
X41110000Y57140000D03*
X41110000Y54600000D03*
X41110000Y52060000D03*
X41110000Y49520000D03*
X41110000Y46980000D03*
X41110000Y44440000D03*
X41110000Y41900000D03*
X41110000Y39360000D03*
X41110000Y36820000D03*
X41110000Y34280000D03*
X41110000Y31740000D03*
X41110000Y29200000D03*
X41110000Y26660000D03*
X41110000Y24120000D03*
X41110000Y21580000D03*
X41110000Y19040000D03*
X41110000Y16500000D03*
%TD*%
D14*
%TO.C,CON_REL4*%
X95500000Y4125000D03*
D15*
X95500000Y9125000D03*
X95500000Y14125000D03*
%TD*%
D14*
%TO.C,CON_REL2*%
X95500000Y38625000D03*
D15*
X95500000Y43625000D03*
X95500000Y48625000D03*
%TD*%
D16*
%TO.C,LED_IN3*%
X20317000Y32500000D03*
X18793000Y32500000D03*
%TD*%
D17*
%TO.C,R14*%
X16103000Y22500000D03*
X18897000Y22500000D03*
%TD*%
%TO.C,R4*%
X13158000Y47500000D03*
X15952000Y47500000D03*
%TD*%
D18*
%TO.C,R19*%
X34000000Y62508000D03*
D19*
X34000000Y61492000D03*
%TD*%
D17*
%TO.C,R5*%
X11103000Y37500000D03*
X13897000Y37500000D03*
%TD*%
D20*
%TO.C,D9*%
X14055000Y7177000D03*
X14055000Y2823000D03*
%TD*%
D18*
%TO.C,R9*%
X64500000Y59500000D03*
D19*
X64500000Y58484000D03*
%TD*%
D18*
%TO.C,R20*%
X34000000Y46008000D03*
D19*
X34000000Y44992000D03*
%TD*%
D21*
%TO.C,C8*%
X47084000Y34430000D03*
X49116000Y34430000D03*
%TD*%
D22*
%TO.C,PWR1*%
X4500000Y7500000D03*
D15*
X4500000Y2500000D03*
%TD*%
D18*
%TO.C,R26*%
X51000000Y13758000D03*
D19*
X51000000Y12742000D03*
%TD*%
D23*
%TO.C,LED4*%
X64500000Y11262000D03*
X64500000Y9738000D03*
%TD*%
D17*
%TO.C,R13*%
X16103000Y37500000D03*
X18897000Y37500000D03*
%TD*%
D23*
%TO.C,LED1*%
X64500000Y62262000D03*
X64500000Y60738000D03*
%TD*%
D18*
%TO.C,R15*%
X51200000Y27110798D03*
D19*
X51200000Y26094798D03*
%TD*%
D22*
%TO.C,IN2*%
X4500000Y52500000D03*
D15*
X4500000Y47500000D03*
X4500000Y42500000D03*
%TD*%
D24*
%TO.C,MH4*%
X28000000Y16000000D03*
%TD*%
D25*
%TO.C,OPT1*%
X23055000Y63270000D03*
X23055000Y60730000D03*
X31945000Y60730000D03*
X31945000Y63270000D03*
%TD*%
D26*
%TO.C,D2*%
X66500000Y41600000D03*
X66500000Y45400000D03*
%TD*%
D21*
%TO.C,C2*%
X47784000Y23560798D03*
X49816000Y23560798D03*
%TD*%
D17*
%TO.C,R1*%
X11103000Y67500000D03*
X13897000Y67500000D03*
%TD*%
D22*
%TO.C,IN4*%
X4500000Y22500000D03*
D15*
X4500000Y17500000D03*
X4500000Y12500000D03*
%TD*%
D16*
%TO.C,LED_IN2*%
X20317000Y47500000D03*
X18793000Y47500000D03*
%TD*%
D27*
%TO.C,C4*%
X49092000Y27152798D03*
D28*
X50108000Y27152798D03*
%TD*%
D29*
%TO.C,REL1*%
X73200000Y54875000D03*
X73200000Y66875000D03*
X71200000Y60875000D03*
X85200000Y66875000D03*
X85200000Y54875000D03*
%TD*%
D30*
%TO.C,D6*%
X17000000Y12500000D03*
X12000000Y12500000D03*
%TD*%
D25*
%TO.C,OPT2*%
X23055000Y46770000D03*
X23055000Y44230000D03*
X31945000Y44230000D03*
X31945000Y46770000D03*
%TD*%
D24*
%TO.C,MH5*%
X65000000Y54000000D03*
%TD*%
D31*
%TO.C,T1*%
X64742560Y65949960D03*
X64742560Y64047500D03*
X66952360Y65002540D03*
%TD*%
D29*
%TO.C,REL2*%
X73200000Y37625000D03*
X73200000Y49625000D03*
X71200000Y43625000D03*
X85200000Y49625000D03*
X85200000Y37625000D03*
%TD*%
D28*
%TO.C,C5*%
X51408000Y32830000D03*
D27*
X50392000Y32830000D03*
%TD*%
D32*
%TO.C,EXT1*%
X24320000Y68500000D03*
D13*
X26860000Y68500000D03*
X29400000Y68500000D03*
X31940000Y68500000D03*
X34480000Y68500000D03*
X37020000Y68500000D03*
X39560000Y68500000D03*
X42100000Y68500000D03*
X44640000Y68500000D03*
X47180000Y68500000D03*
X49720000Y68500000D03*
X52260000Y68500000D03*
X54800000Y68500000D03*
X57340000Y68500000D03*
X59880000Y68500000D03*
X62420000Y68500000D03*
X64960000Y68500000D03*
X67500000Y68500000D03*
%TD*%
D31*
%TO.C,T3*%
X64592560Y31949960D03*
X64592560Y30047500D03*
X66802360Y31002540D03*
%TD*%
D21*
%TO.C,C9*%
X47084000Y36430000D03*
X49116000Y36430000D03*
%TD*%
D18*
%TO.C,R16*%
X51200000Y25218798D03*
D19*
X51200000Y24202798D03*
%TD*%
D23*
%TO.C,LED2*%
X64500000Y45262000D03*
X64500000Y43738000D03*
%TD*%
D33*
%TO.C,C6*%
X52816000Y34430000D03*
X50784000Y34430000D03*
%TD*%
D18*
%TO.C,R10*%
X64500000Y42508000D03*
D19*
X64500000Y41492000D03*
%TD*%
D16*
%TO.C,LED_IN4*%
X20317000Y17500000D03*
X18793000Y17500000D03*
%TD*%
D14*
%TO.C,CON_REL1*%
X95500000Y55875000D03*
D15*
X95500000Y60875000D03*
X95500000Y65875000D03*
%TD*%
D18*
%TO.C,R22*%
X34000000Y23508000D03*
D19*
X34000000Y22492000D03*
%TD*%
D17*
%TO.C,R8*%
X13158000Y17500000D03*
X15952000Y17500000D03*
%TD*%
D25*
%TO.C,OPT3*%
X23055000Y32770000D03*
X23055000Y30230000D03*
X31945000Y30230000D03*
X31945000Y32770000D03*
%TD*%
D18*
%TO.C,R21*%
X34000000Y32008000D03*
D19*
X34000000Y30992000D03*
%TD*%
D17*
%TO.C,R12*%
X16103000Y52500000D03*
X18897000Y52500000D03*
%TD*%
D33*
%TO.C,C10*%
X52816000Y36430000D03*
X50784000Y36430000D03*
%TD*%
D30*
%TO.C,D5*%
X17000000Y27500000D03*
X12000000Y27500000D03*
%TD*%
D27*
%TO.C,R23*%
X47592000Y38380000D03*
D28*
X48608000Y38380000D03*
%TD*%
D26*
%TO.C,D8*%
X66500000Y7600000D03*
X66500000Y11400000D03*
%TD*%
D24*
%TO.C,MH3*%
X28000000Y54000000D03*
%TD*%
D34*
%TO.C,UEXT1*%
X44690000Y6000000D03*
X52310000Y6000000D03*
D35*
X43420000Y2875000D03*
X43420000Y9125000D03*
X45960000Y2875000D03*
X45960000Y9125000D03*
X48500000Y2875000D03*
X48500000Y9125000D03*
X51040000Y2875000D03*
X51040000Y9125000D03*
X53580000Y2875000D03*
X53580000Y9125000D03*
%TD*%
D17*
%TO.C,R7*%
X11103000Y22500000D03*
X13897000Y22500000D03*
%TD*%
%TO.C,R11*%
X16103000Y67500000D03*
X18897000Y67500000D03*
%TD*%
D26*
%TO.C,D1*%
X66500000Y58600000D03*
X66500000Y62400000D03*
%TD*%
D21*
%TO.C,L1*%
X48100000Y40234000D03*
X48100000Y42266000D03*
%TD*%
D17*
%TO.C,R3*%
X11103000Y52500000D03*
X13897000Y52500000D03*
%TD*%
%TO.C,R6*%
X13158000Y32500000D03*
X15952000Y32500000D03*
%TD*%
D22*
%TO.C,IN3*%
X4500000Y37500000D03*
D15*
X4500000Y32500000D03*
X4500000Y27500000D03*
%TD*%
D32*
%TO.C,+5V0*%
X65000000Y1500000D03*
%TD*%
D23*
%TO.C,LED3*%
X64500000Y28262000D03*
X64500000Y26738000D03*
%TD*%
D29*
%TO.C,REL3*%
X73200000Y20375000D03*
X73200000Y32375000D03*
X71200000Y26375000D03*
X85200000Y32375000D03*
X85200000Y20375000D03*
%TD*%
D22*
%TO.C,IN1*%
X4500000Y67500000D03*
D15*
X4500000Y62500000D03*
X4500000Y57500000D03*
%TD*%
D33*
%TO.C,C3*%
X49816000Y25560798D03*
X47784000Y25560798D03*
%TD*%
D14*
%TO.C,CON_REL3*%
X95500000Y21375000D03*
D15*
X95500000Y26375000D03*
X95500000Y31375000D03*
%TD*%
D18*
%TO.C,R18*%
X64500000Y8508000D03*
D19*
X64500000Y7492000D03*
%TD*%
D33*
%TO.C,C1*%
X49816000Y21560798D03*
X47784000Y21560798D03*
%TD*%
D31*
%TO.C,T2*%
X63642560Y48949960D03*
X63642560Y47047500D03*
X65852360Y48002540D03*
%TD*%
D16*
%TO.C,LED_IN1*%
X20317000Y62500000D03*
X18793000Y62500000D03*
%TD*%
D28*
%TO.C,R24*%
X28258000Y11000000D03*
D27*
X27242000Y11000000D03*
%TD*%
D30*
%TO.C,D3*%
X17000000Y57500000D03*
X12000000Y57500000D03*
%TD*%
D36*
%TO.C,T4*%
X60750040Y4392560D03*
X62652500Y4392560D03*
X61697460Y6602360D03*
%TD*%
D10*
%TO.C,FID4*%
X24000000Y57500000D03*
%TD*%
D29*
%TO.C,REL4*%
X73200000Y3125000D03*
X73200000Y15125000D03*
X71200000Y9125000D03*
X85200000Y15125000D03*
X85200000Y3125000D03*
%TD*%
D27*
%TO.C,R25*%
X22234000Y11000000D03*
D28*
X23250000Y11000000D03*
%TD*%
D18*
%TO.C,R17*%
X64500000Y25508000D03*
D19*
X64500000Y24492000D03*
%TD*%
D27*
%TO.C,C7*%
X48592000Y32830000D03*
D28*
X49608000Y32830000D03*
%TD*%
D37*
%TO.C,USB-PWR1*%
X27890000Y6030000D03*
X22110000Y6030000D03*
D38*
X29927600Y6530000D03*
D39*
X29320000Y6530000D03*
X20680000Y6530000D03*
D38*
X20072400Y6530000D03*
D40*
X29927600Y2350000D03*
D41*
X29320000Y2350000D03*
X20680000Y2350000D03*
D40*
X20072400Y2350000D03*
D42*
X21675000Y7432000D03*
X22475000Y7432000D03*
D43*
X23750000Y7432000D03*
X24750000Y7432000D03*
X25250000Y7432000D03*
X26250000Y7432000D03*
D42*
X27525000Y7432000D03*
X28325000Y7432000D03*
X28075000Y7432000D03*
X27275000Y7432000D03*
D43*
X26750000Y7432000D03*
X25750000Y7432000D03*
X24250000Y7432000D03*
X23250000Y7432000D03*
D42*
X22725000Y7432000D03*
X21925000Y7432000D03*
%TD*%
D26*
%TO.C,D7*%
X66500000Y24600000D03*
X66500000Y28400000D03*
%TD*%
D44*
%TO.C,PWR_LED1*%
X34000000Y9738000D03*
X34000000Y11262000D03*
%TD*%
D24*
%TO.C,MH6*%
X65000000Y16000000D03*
%TD*%
D19*
%TO.C,R27*%
X49750000Y12742000D03*
D18*
X49750000Y13758000D03*
%TD*%
D45*
%TO.C,U1*%
X49250000Y29100000D03*
X49750000Y29100000D03*
X50250000Y29100000D03*
X50750000Y29100000D03*
X50750000Y30900000D03*
X50250000Y30900000D03*
X49750000Y30900000D03*
X49250000Y30900000D03*
%TD*%
D25*
%TO.C,OPT4*%
X23055000Y24270000D03*
X23055000Y21730000D03*
X31945000Y21730000D03*
X31945000Y24270000D03*
%TD*%
D17*
%TO.C,R2*%
X13158000Y62500000D03*
X15952000Y62500000D03*
%TD*%
D30*
%TO.C,D4*%
X17000000Y42500000D03*
X12000000Y42500000D03*
%TD*%
D32*
%TO.C,GND1*%
X34000000Y1500000D03*
%TD*%
M02*
