%TF.GenerationSoftware,KiCad,Pcbnew,7.0.11-7.0.11~ubuntu22.04.1*%
%TF.CreationDate,2026-05-15T15:03:23+03:00*%
%TF.ProjectId,PICO-EVB_Rev_A,5049434f-2d45-4564-925f-5265765f412e,A*%
%TF.SameCoordinates,PX6146580PY7bfa480*%
%TF.FileFunction,Copper,L2,Bot*%
%TF.FilePolarity,Positive*%
%FSLAX46Y46*%
G04 Gerber Fmt 4.6, Leading zero omitted, Abs format (unit mm)*
G04 Created by KiCad (PCBNEW 7.0.11-7.0.11~ubuntu22.04.1) date 2026-05-15 15:03:23*
%MOMM*%
%LPD*%
G01*
G04 APERTURE LIST*
%TA.AperFunction,ComponentPad*%
%ADD10R,1.778000X1.778000*%
%TD*%
%TA.AperFunction,ComponentPad*%
%ADD11C,1.778000*%
%TD*%
%TA.AperFunction,ComponentPad*%
%ADD12R,3.048000X3.048000*%
%TD*%
%TA.AperFunction,ComponentPad*%
%ADD13C,3.048000*%
%TD*%
%TA.AperFunction,ComponentPad*%
%ADD14C,2.540000*%
%TD*%
%TA.AperFunction,ComponentPad*%
%ADD15O,1.200000X2.200000*%
%TD*%
%TA.AperFunction,ComponentPad*%
%ADD16O,1.300000X2.000000*%
%TD*%
%TA.AperFunction,ViaPad*%
%ADD17C,1.000000*%
%TD*%
%TA.AperFunction,ViaPad*%
%ADD18C,0.800000*%
%TD*%
%TA.AperFunction,Conductor*%
%ADD19C,1.016000*%
%TD*%
%TA.AperFunction,Conductor*%
%ADD20C,1.270000*%
%TD*%
%TA.AperFunction,Conductor*%
%ADD21C,0.508000*%
%TD*%
%TA.AperFunction,Conductor*%
%ADD22C,0.250000*%
%TD*%
%TA.AperFunction,Conductor*%
%ADD23C,0.762000*%
%TD*%
%TA.AperFunction,Conductor*%
%ADD24C,0.254000*%
%TD*%
%TA.AperFunction,Conductor*%
%ADD25C,2.540000*%
%TD*%
%TA.AperFunction,Conductor*%
%ADD26C,1.524000*%
%TD*%
G04 APERTURE END LIST*
D10*
%TO.P,EXT3,1*%
%TO.N,VBUS*%
X58890000Y64760000D03*
D11*
%TO.P,EXT3,2*%
%TO.N,VDD_SYS*%
X58890000Y62220000D03*
%TO.P,EXT3,3*%
%TO.N,GND*%
X58890000Y59680000D03*
%TO.P,EXT3,4*%
%TO.N,/3V3_EN*%
X58890000Y57140000D03*
%TO.P,EXT3,5*%
%TO.N,+3.3V*%
X58890000Y54600000D03*
%TO.P,EXT3,6*%
%TO.N,/ADC_VREF*%
X58890000Y52060000D03*
%TO.P,EXT3,7*%
%TO.N,/GPIO28*%
X58890000Y49520000D03*
%TO.P,EXT3,8*%
%TO.N,GND*%
X58890000Y46980000D03*
%TO.P,EXT3,9*%
%TO.N,/GPIO27*%
X58890000Y44440000D03*
%TO.P,EXT3,10*%
%TO.N,/GPIO26*%
X58890000Y41900000D03*
%TO.P,EXT3,11*%
%TO.N,/RUN*%
X58890000Y39360000D03*
%TO.P,EXT3,12*%
%TO.N,/GPIO22*%
X58890000Y36820000D03*
%TO.P,EXT3,13*%
%TO.N,/GPIO23*%
X58890000Y34280000D03*
%TO.P,EXT3,14*%
%TO.N,/GPIO21*%
X58890000Y31740000D03*
%TO.P,EXT3,15*%
%TO.N,/GPIO20*%
X58890000Y29200000D03*
%TO.P,EXT3,16*%
%TO.N,/GPIO19*%
X58890000Y26660000D03*
%TO.P,EXT3,17*%
%TO.N,/GPIO18*%
X58890000Y24120000D03*
%TO.P,EXT3,18*%
%TO.N,/GPIO24*%
X58890000Y21580000D03*
%TO.P,EXT3,19*%
%TO.N,/GPIO17\u005CI2C0_SCL*%
X58890000Y19040000D03*
%TO.P,EXT3,20*%
%TO.N,/GPIO16\u005CI2C0_SDA*%
X58890000Y16500000D03*
%TD*%
D10*
%TO.P,EXT2,1*%
%TO.N,/GPIO0\u005CUART0_TX*%
X41110000Y64760000D03*
D11*
%TO.P,EXT2,2*%
%TO.N,/GPIO1\u005CUART0_RX*%
X41110000Y62220000D03*
%TO.P,EXT2,3*%
%TO.N,GND*%
X41110000Y59680000D03*
%TO.P,EXT2,4*%
%TO.N,/GPIO2\u005CIN1*%
X41110000Y57140000D03*
%TO.P,EXT2,5*%
%TO.N,/GPIO3\u005CIN2*%
X41110000Y54600000D03*
%TO.P,EXT2,6*%
%TO.N,/GPIO4\u005CSPI0_RX(MISO)*%
X41110000Y52060000D03*
%TO.P,EXT2,7*%
%TO.N,/GPIO5\u005CSPI0_CSn(CS#)*%
X41110000Y49520000D03*
%TO.P,EXT2,8*%
%TO.N,GND*%
X41110000Y46980000D03*
%TO.P,EXT2,9*%
%TO.N,/GPIO6\u005CSPI0_SCK(CLK)*%
X41110000Y44440000D03*
%TO.P,EXT2,10*%
%TO.N,/GPIO7\u005CSPI0_TX(MOSI)*%
X41110000Y41900000D03*
%TO.P,EXT2,11*%
%TO.N,/GPIO8\u005CIN3*%
X41110000Y39360000D03*
%TO.P,EXT2,12*%
%TO.N,/GPIO9\u005CIN4*%
X41110000Y36820000D03*
%TO.P,EXT2,13*%
%TO.N,/GPIO29*%
X41110000Y34280000D03*
%TO.P,EXT2,14*%
%TO.N,/GPIO10\u005CREL1*%
X41110000Y31740000D03*
%TO.P,EXT2,15*%
%TO.N,/GPIO11\u005CREL2*%
X41110000Y29200000D03*
%TO.P,EXT2,16*%
%TO.N,/GPIO12\u005CREL3*%
X41110000Y26660000D03*
%TO.P,EXT2,17*%
%TO.N,/GPIO13\u005CREL4*%
X41110000Y24120000D03*
%TO.P,EXT2,18*%
%TO.N,/GPIO25*%
X41110000Y21580000D03*
%TO.P,EXT2,19*%
%TO.N,/GPIO14*%
X41110000Y19040000D03*
%TO.P,EXT2,20*%
%TO.N,/GPIO15*%
X41110000Y16500000D03*
%TD*%
D12*
%TO.P,CON_REL4,1*%
%TO.N,Net-(CON_REL4-Pad1)*%
X95500000Y4125000D03*
D13*
%TO.P,CON_REL4,2*%
%TO.N,Net-(CON_REL4-Pad2)*%
X95500000Y9125000D03*
%TO.P,CON_REL4,3*%
%TO.N,Net-(CON_REL4-Pad3)*%
X95500000Y14125000D03*
%TD*%
D12*
%TO.P,CON_REL2,1*%
%TO.N,Net-(CON_REL2-Pad1)*%
X95500000Y38625000D03*
D13*
%TO.P,CON_REL2,2*%
%TO.N,Net-(CON_REL2-Pad2)*%
X95500000Y43625000D03*
%TO.P,CON_REL2,3*%
%TO.N,Net-(CON_REL2-Pad3)*%
X95500000Y48625000D03*
%TD*%
D12*
%TO.P,PWR1,1*%
%TO.N,+5V_EXT*%
X4500000Y7500000D03*
D13*
%TO.P,PWR1,2*%
%TO.N,GND*%
X4500000Y2500000D03*
%TD*%
D12*
%TO.P,IN2,1*%
%TO.N,Net-(IN2-Pad1)*%
X4500000Y52500000D03*
D13*
%TO.P,IN2,2*%
%TO.N,Net-(IN2-Pad2)*%
X4500000Y47500000D03*
%TO.P,IN2,3*%
%TO.N,Net-(D4-A)*%
X4500000Y42500000D03*
%TD*%
D12*
%TO.P,IN4,1*%
%TO.N,Net-(IN4-Pad1)*%
X4500000Y22500000D03*
D13*
%TO.P,IN4,2*%
%TO.N,Net-(IN4-Pad2)*%
X4500000Y17500000D03*
%TO.P,IN4,3*%
%TO.N,Net-(D6-A)*%
X4500000Y12500000D03*
%TD*%
D14*
%TO.P,REL1,1*%
%TO.N,+5V*%
X73200000Y54875000D03*
%TO.P,REL1,2*%
%TO.N,Net-(D1-A)*%
X73200000Y66875000D03*
%TO.P,REL1,COM0*%
%TO.N,Net-(CON_REL1-Pad2)*%
X71200000Y60875000D03*
%TO.P,REL1,NC0*%
%TO.N,Net-(CON_REL1-Pad3)*%
X85200000Y66875000D03*
%TO.P,REL1,NO0*%
%TO.N,Net-(CON_REL1-Pad1)*%
X85200000Y54875000D03*
%TD*%
%TO.P,REL2,1*%
%TO.N,+5V*%
X73200000Y37625000D03*
%TO.P,REL2,2*%
%TO.N,Net-(D2-A)*%
X73200000Y49625000D03*
%TO.P,REL2,COM0*%
%TO.N,Net-(CON_REL2-Pad2)*%
X71200000Y43625000D03*
%TO.P,REL2,NC0*%
%TO.N,Net-(CON_REL2-Pad3)*%
X85200000Y49625000D03*
%TO.P,REL2,NO0*%
%TO.N,Net-(CON_REL2-Pad1)*%
X85200000Y37625000D03*
%TD*%
D10*
%TO.P,EXT1,1*%
%TO.N,GND*%
X24320000Y68500000D03*
D11*
%TO.P,EXT1,2*%
%TO.N,/RUN*%
X26860000Y68500000D03*
%TO.P,EXT1,3*%
%TO.N,/3V3_EN*%
X29400000Y68500000D03*
%TO.P,EXT1,4*%
%TO.N,/ADC_VREF*%
X31940000Y68500000D03*
%TO.P,EXT1,5*%
%TO.N,/GPIO29*%
X34480000Y68500000D03*
%TO.P,EXT1,6*%
%TO.N,/GPIO28*%
X37020000Y68500000D03*
%TO.P,EXT1,7*%
%TO.N,/GPIO27*%
X39560000Y68500000D03*
%TO.P,EXT1,8*%
%TO.N,/GPIO26*%
X42100000Y68500000D03*
%TO.P,EXT1,9*%
%TO.N,/GPIO25*%
X44640000Y68500000D03*
%TO.P,EXT1,10*%
%TO.N,/GPIO24*%
X47180000Y68500000D03*
%TO.P,EXT1,11*%
%TO.N,/GPIO23*%
X49720000Y68500000D03*
%TO.P,EXT1,12*%
%TO.N,/GPIO22*%
X52260000Y68500000D03*
%TO.P,EXT1,13*%
%TO.N,/GPIO21*%
X54800000Y68500000D03*
%TO.P,EXT1,14*%
%TO.N,/GPIO20*%
X57340000Y68500000D03*
%TO.P,EXT1,15*%
%TO.N,/GPIO19*%
X59880000Y68500000D03*
%TO.P,EXT1,16*%
%TO.N,/GPIO18*%
X62420000Y68500000D03*
%TO.P,EXT1,17*%
%TO.N,/GPIO15*%
X64960000Y68500000D03*
%TO.P,EXT1,18*%
%TO.N,/GPIO14*%
X67500000Y68500000D03*
%TD*%
D12*
%TO.P,CON_REL1,1*%
%TO.N,Net-(CON_REL1-Pad1)*%
X95500000Y55875000D03*
D13*
%TO.P,CON_REL1,2*%
%TO.N,Net-(CON_REL1-Pad2)*%
X95500000Y60875000D03*
%TO.P,CON_REL1,3*%
%TO.N,Net-(CON_REL1-Pad3)*%
X95500000Y65875000D03*
%TD*%
D12*
%TO.P,IN3,1*%
%TO.N,Net-(IN3-Pad1)*%
X4500000Y37500000D03*
D13*
%TO.P,IN3,2*%
%TO.N,Net-(IN3-Pad2)*%
X4500000Y32500000D03*
%TO.P,IN3,3*%
%TO.N,Net-(D5-A)*%
X4500000Y27500000D03*
%TD*%
D10*
%TO.P,+5V0,1,Pad*%
%TO.N,+5V*%
X65000000Y1500000D03*
%TD*%
D14*
%TO.P,REL3,1*%
%TO.N,+5V*%
X73200000Y20375000D03*
%TO.P,REL3,2*%
%TO.N,Net-(D7-A)*%
X73200000Y32375000D03*
%TO.P,REL3,COM0*%
%TO.N,Net-(CON_REL3-Pad2)*%
X71200000Y26375000D03*
%TO.P,REL3,NC0*%
%TO.N,Net-(CON_REL3-Pad3)*%
X85200000Y32375000D03*
%TO.P,REL3,NO0*%
%TO.N,Net-(CON_REL3-Pad1)*%
X85200000Y20375000D03*
%TD*%
D12*
%TO.P,IN1,1*%
%TO.N,Net-(IN1-Pad1)*%
X4500000Y67500000D03*
D13*
%TO.P,IN1,2*%
%TO.N,Net-(IN1-Pad2)*%
X4500000Y62500000D03*
%TO.P,IN1,3*%
%TO.N,Net-(D3-A)*%
X4500000Y57500000D03*
%TD*%
D12*
%TO.P,CON_REL3,1*%
%TO.N,Net-(CON_REL3-Pad1)*%
X95500000Y21375000D03*
D13*
%TO.P,CON_REL3,2*%
%TO.N,Net-(CON_REL3-Pad2)*%
X95500000Y26375000D03*
%TO.P,CON_REL3,3*%
%TO.N,Net-(CON_REL3-Pad3)*%
X95500000Y31375000D03*
%TD*%
D14*
%TO.P,REL4,1*%
%TO.N,+5V*%
X73200000Y3125000D03*
%TO.P,REL4,2*%
%TO.N,Net-(D8-A)*%
X73200000Y15125000D03*
%TO.P,REL4,COM0*%
%TO.N,Net-(CON_REL4-Pad2)*%
X71200000Y9125000D03*
%TO.P,REL4,NC0*%
%TO.N,Net-(CON_REL4-Pad3)*%
X85200000Y15125000D03*
%TO.P,REL4,NO0*%
%TO.N,Net-(CON_REL4-Pad1)*%
X85200000Y3125000D03*
%TD*%
D15*
%TO.P,USB-PWR1,0,SHELL*%
%TO.N,GND*%
X29320000Y6530000D03*
X20680000Y6530000D03*
D16*
X29320000Y2350000D03*
X20680000Y2350000D03*
%TD*%
D10*
%TO.P,GND1,1,Pad*%
%TO.N,GND*%
X34000000Y1500000D03*
%TD*%
D17*
%TO.N,GND*%
X32000000Y12750000D03*
D18*
X52250000Y10500000D03*
D17*
X61250000Y25500000D03*
X51300000Y49500000D03*
D18*
X51500000Y14750000D03*
X39250000Y38750000D03*
D17*
X32000000Y51750000D03*
D18*
X47100000Y33200000D03*
D17*
X63250000Y30000000D03*
X51300000Y46980000D03*
D18*
X54900000Y8750000D03*
D17*
X32000000Y26250000D03*
X51300000Y52000000D03*
X25250000Y11000000D03*
D18*
X42200000Y40600000D03*
D17*
X22750000Y4000000D03*
D18*
X51200000Y23472798D03*
D17*
X1500000Y1000000D03*
D18*
X44750000Y8750000D03*
X43100000Y29900000D03*
D17*
X17750000Y1000000D03*
X1500000Y4000000D03*
D18*
X46700000Y22500000D03*
D17*
X35000000Y64500000D03*
D18*
X47250000Y6000000D03*
X46181000Y34400000D03*
X46700000Y24000000D03*
X47800000Y27172798D03*
D17*
X59750000Y12000000D03*
D18*
X52900000Y32400000D03*
X51800000Y29070000D03*
D17*
X32000000Y17750000D03*
X39500000Y17750000D03*
X32000000Y49250000D03*
X46600000Y49500000D03*
X39000000Y1000000D03*
D18*
X44750000Y10500000D03*
X43100000Y32500000D03*
D17*
X62750000Y57750000D03*
D18*
X47800000Y29070000D03*
D17*
X14000000Y4250000D03*
X39250000Y24500000D03*
X32000000Y34750000D03*
X51300000Y59000000D03*
X58000000Y6500000D03*
X51300000Y56500000D03*
D18*
X43250000Y6000000D03*
X39250000Y36250000D03*
D17*
X63250000Y27750000D03*
X59750000Y8250000D03*
D18*
X46700000Y25572798D03*
X48250000Y19250000D03*
X57250000Y64750000D03*
D17*
X62500000Y2750000D03*
X68500000Y35500000D03*
X36250000Y1000000D03*
X31750000Y1000000D03*
D18*
X41600000Y9100000D03*
D17*
X62750000Y62250000D03*
X61250000Y27750000D03*
X43750000Y63500000D03*
X27250000Y1000000D03*
X39000000Y45750000D03*
X10250000Y1000000D03*
X32000000Y20300000D03*
X44250000Y24800000D03*
D18*
X42200000Y43250000D03*
D17*
X32000000Y59300000D03*
X37500000Y64500000D03*
D18*
X47250000Y8750000D03*
X62200000Y51100000D03*
D17*
X32000000Y37750000D03*
X63250000Y43750000D03*
X32000000Y42800000D03*
X6500000Y4000000D03*
X44250000Y26800000D03*
X46600000Y52000000D03*
D18*
X47250000Y1500000D03*
D17*
X17750000Y4000000D03*
X39000000Y51750000D03*
X39250000Y30450000D03*
X39000000Y48750000D03*
X51300000Y42500000D03*
X62250000Y66000000D03*
X39000000Y43750000D03*
X25000000Y1000000D03*
X63250000Y41250000D03*
X22750000Y1000000D03*
X60250000Y2750000D03*
X39250000Y28450000D03*
D18*
X51929999Y24202797D03*
D17*
X63250000Y33750000D03*
X46600000Y59000000D03*
D18*
X46000000Y6000000D03*
D17*
X6500000Y1000000D03*
X58000000Y2750000D03*
D18*
X52100000Y32850000D03*
D17*
X32000000Y40250000D03*
D18*
X48500000Y6000000D03*
D17*
X32000000Y28800000D03*
X10250000Y4000000D03*
X61250000Y22500000D03*
X66750000Y37500000D03*
D18*
X56000000Y66000000D03*
D17*
X62750000Y59750000D03*
X32000000Y55500000D03*
D18*
X47250000Y10500000D03*
D17*
X63250000Y37500000D03*
X46600000Y42500000D03*
D18*
X47800000Y32400000D03*
D17*
X44250000Y22800000D03*
D18*
X51500000Y16000000D03*
D17*
X32000000Y15250000D03*
X58000000Y14000000D03*
D18*
X54900000Y10500000D03*
X46700000Y17750000D03*
D17*
X14000000Y1000000D03*
D18*
X42000000Y6000000D03*
D17*
X66750000Y33750000D03*
X62750000Y47000000D03*
X39500000Y20000000D03*
D18*
X46700000Y19250000D03*
X52900000Y33300000D03*
D17*
X68500000Y19250000D03*
X46250000Y29073443D03*
X58000000Y10250000D03*
X32000000Y10250000D03*
X46250000Y63500000D03*
X35500000Y42250000D03*
X46600000Y56500000D03*
X46600000Y46980000D03*
X39250000Y26500000D03*
D18*
X42200000Y38100000D03*
D17*
X62250000Y64750000D03*
X63250000Y25500000D03*
X35500000Y44000000D03*
X41750000Y1000000D03*
X67250000Y20500000D03*
D18*
X46181000Y36400000D03*
X52250000Y8750000D03*
%TO.N,/GPIO2\u005CIN1*%
X39599997Y60500000D03*
%TO.N,/GPIO3\u005CIN2*%
X35035000Y46008000D03*
X35035000Y54600000D03*
%TO.N,+3.3V*%
X38700000Y14200000D03*
X34000000Y53300000D03*
X50400000Y13758000D03*
X34000000Y60800000D03*
X42449132Y2721000D03*
X34000000Y14200000D03*
X34000000Y30300000D03*
X34000000Y55900000D03*
X34000000Y21800000D03*
X34000000Y44300000D03*
%TO.N,/GPIO8\u005CIN3*%
X38100000Y32008000D03*
%TO.N,/GPIO9\u005CIN4*%
X38100000Y23508000D03*
%TO.N,/GPIO12\u005CREL3*%
X45400000Y44100000D03*
%TO.N,/RUN*%
X48800000Y63400000D03*
X52500000Y41300000D03*
%TO.N,/GPIO13\u005CREL4*%
X59800000Y4300000D03*
%TO.N,+5V*%
X48650000Y29995000D03*
D17*
X66755000Y6245000D03*
X66755000Y40245000D03*
X66801000Y23245000D03*
D18*
X49429000Y33429000D03*
D17*
%TO.N,VDD_SYS*%
X48100000Y43600000D03*
X47300000Y62110993D03*
D18*
%TO.N,/GPIO15*%
X64600000Y21100000D03*
X60900000Y21100000D03*
%TO.N,/GPIO14*%
X65743000Y21100000D03*
X56799998Y21100000D03*
%TO.N,/GPIO29*%
X54000000Y44900000D03*
X43000000Y44900000D03*
%TO.N,/GPIO7\u005CSPI0_TX(MOSI)*%
X51000000Y6200000D03*
%TO.N,/GPIO6\u005CSPI0_SCK(CLK)*%
X52600000Y3300000D03*
%TO.N,/GPIO5\u005CSPI0_CSn(CS#)*%
X54730002Y3000000D03*
%TO.N,/GPIO4\u005CSPI0_RX(MISO)*%
X50100000Y2900000D03*
%TO.N,/GPIO0\u005CUART0_TX*%
X44892057Y2892057D03*
%TO.N,/GPIO1\u005CUART0_RX*%
X36995610Y6395610D03*
%TO.N,/GPIO18*%
X64412000Y23566201D03*
%TO.N,/GPIO16\u005CI2C0_SDA*%
X49000002Y12700002D03*
%TO.N,/GPIO17\u005CI2C0_SCL*%
X51800000Y12800000D03*
%TO.N,/GPIO26*%
X55700000Y42846000D03*
%TO.N,/GPIO27*%
X55313751Y44413751D03*
%TO.N,/GPIO28*%
X54800000Y49500000D03*
%TO.N,/ADC_VREF*%
X51000000Y63420990D03*
X53800000Y52100000D03*
%TO.N,/3V3_EN*%
X53300000Y57100000D03*
X49900000Y63400000D03*
D17*
%TO.N,+5V_EXT*%
X19000000Y8600000D03*
X19800000Y9400000D03*
X34000000Y5250000D03*
X34750000Y4500000D03*
%TO.N,Net-(D3-A)*%
X21862500Y59537500D03*
%TO.N,Net-(D4-A)*%
X21750000Y42500000D03*
%TO.N,Net-(D5-A)*%
X21800000Y29000000D03*
%TO.N,Net-(D6-A)*%
X23100000Y20300000D03*
D18*
%TO.N,/GPIO10\u005CREL1*%
X43800000Y61000000D03*
%TO.N,/GPIO11\u005CREL2*%
X44600000Y45779000D03*
%TO.N,Net-(PWR_LED1-A)*%
X45300000Y38400000D03*
X38700000Y15300000D03*
%TD*%
D19*
%TO.N,GND*%
X32000000Y65500000D02*
X30750000Y66750000D01*
X62750000Y62250000D02*
X62750000Y65500000D01*
X62750000Y65500000D02*
X62250000Y66000000D01*
X51300000Y40300000D02*
X51300000Y46980000D01*
X63250000Y20000000D02*
X60992000Y17742000D01*
X52900000Y33650000D02*
X52900000Y33900000D01*
X31258000Y11000000D02*
X32008000Y11750000D01*
X37500000Y64500000D02*
X35000000Y64500000D01*
X52900000Y32400000D02*
X52900000Y33300000D01*
X25250000Y11000000D02*
X31250000Y11000000D01*
X32008000Y20292000D02*
X32008000Y11750000D01*
X32000000Y28800000D02*
X32000000Y42800000D01*
X32000000Y59300000D02*
X32000000Y63500000D01*
X30750000Y66750000D02*
X26070000Y66750000D01*
X33000000Y64500000D02*
X32000000Y63500000D01*
X52550000Y32400000D02*
X52100000Y32850000D01*
X32000000Y63500000D02*
X32000000Y65500000D01*
X63250000Y30000000D02*
X63250000Y46500000D01*
X46600000Y59000000D02*
X46600000Y60700000D01*
X31250000Y11000000D02*
X32000000Y10250000D01*
D20*
X29320000Y6530000D02*
X29320000Y2350000D01*
D19*
X32000000Y20300000D02*
X32008000Y20292000D01*
X46600000Y60700000D02*
X43800000Y63500000D01*
D20*
X34068000Y1432000D02*
X34000000Y1500000D01*
D19*
X32000000Y20300000D02*
X32000000Y28800000D01*
X51300000Y46980000D02*
X51300000Y59000000D01*
D20*
X62500000Y2750000D02*
X61182000Y1432000D01*
D19*
X46600000Y46980000D02*
X46600000Y59000000D01*
X33000000Y64500000D02*
X32000000Y65500000D01*
X62750000Y62250000D02*
X62750000Y59750000D01*
X26070000Y66750000D02*
X24320000Y68500000D01*
X35000000Y64500000D02*
X33000000Y64500000D01*
X52100000Y32850000D02*
X52100000Y39500000D01*
X32008000Y10258000D02*
X32000000Y10250000D01*
X52900000Y32400000D02*
X52550000Y32400000D01*
X60992000Y17742000D02*
X60992000Y14208000D01*
X32008000Y42808000D02*
X32008000Y59292000D01*
X62250000Y64750000D02*
X62250000Y62750000D01*
X52900000Y38700000D02*
X51800000Y39800000D01*
X32008000Y11750000D02*
X32008000Y10258000D01*
X31250000Y11000000D02*
X31258000Y11000000D01*
X32008000Y59292000D02*
X32000000Y59300000D01*
X46181000Y36400000D02*
X46600000Y36819000D01*
D21*
X47800000Y29070000D02*
X51800000Y29070000D01*
D19*
X52100000Y32850000D02*
X52900000Y33650000D01*
X52900000Y33900000D02*
X52900000Y38700000D01*
X62250000Y66000000D02*
X62250000Y64750000D01*
X62500000Y12700000D02*
X62500000Y2750000D01*
D20*
X61182000Y1432000D02*
X34068000Y1432000D01*
D19*
X51800000Y39800000D02*
X51300000Y40300000D01*
X62250000Y62750000D02*
X62750000Y62250000D01*
X63250000Y30000000D02*
X63250000Y20000000D01*
X62250000Y62750000D02*
X62250000Y58250000D01*
X52100000Y39500000D02*
X51800000Y39800000D01*
X52900000Y33300000D02*
X52900000Y33900000D01*
X43800000Y63500000D02*
X43750000Y63500000D01*
X46600000Y36819000D02*
X46600000Y46980000D01*
X60992000Y14208000D02*
X62500000Y12700000D01*
X32000000Y42800000D02*
X32008000Y42808000D01*
X62250000Y58250000D02*
X62750000Y57750000D01*
X62750000Y59750000D02*
X62750000Y57750000D01*
X63250000Y46500000D02*
X62750000Y47000000D01*
D21*
%TO.N,/GPIO2\u005CIN1*%
X39599997Y58650003D02*
X39599997Y60500000D01*
X41110000Y57140000D02*
X39599997Y58650003D01*
D22*
%TO.N,/GPIO3\u005CIN2*%
X35000000Y54565000D02*
X35035000Y54600000D01*
X35035000Y46008000D02*
X35000000Y46043000D01*
X35000000Y46043000D02*
X35000000Y54565000D01*
D23*
%TO.N,+3.3V*%
X34000000Y55900000D02*
X34000000Y44300000D01*
X39979000Y2721000D02*
X37900000Y4800000D01*
X34000000Y30300000D02*
X34000000Y21800000D01*
D21*
X49958000Y14200000D02*
X50400000Y13758000D01*
D23*
X36300000Y4800000D02*
X34000000Y7100000D01*
X34000000Y44200000D02*
X34000000Y30300000D01*
X37900000Y4800000D02*
X36300000Y4800000D01*
X34000000Y7100000D02*
X34000000Y21800000D01*
D21*
X38700000Y14200000D02*
X49958000Y14200000D01*
D23*
X34000000Y55900000D02*
X34000000Y60800000D01*
X42449132Y2721000D02*
X39979000Y2721000D01*
D24*
%TO.N,/GPIO8\u005CIN3*%
X41110000Y39360000D02*
X38100000Y36350000D01*
X38100000Y36350000D02*
X38100000Y32008000D01*
%TO.N,/GPIO9\u005CIN4*%
X41110000Y36820000D02*
X38900000Y34610000D01*
X38900000Y31600000D02*
X38100000Y30800000D01*
X38900000Y34610000D02*
X38900000Y31600000D01*
X38100000Y30800000D02*
X38100000Y23508000D01*
%TO.N,/GPIO12\u005CREL3*%
X44502000Y43202000D02*
X44502000Y30111936D01*
X45400000Y44100000D02*
X44502000Y43202000D01*
X44502000Y30111936D02*
X41110000Y26719936D01*
X41110000Y26719936D02*
X41110000Y26660000D01*
D22*
%TO.N,/RUN*%
X48800000Y63400000D02*
X52500000Y59700000D01*
X52500000Y59700000D02*
X52500000Y41300000D01*
D24*
%TO.N,/GPIO13\u005CREL4*%
X52200000Y7600000D02*
X55500000Y4300000D01*
X41110000Y24120000D02*
X37869000Y20879000D01*
X37869000Y20879000D02*
X37869000Y9631000D01*
X39900000Y7600000D02*
X52200000Y7600000D01*
X55500000Y4300000D02*
X59800000Y4300000D01*
X37869000Y9631000D02*
X39900000Y7600000D01*
D20*
%TO.N,+5V*%
X66755000Y6245000D02*
X66500000Y6500000D01*
X66755000Y46855000D02*
X73200000Y53300000D01*
X66755000Y40245000D02*
X66762000Y40252000D01*
D23*
X49429000Y30774000D02*
X48650000Y29995000D01*
D20*
X66500000Y6500000D02*
X66500000Y11472631D01*
X66755000Y41176184D02*
X66755000Y46855000D01*
X66762000Y40252000D02*
X66762000Y41169184D01*
X68200000Y38800000D02*
X66755000Y40245000D01*
X71975000Y21600000D02*
X68446000Y21600000D01*
X73200000Y37625000D02*
X72025000Y38800000D01*
X72025000Y38800000D02*
X68200000Y38800000D01*
X73200000Y35700000D02*
X66755000Y29255000D01*
X66755000Y23291000D02*
X66801000Y23245000D01*
X73200000Y20375000D02*
X71975000Y21600000D01*
X68446000Y21600000D02*
X66801000Y23245000D01*
X66762000Y41169184D02*
X66755000Y41176184D01*
X73200000Y37625000D02*
X73200000Y35700000D01*
X66755000Y29255000D02*
X66755000Y23291000D01*
X69875000Y3125000D02*
X66755000Y6245000D01*
X73200000Y3125000D02*
X69875000Y3125000D01*
X73200000Y18172631D02*
X73200000Y20375000D01*
X73200000Y53300000D02*
X73200000Y54875000D01*
X66500000Y11472631D02*
X73200000Y18172631D01*
D23*
X49429000Y33429000D02*
X49429000Y30774000D01*
D20*
%TO.N,VDD_SYS*%
X48100000Y61310993D02*
X47300000Y62110993D01*
X48100000Y43600000D02*
X48100000Y61310993D01*
D22*
%TO.N,/GPIO25*%
X55780000Y21580000D02*
X41110000Y21580000D01*
X44640000Y68500000D02*
X45940000Y67200000D01*
X50607106Y66200000D02*
X52407106Y66200000D01*
X50107106Y66700000D02*
X50607106Y66200000D01*
X47807106Y67200000D02*
X48307106Y66700000D01*
X52407106Y66200000D02*
X56600000Y62007106D01*
X45940000Y67200000D02*
X47807106Y67200000D01*
X56600000Y62007106D02*
X56600000Y22400000D01*
X48307106Y66700000D02*
X50107106Y66700000D01*
X56600000Y22400000D02*
X55780000Y21580000D01*
D24*
%TO.N,/GPIO15*%
X66496000Y59154000D02*
X69706000Y55944000D01*
D19*
X64960000Y68500000D02*
X64960000Y68240000D01*
D24*
X60106000Y20306000D02*
X44467968Y20306000D01*
X69706000Y52018764D02*
X65239000Y47551764D01*
X66496000Y65204000D02*
X66496000Y59154000D01*
X69706000Y55944000D02*
X69706000Y52018764D01*
X44467968Y20306000D02*
X41110000Y16948032D01*
X41110000Y16948032D02*
X41110000Y16500000D01*
X66000000Y65700000D02*
X66496000Y65204000D01*
X65239000Y47551764D02*
X65239000Y21739000D01*
X66000000Y67200000D02*
X66000000Y65700000D01*
X60900000Y21100000D02*
X60106000Y20306000D01*
X65239000Y21739000D02*
X64600000Y21100000D01*
D19*
X64960000Y68240000D02*
X66000000Y67200000D01*
D24*
%TO.N,/GPIO14*%
X65743000Y47343000D02*
X65743000Y21100000D01*
X67000000Y59362764D02*
X70210000Y56152764D01*
X70210000Y51810000D02*
X65743000Y47343000D01*
X56699998Y21000000D02*
X56799998Y21100000D01*
X70210000Y56152764D02*
X70210000Y51810000D01*
D19*
X67500000Y68500000D02*
X67500000Y66250000D01*
D24*
X43070000Y21000000D02*
X56699998Y21000000D01*
X41110000Y19040000D02*
X43070000Y21000000D01*
X67500000Y64500000D02*
X67000000Y64000000D01*
X67500000Y66250000D02*
X67500000Y64500000D01*
X67000000Y64000000D02*
X67000000Y59362764D01*
D22*
%TO.N,/GPIO29*%
X42742679Y65736000D02*
X42242680Y66236000D01*
X37600000Y67200000D02*
X35780000Y67200000D01*
X47478682Y64700000D02*
X46978682Y65200000D01*
X54000000Y44900000D02*
X54025000Y44925000D01*
X43000000Y36170000D02*
X43000000Y44900000D01*
X44542682Y65736000D02*
X42742679Y65736000D01*
X55100000Y46000000D02*
X55100000Y48112500D01*
X55100000Y48112500D02*
X54487500Y48725000D01*
X46978682Y65200000D02*
X45078682Y65200000D01*
X51578682Y64200000D02*
X49592894Y64200000D01*
X54478984Y48725000D02*
X54025000Y49178984D01*
X54025000Y49178984D02*
X54025000Y49821016D01*
X40409787Y66236000D02*
X39909787Y66736000D01*
X45078682Y65200000D02*
X44542682Y65736000D01*
X54487500Y48725000D02*
X54478984Y48725000D01*
X41110000Y34280000D02*
X43000000Y36170000D01*
X35780000Y67200000D02*
X34480000Y68500000D01*
X49092894Y64700000D02*
X47478682Y64700000D01*
X54025000Y49821016D02*
X54600000Y50396016D01*
X38064000Y66736000D02*
X37600000Y67200000D01*
X49592894Y64200000D02*
X49092894Y64700000D01*
X39909787Y66736000D02*
X38064000Y66736000D01*
X42242680Y66236000D02*
X40409787Y66236000D01*
X54600000Y61178682D02*
X51578682Y64200000D01*
X54600000Y50396016D02*
X54600000Y61178682D01*
X54000000Y44900000D02*
X55100000Y46000000D01*
%TO.N,/GPIO7\u005CSPI0_TX(MOSI)*%
X39602000Y7098000D02*
X50102000Y7098000D01*
X37298000Y9402000D02*
X39602000Y7098000D01*
X41110000Y41900000D02*
X37298000Y38088000D01*
X50102000Y7098000D02*
X51000000Y6200000D01*
X37298000Y38088000D02*
X37298000Y9402000D01*
%TO.N,/GPIO6\u005CSPI0_SCK(CLK)*%
X41110000Y44440000D02*
X38500000Y41830000D01*
X36798000Y9194893D02*
X40992894Y5000000D01*
X38500000Y41830000D02*
X38500000Y39997106D01*
X49900000Y5000000D02*
X51600000Y3300000D01*
X36798000Y38295106D02*
X36798000Y9194893D01*
X40992894Y5000000D02*
X49900000Y5000000D01*
X38500000Y39997106D02*
X36798000Y38295106D01*
X51600000Y3300000D02*
X52600000Y3300000D01*
%TO.N,/GPIO5\u005CSPI0_CSn(CS#)*%
X49692894Y4500000D02*
X51692894Y2500000D01*
X36298000Y8906360D02*
X40704360Y4500000D01*
X40704360Y4500000D02*
X49692894Y4500000D01*
X54230002Y2500000D02*
X54730002Y3000000D01*
X38000000Y46410000D02*
X38000000Y40204212D01*
X38000000Y40204212D02*
X36298000Y38502212D01*
X36298000Y38502212D02*
X36298000Y8906360D01*
X51692894Y2500000D02*
X54230002Y2500000D01*
X41110000Y49520000D02*
X38000000Y46410000D01*
%TO.N,/GPIO4\u005CSPI0_RX(MISO)*%
X49000000Y4000000D02*
X50100000Y2900000D01*
X37500000Y48600000D02*
X37500000Y40411318D01*
X41110000Y52060000D02*
X40960000Y52060000D01*
X40497253Y4000000D02*
X49000000Y4000000D01*
X35798000Y8699253D02*
X40497253Y4000000D01*
X40960000Y52060000D02*
X37500000Y48600000D01*
X37500000Y40411318D02*
X35798000Y38709318D01*
X35798000Y38709318D02*
X35798000Y8699253D01*
%TO.N,/GPIO0\u005CUART0_TX*%
X41060000Y64760000D02*
X41110000Y64760000D01*
X34798000Y39123531D02*
X36500000Y40825531D01*
X44892057Y2892057D02*
X44284114Y3500000D01*
X36500000Y60200000D02*
X41060000Y64760000D01*
X44284114Y3500000D02*
X40290146Y3500000D01*
X36733547Y5556000D02*
X34797999Y7491548D01*
X36500000Y40825531D02*
X36500000Y60200000D01*
X40290146Y3500000D02*
X38234145Y5556000D01*
X34797999Y7491548D02*
X34798000Y39123531D01*
X38234145Y5556000D02*
X36733547Y5556000D01*
%TO.N,/GPIO1\u005CUART0_RX*%
X39227106Y62220000D02*
X37000000Y59992894D01*
X35298000Y8093220D02*
X36995610Y6395610D01*
X35298000Y38916424D02*
X35298000Y8093220D01*
X41110000Y62220000D02*
X39227106Y62220000D01*
X37000000Y40618424D02*
X35298000Y38916424D01*
X37000000Y59992894D02*
X37000000Y40618424D01*
D24*
%TO.N,/GPIO18*%
X63400000Y67500000D02*
X65992000Y64908000D01*
X65992000Y64908000D02*
X65992000Y58844459D01*
D19*
X62420000Y68500000D02*
X63400000Y67520000D01*
D24*
X65992000Y58844459D02*
X69202000Y55634459D01*
X69202000Y52227528D02*
X64412000Y47437528D01*
D19*
X63400000Y67520000D02*
X63400000Y67500000D01*
D24*
X64412000Y47437528D02*
X64412000Y23566201D01*
X69202000Y55634459D02*
X69202000Y52227528D01*
D22*
%TO.N,/GPIO24*%
X50892894Y66700000D02*
X52614212Y66700000D01*
X52614212Y66700000D02*
X57100000Y62214212D01*
X50392894Y67200000D02*
X50892894Y66700000D01*
X47214212Y68500000D02*
X48514212Y67200000D01*
X48514212Y67200000D02*
X50392894Y67200000D01*
X57100000Y23370000D02*
X58890000Y21580000D01*
X57100000Y62214212D02*
X57100000Y23370000D01*
X47180000Y68500000D02*
X47214212Y68500000D01*
%TO.N,/GPIO16\u005CI2C0_SDA*%
X55000000Y14900000D02*
X57290000Y14900000D01*
X52100000Y12000000D02*
X55000000Y14900000D01*
X49000002Y12700002D02*
X49700004Y12000000D01*
X49700004Y12000000D02*
X52100000Y12000000D01*
X57290000Y14900000D02*
X58890000Y16500000D01*
%TO.N,/GPIO17\u005CI2C0_SCL*%
X56465000Y19400000D02*
X54800000Y19400000D01*
X58890000Y19040000D02*
X56825000Y19040000D01*
X53400000Y18000000D02*
X53400000Y14400000D01*
X54800000Y19400000D02*
X53400000Y18000000D01*
X53400000Y14400000D02*
X51800000Y12800000D01*
X56825000Y19040000D02*
X56465000Y19400000D01*
%TO.N,/GPIO20*%
X61250000Y65950000D02*
X61250000Y31560000D01*
X60400000Y66800000D02*
X61250000Y65950000D01*
X59040000Y66800000D02*
X60400000Y66800000D01*
X57340000Y68500000D02*
X59040000Y66800000D01*
X61250000Y31560000D02*
X58890000Y29200000D01*
%TO.N,/GPIO19*%
X59880000Y68500000D02*
X61255000Y67125000D01*
X68700000Y52450331D02*
X66499669Y50250000D01*
X66499669Y50250000D02*
X62250000Y50250000D01*
X68700000Y55426524D02*
X68700000Y52450331D01*
X61255000Y67125000D02*
X62526249Y67125000D01*
X65490000Y64161249D02*
X65490000Y58636524D01*
X61750000Y29520000D02*
X58890000Y26660000D01*
X62526249Y67125000D02*
X65490000Y64161249D01*
X65490000Y58636524D02*
X68700000Y55426524D01*
X62250000Y50250000D02*
X61750000Y49750000D01*
X61750000Y49750000D02*
X61750000Y29520000D01*
%TO.N,/GPIO21*%
X60750000Y33600000D02*
X58890000Y31740000D01*
X60750000Y65650000D02*
X60750000Y33600000D01*
X57000000Y66300000D02*
X60100000Y66300000D01*
X54800000Y68500000D02*
X57000000Y66300000D01*
X60100000Y66300000D02*
X60750000Y65650000D01*
%TO.N,/GPIO23*%
X49800000Y68500000D02*
X51100000Y67200000D01*
X49720000Y68500000D02*
X49800000Y68500000D01*
X57626000Y62395318D02*
X57626000Y35544000D01*
X52821318Y67200000D02*
X57626000Y62395318D01*
X57626000Y35544000D02*
X58890000Y34280000D01*
X51100000Y67200000D02*
X52821318Y67200000D01*
%TO.N,/GPIO22*%
X52260000Y68500000D02*
X57264000Y63496000D01*
X60250000Y38180000D02*
X58890000Y36820000D01*
X57264000Y63496000D02*
X59654000Y63496000D01*
X60250000Y62900000D02*
X60250000Y38180000D01*
X59654000Y63496000D02*
X60250000Y62900000D01*
%TO.N,/GPIO26*%
X45700000Y66700000D02*
X47600000Y66700000D01*
X55700000Y42600000D02*
X55700000Y42846000D01*
X45164000Y67236000D02*
X45700000Y66700000D01*
X48100000Y66200000D02*
X49900000Y66200000D01*
X43364000Y67236000D02*
X45164000Y67236000D01*
X42100000Y68500000D02*
X43364000Y67236000D01*
X49900000Y66200000D02*
X50400000Y65700000D01*
X50400000Y65700000D02*
X52200000Y65700000D01*
X52200000Y65700000D02*
X56100000Y61800000D01*
X47600000Y66700000D02*
X48100000Y66200000D01*
X56100000Y43246000D02*
X55700000Y42846000D01*
X56100000Y61800000D02*
X56100000Y43246000D01*
%TO.N,/GPIO27*%
X55600000Y44700000D02*
X55313751Y44413751D01*
X47392894Y66200000D02*
X47892894Y65700000D01*
X50100000Y65200000D02*
X51992894Y65200000D01*
X40824000Y67236000D02*
X42656894Y67236000D01*
X55600000Y61592894D02*
X55600000Y44700000D01*
X49600000Y65700000D02*
X50100000Y65200000D01*
X47892894Y65700000D02*
X49600000Y65700000D01*
X42656894Y67236000D02*
X43156893Y66736000D01*
X39560000Y68500000D02*
X40824000Y67236000D01*
X44956894Y66736000D02*
X45492894Y66200000D01*
X51992894Y65200000D02*
X55600000Y61592894D01*
X45492894Y66200000D02*
X47392894Y66200000D01*
X43156893Y66736000D02*
X44956894Y66736000D01*
%TO.N,/GPIO28*%
X45285788Y65700000D02*
X45700000Y65700000D01*
X42792893Y66392893D02*
X42949786Y66236000D01*
X41800000Y66736000D02*
X42449787Y66736000D01*
X55100000Y49800000D02*
X54800000Y49500000D01*
X55100000Y58600000D02*
X55100000Y49800000D01*
X51785788Y64700000D02*
X52742894Y63742894D01*
X42949786Y66236000D02*
X44500000Y66236000D01*
X47685788Y65200000D02*
X49300000Y65200000D01*
X44749788Y66236000D02*
X45285788Y65700000D01*
X37020000Y68500000D02*
X38284000Y67236000D01*
X50200000Y64700000D02*
X51785788Y64700000D01*
X47107107Y65700000D02*
X47185788Y65700000D01*
X38284000Y67236000D02*
X39700000Y67236000D01*
X47589341Y65296447D02*
X47685788Y65200000D01*
X44500000Y66236000D02*
X44749788Y66236000D01*
X42449787Y66736000D02*
X42792893Y66392893D01*
X49800000Y64700000D02*
X50200000Y64700000D01*
X40616894Y66736000D02*
X41800000Y66736000D01*
X40116894Y67236000D02*
X40326447Y67026447D01*
X45700000Y65700000D02*
X47107107Y65700000D01*
X47185788Y65700000D02*
X47589341Y65296447D01*
X52742894Y63742894D02*
X55100000Y61385788D01*
X39700000Y67236000D02*
X40116894Y67236000D01*
X40326447Y67026447D02*
X40616894Y66736000D01*
X55100000Y61385788D02*
X55100000Y58600000D01*
X49300000Y65200000D02*
X49800000Y64700000D01*
%TO.N,/ADC_VREF*%
X54100000Y52400000D02*
X53800000Y52100000D01*
X51000000Y63420990D02*
X54100000Y60320990D01*
X54100000Y60320990D02*
X54100000Y59700000D01*
X54100000Y59700000D02*
X54100000Y52400000D01*
%TO.N,/3V3_EN*%
X50900000Y62400000D02*
X53300000Y60000000D01*
X49900000Y63400000D02*
X50900000Y62400000D01*
X53300000Y60000000D02*
X53300000Y57100000D01*
D20*
%TO.N,+5V_EXT*%
X19800000Y9400000D02*
X19000000Y8600000D01*
X29850000Y9400000D02*
X34000000Y5250000D01*
X34000000Y5250000D02*
X34750000Y4500000D01*
X19000000Y8600000D02*
X19600000Y8600000D01*
X20500000Y9400000D02*
X29850000Y9400000D01*
X19600000Y8600000D02*
X20125000Y9125000D01*
X19600000Y8600000D02*
X20400000Y9400000D01*
X19800000Y9400000D02*
X20700000Y9400000D01*
D25*
%TO.N,Net-(CON_REL1-Pad1)*%
X85200000Y54875000D02*
X94500000Y54875000D01*
X94500000Y54875000D02*
X95500000Y55875000D01*
%TO.N,Net-(CON_REL1-Pad2)*%
X71200000Y60875000D02*
X95500000Y60875000D01*
%TO.N,Net-(CON_REL1-Pad3)*%
X94500000Y66875000D02*
X95500000Y65875000D01*
X85200000Y66875000D02*
X94500000Y66875000D01*
%TO.N,Net-(CON_REL2-Pad1)*%
X94500000Y37625000D02*
X95500000Y38625000D01*
X85200000Y37625000D02*
X94500000Y37625000D01*
%TO.N,Net-(CON_REL2-Pad2)*%
X71200000Y43625000D02*
X95500000Y43625000D01*
%TO.N,Net-(CON_REL2-Pad3)*%
X85200000Y49625000D02*
X94500000Y49625000D01*
X94500000Y49625000D02*
X95500000Y48625000D01*
%TO.N,Net-(CON_REL3-Pad1)*%
X85200000Y20375000D02*
X94500000Y20375000D01*
X94500000Y20375000D02*
X95500000Y21375000D01*
%TO.N,Net-(CON_REL3-Pad2)*%
X71200000Y26375000D02*
X95500000Y26375000D01*
%TO.N,Net-(CON_REL3-Pad3)*%
X85200000Y32375000D02*
X94500000Y32375000D01*
X94500000Y32375000D02*
X95500000Y31375000D01*
%TO.N,Net-(CON_REL4-Pad1)*%
X85200000Y3125000D02*
X94500000Y3125000D01*
X94500000Y3125000D02*
X95500000Y4125000D01*
%TO.N,Net-(CON_REL4-Pad2)*%
X71200000Y9125000D02*
X95500000Y9125000D01*
%TO.N,Net-(CON_REL4-Pad3)*%
X94500000Y15125000D02*
X95500000Y14125000D01*
X85200000Y15125000D02*
X94500000Y15125000D01*
D26*
%TO.N,Net-(D3-A)*%
X4500000Y57500000D02*
X19825000Y57500000D01*
X19825000Y57500000D02*
X21862500Y59537500D01*
%TO.N,Net-(D4-A)*%
X4500000Y42500000D02*
X21750000Y42500000D01*
%TO.N,Net-(D5-A)*%
X11750000Y27500000D02*
X13250000Y29000000D01*
X4500000Y27500000D02*
X11750000Y27500000D01*
X13250000Y29000000D02*
X21800000Y29000000D01*
%TO.N,Net-(D6-A)*%
X23100000Y20300000D02*
X19800000Y20300000D01*
X19800000Y20300000D02*
X12000000Y12500000D01*
X12000000Y12500000D02*
X4500000Y12500000D01*
D22*
%TO.N,/GPIO10\u005CREL1*%
X43500000Y34130000D02*
X41110000Y31740000D01*
X43800000Y61000000D02*
X43800000Y44000000D01*
X43500000Y43700000D02*
X43500000Y34130000D01*
X43800000Y44000000D02*
X43500000Y43700000D01*
%TO.N,/GPIO11\u005CREL2*%
X44000000Y43492894D02*
X44000000Y32090000D01*
X44000000Y32090000D02*
X41110000Y29200000D01*
X44600000Y44092894D02*
X44000000Y43492894D01*
X44600000Y45779000D02*
X44600000Y44092894D01*
%TO.N,Net-(PWR_LED1-A)*%
X38700000Y16471000D02*
X38371000Y16800000D01*
X45300000Y38400000D02*
X45300000Y36896000D01*
X38371000Y20671000D02*
X38371000Y16800000D01*
X40544000Y22844000D02*
X38371000Y20671000D01*
X38700000Y15300000D02*
X38700000Y16471000D01*
X42374000Y23474000D02*
X41744000Y22844000D01*
X45300000Y36896000D02*
X45004000Y36600000D01*
X42374000Y27074000D02*
X42374000Y23474000D01*
X45004000Y36600000D02*
X45004000Y29704000D01*
X41744000Y22844000D02*
X40544000Y22844000D01*
X45004000Y29704000D02*
X42374000Y27074000D01*
%TD*%
%TA.AperFunction,Conductor*%
%TO.N,GND*%
G36*
X66073126Y49850815D02*
G01*
X66118881Y49798011D01*
X66128825Y49728853D01*
X66099800Y49665297D01*
X66093768Y49658819D01*
X64179309Y47744362D01*
X64159454Y47728237D01*
X64150045Y47722090D01*
X64150041Y47722086D01*
X64130212Y47696611D01*
X64120066Y47685119D01*
X64119899Y47684953D01*
X64119884Y47684935D01*
X64107583Y47667708D01*
X64104527Y47663610D01*
X64071843Y47621616D01*
X64068035Y47614581D01*
X64064524Y47607397D01*
X64049334Y47556377D01*
X64047771Y47551498D01*
X64030499Y47501190D01*
X64029185Y47493314D01*
X64028194Y47485366D01*
X64030394Y47432207D01*
X64030500Y47427082D01*
X64030500Y24449069D01*
X64022608Y24405537D01*
X63803424Y23820937D01*
X63803424Y23820936D01*
X63801083Y23807421D01*
X63794845Y23784616D01*
X63771852Y23723989D01*
X63771850Y23723980D01*
X63752693Y23566202D01*
X63752693Y23566201D01*
X63771850Y23408420D01*
X63798642Y23337777D01*
X63821287Y23278067D01*
X63828214Y23259804D01*
X63884802Y23177823D01*
X63918502Y23129000D01*
X63918504Y23128998D01*
X63918506Y23128996D01*
X64037469Y23023603D01*
X64037471Y23023602D01*
X64178207Y22949738D01*
X64255368Y22930720D01*
X64332528Y22911701D01*
X64332529Y22911701D01*
X64491472Y22911701D01*
X64568632Y22930720D01*
X64645793Y22949738D01*
X64675874Y22965527D01*
X64744382Y22979252D01*
X64809435Y22953760D01*
X64850380Y22897144D01*
X64857500Y22855730D01*
X64857500Y22021106D01*
X64837815Y21954067D01*
X64785011Y21908312D01*
X64784819Y21908224D01*
X64349808Y21710459D01*
X64349792Y21710450D01*
X64341969Y21704936D01*
X64328162Y21696497D01*
X64225477Y21642604D01*
X64225468Y21642598D01*
X64106506Y21537206D01*
X64106500Y21537199D01*
X64016214Y21406398D01*
X63959850Y21257782D01*
X63940693Y21100001D01*
X63940693Y21100000D01*
X63959850Y20942219D01*
X63984699Y20876699D01*
X64011387Y20806329D01*
X64016214Y20793603D01*
X64076112Y20706827D01*
X64106502Y20662799D01*
X64106504Y20662797D01*
X64106506Y20662795D01*
X64225469Y20557402D01*
X64225471Y20557401D01*
X64366207Y20483537D01*
X64399050Y20475442D01*
X64520528Y20445500D01*
X64520529Y20445500D01*
X64679472Y20445500D01*
X64748215Y20462444D01*
X64833793Y20483537D01*
X64974529Y20557401D01*
X65089274Y20659058D01*
X65152505Y20688778D01*
X65221769Y20679595D01*
X65253724Y20659059D01*
X65368471Y20557401D01*
X65509207Y20483537D01*
X65542050Y20475442D01*
X65663528Y20445500D01*
X65663529Y20445500D01*
X65822472Y20445500D01*
X65891215Y20462444D01*
X65976793Y20483537D01*
X66117529Y20557401D01*
X66236498Y20662799D01*
X66326787Y20793605D01*
X66383149Y20942218D01*
X66402307Y21100000D01*
X66383149Y21257782D01*
X66383148Y21257785D01*
X66383147Y21257790D01*
X66359940Y21318979D01*
X66353511Y21342914D01*
X66351575Y21354734D01*
X66351574Y21354735D01*
X66351574Y21354740D01*
X66243788Y21642223D01*
X66132393Y21939333D01*
X66124500Y21982865D01*
X66124500Y22364195D01*
X66144185Y22431234D01*
X66196989Y22476989D01*
X66266147Y22486933D01*
X66329703Y22457908D01*
X66336181Y22451876D01*
X67760622Y21027435D01*
X67773257Y21012642D01*
X67781329Y21001532D01*
X67781331Y21001530D01*
X67831092Y20956725D01*
X67835801Y20952256D01*
X67849994Y20938063D01*
X67865597Y20925428D01*
X67870523Y20921221D01*
X67920287Y20876413D01*
X67932170Y20869553D01*
X67948211Y20858529D01*
X67958871Y20849896D01*
X68018526Y20819500D01*
X68024231Y20816402D01*
X68082209Y20782928D01*
X68082215Y20782925D01*
X68095267Y20778684D01*
X68113242Y20771239D01*
X68125475Y20765006D01*
X68144199Y20759989D01*
X68190139Y20747680D01*
X68196352Y20745841D01*
X68260044Y20725145D01*
X68273702Y20723710D01*
X68292822Y20720166D01*
X68306085Y20716612D01*
X68372942Y20713109D01*
X68379405Y20712600D01*
X68394244Y20711040D01*
X68399379Y20710500D01*
X68399380Y20710500D01*
X68419461Y20710500D01*
X68425950Y20710331D01*
X68492810Y20706826D01*
X68506366Y20708974D01*
X68525764Y20710500D01*
X69876000Y20710500D01*
X69943039Y20690815D01*
X69988794Y20638011D01*
X70000000Y20586500D01*
X70000000Y16281937D01*
X69980315Y16214898D01*
X69963681Y16194256D01*
X68522672Y14753248D01*
X68461349Y14719763D01*
X68391657Y14724747D01*
X68335724Y14766619D01*
X68311307Y14832083D01*
X68318343Y14882991D01*
X68356212Y14988000D01*
X68444768Y15350476D01*
X68494293Y15720312D01*
X68504226Y16093317D01*
X68474455Y16465265D01*
X68405316Y16831941D01*
X68401509Y16844567D01*
X68297595Y17189192D01*
X68154604Y17528005D01*
X68152510Y17532967D01*
X68152508Y17532971D01*
X67971708Y17859371D01*
X67971705Y17859375D01*
X67937839Y17907588D01*
X67757231Y18164713D01*
X67511516Y18445525D01*
X67237345Y18698628D01*
X67237343Y18698630D01*
X66937833Y18921148D01*
X66937830Y18921150D01*
X66937823Y18921155D01*
X66616345Y19110584D01*
X66276553Y19264769D01*
X66276549Y19264771D01*
X66276543Y19264773D01*
X65922302Y19381962D01*
X65922289Y19381965D01*
X65557595Y19460838D01*
X65557588Y19460839D01*
X65186569Y19500500D01*
X64906787Y19500500D01*
X64906776Y19500500D01*
X64627405Y19485611D01*
X64627379Y19485608D01*
X64259007Y19426257D01*
X64259004Y19426256D01*
X63899013Y19328083D01*
X63701911Y19251014D01*
X63551498Y19192201D01*
X63551496Y19192201D01*
X63551496Y19192200D01*
X63220398Y19020153D01*
X62909458Y18813884D01*
X62909449Y18813878D01*
X62622211Y18575737D01*
X62622196Y18575723D01*
X62361888Y18308393D01*
X62131469Y18014905D01*
X62131462Y18014895D01*
X61933548Y17698584D01*
X61933546Y17698579D01*
X61770367Y17363006D01*
X61643786Y17011996D01*
X61555232Y16649528D01*
X61555231Y16649520D01*
X61505708Y16279695D01*
X61505706Y16279679D01*
X61497073Y15955455D01*
X61495774Y15906683D01*
X61502772Y15819249D01*
X61525545Y15534730D01*
X61594685Y15168053D01*
X61702404Y14810809D01*
X61847491Y14467030D01*
X62028291Y14140630D01*
X62028294Y14140626D01*
X62242769Y13835287D01*
X62310396Y13758000D01*
X62479539Y13564697D01*
X62488484Y13554475D01*
X62655019Y13400737D01*
X62762656Y13301371D01*
X63028991Y13103500D01*
X63062177Y13078845D01*
X63383655Y12889416D01*
X63723447Y12735231D01*
X64077702Y12618037D01*
X64442408Y12539162D01*
X64813431Y12499500D01*
X65093209Y12499500D01*
X65093213Y12499500D01*
X65274219Y12509148D01*
X65372594Y12514390D01*
X65372598Y12514391D01*
X65372608Y12514391D01*
X65740995Y12573744D01*
X66100986Y12671917D01*
X66108129Y12674711D01*
X66177732Y12680793D01*
X66239575Y12648279D01*
X66274023Y12587492D01*
X66270139Y12517730D01*
X66240969Y12471545D01*
X65927433Y12158009D01*
X65912644Y12145377D01*
X65901531Y12137303D01*
X65901527Y12137299D01*
X65856730Y12087547D01*
X65852270Y12082847D01*
X65838073Y12068648D01*
X65838055Y12068629D01*
X65825422Y12053029D01*
X65821212Y12048100D01*
X65776416Y11998348D01*
X65776410Y11998340D01*
X65769547Y11986453D01*
X65758533Y11970427D01*
X65749891Y11959755D01*
X65719497Y11900104D01*
X65716402Y11894403D01*
X65682925Y11836417D01*
X65682924Y11836415D01*
X65678681Y11823356D01*
X65671241Y11805394D01*
X65665006Y11793155D01*
X65650495Y11738999D01*
X65647677Y11728484D01*
X65645833Y11722261D01*
X65625146Y11658592D01*
X65625144Y11658584D01*
X65623709Y11644934D01*
X65620166Y11625816D01*
X65616610Y11612546D01*
X65613107Y11545687D01*
X65612598Y11539220D01*
X65610500Y11519257D01*
X65610500Y11499177D01*
X65610330Y11492688D01*
X65606826Y11425821D01*
X65608973Y11412267D01*
X65610500Y11392867D01*
X65610500Y6579765D01*
X65608972Y6560366D01*
X65606826Y6546810D01*
X65608254Y6519568D01*
X65610330Y6479945D01*
X65610500Y6473456D01*
X65610500Y6453378D01*
X65612598Y6433414D01*
X65613107Y6426945D01*
X65616610Y6360088D01*
X65616611Y6360085D01*
X65620166Y6346816D01*
X65623709Y6327702D01*
X65624713Y6318152D01*
X65625145Y6314041D01*
X65645829Y6250384D01*
X65647672Y6244161D01*
X65665004Y6179481D01*
X65665004Y6179480D01*
X65671236Y6167249D01*
X65678681Y6149276D01*
X65682925Y6136215D01*
X65716410Y6078218D01*
X65719492Y6072540D01*
X65749893Y6012875D01*
X65758529Y6002211D01*
X65769549Y5986176D01*
X65776412Y5974288D01*
X65776415Y5974285D01*
X65821223Y5924520D01*
X65825429Y5919595D01*
X65838057Y5904001D01*
X65838071Y5903985D01*
X65852254Y5889802D01*
X65856722Y5885094D01*
X65901528Y5835333D01*
X65901530Y5835331D01*
X65912640Y5827260D01*
X65927435Y5814623D01*
X66090618Y5651440D01*
X66090655Y5651401D01*
X69189622Y2552435D01*
X69202257Y2537642D01*
X69210329Y2526532D01*
X69210331Y2526530D01*
X69252787Y2488302D01*
X69260092Y2481725D01*
X69264801Y2477256D01*
X69278994Y2463063D01*
X69294597Y2450428D01*
X69299519Y2446225D01*
X69309120Y2437580D01*
X69349287Y2401413D01*
X69361170Y2394553D01*
X69377211Y2383529D01*
X69387871Y2374896D01*
X69447526Y2344500D01*
X69453231Y2341402D01*
X69511209Y2307928D01*
X69511215Y2307925D01*
X69524267Y2303684D01*
X69542242Y2296239D01*
X69554475Y2290006D01*
X69578618Y2283537D01*
X69619139Y2272680D01*
X69625352Y2270841D01*
X69689044Y2250145D01*
X69702702Y2248710D01*
X69721822Y2245166D01*
X69735085Y2241612D01*
X69801942Y2238109D01*
X69808405Y2237600D01*
X69823244Y2236040D01*
X69828379Y2235500D01*
X69828380Y2235500D01*
X69848461Y2235500D01*
X69854950Y2235330D01*
X69858771Y2235130D01*
X69882489Y2233887D01*
X69948406Y2210722D01*
X69991335Y2155596D01*
X70000000Y2110057D01*
X70000000Y378500D01*
X69980315Y311461D01*
X69927511Y265706D01*
X69876000Y254500D01*
X66188866Y254500D01*
X66121827Y274185D01*
X66076072Y326989D01*
X66066128Y396147D01*
X66085764Y447391D01*
X66102685Y472715D01*
X66128734Y511699D01*
X66143500Y585933D01*
X66143499Y2414066D01*
X66128734Y2488301D01*
X66090493Y2545532D01*
X66072484Y2572485D01*
X66014310Y2611355D01*
X65988301Y2628734D01*
X65988299Y2628735D01*
X65988296Y2628736D01*
X65914069Y2643500D01*
X64085936Y2643500D01*
X64011698Y2628734D01*
X63927515Y2572485D01*
X63871266Y2488301D01*
X63871264Y2488297D01*
X63856500Y2414072D01*
X63856500Y585937D01*
X63871266Y511699D01*
X63914236Y447391D01*
X63935114Y380714D01*
X63916630Y313334D01*
X63864651Y266643D01*
X63811134Y254500D01*
X35476812Y254500D01*
X35409773Y274185D01*
X35364018Y326989D01*
X35354074Y396147D01*
X35360630Y421833D01*
X35390493Y501901D01*
X35396999Y562419D01*
X35397000Y562420D01*
X35397000Y865000D01*
X32603000Y865000D01*
X32603000Y562419D01*
X32609506Y501901D01*
X32639370Y421833D01*
X32644354Y352142D01*
X32610869Y290819D01*
X32549546Y257334D01*
X32523188Y254500D01*
X4898481Y254500D01*
X4831442Y274185D01*
X4785687Y326989D01*
X4775743Y396147D01*
X4804768Y459703D01*
X4863546Y497477D01*
X4881596Y501345D01*
X4914388Y505853D01*
X4914394Y505854D01*
X5182068Y580854D01*
X5418447Y683528D01*
X5418447Y683529D01*
X4500000Y1601975D01*
X3581551Y683529D01*
X3581551Y683528D01*
X3817931Y580854D01*
X4085605Y505854D01*
X4085611Y505853D01*
X4118404Y501345D01*
X4182138Y472715D01*
X4220277Y414173D01*
X4220711Y344305D01*
X4183302Y285293D01*
X4119928Y255874D01*
X4101519Y254500D01*
X378500Y254500D01*
X311461Y274185D01*
X265706Y326989D01*
X254500Y378500D01*
X254500Y2500000D01*
X2463252Y2500000D01*
X2482221Y2222663D01*
X2482222Y2222661D01*
X2538776Y1950504D01*
X2538781Y1950487D01*
X2631871Y1688559D01*
X2686023Y1584050D01*
X2686023Y1584049D01*
X3601974Y2499999D01*
X3601974Y2500001D01*
X3560837Y2541138D01*
X3846127Y2541138D01*
X3856439Y2377234D01*
X3907188Y2221044D01*
X3995186Y2082381D01*
X4114903Y1969960D01*
X4258817Y1890842D01*
X4417886Y1850000D01*
X4540894Y1850000D01*
X4662933Y1865417D01*
X4815629Y1925874D01*
X4948492Y2022405D01*
X5053175Y2148945D01*
X5123100Y2297543D01*
X5153873Y2458862D01*
X5151285Y2499999D01*
X5398025Y2499999D01*
X6313975Y1584049D01*
X6313975Y1584050D01*
X6368130Y1688564D01*
X6368133Y1688570D01*
X6377526Y1715000D01*
X19557128Y1715000D01*
X19595568Y1579895D01*
X19595571Y1579889D01*
X19691232Y1387777D01*
X19820558Y1216521D01*
X19820560Y1216518D01*
X19979158Y1071937D01*
X20045000Y1031171D01*
X20045000Y1715000D01*
X19557128Y1715000D01*
X6377526Y1715000D01*
X6461218Y1950487D01*
X6461223Y1950504D01*
X6475356Y2018519D01*
X20280000Y2018519D01*
X20294835Y1924852D01*
X20352359Y1811955D01*
X20441955Y1722359D01*
X20554852Y1664835D01*
X20680000Y1645014D01*
X20805148Y1664835D01*
X20903602Y1715000D01*
X21315000Y1715000D01*
X21315000Y1031172D01*
X21380841Y1071937D01*
X21539439Y1216518D01*
X21539441Y1216521D01*
X21668767Y1387777D01*
X21764428Y1579889D01*
X21764431Y1579895D01*
X21802871Y1715000D01*
X28197128Y1715000D01*
X28235568Y1579895D01*
X28235571Y1579889D01*
X28331232Y1387777D01*
X28460558Y1216521D01*
X28460560Y1216518D01*
X28619158Y1071937D01*
X28685000Y1031171D01*
X28685000Y1715000D01*
X28197128Y1715000D01*
X21802871Y1715000D01*
X21315000Y1715000D01*
X20903602Y1715000D01*
X20918045Y1722359D01*
X21007641Y1811955D01*
X21065165Y1924852D01*
X21080000Y2018519D01*
X28920000Y2018519D01*
X28934835Y1924852D01*
X28992359Y1811955D01*
X29081955Y1722359D01*
X29194852Y1664835D01*
X29320000Y1645014D01*
X29445148Y1664835D01*
X29543602Y1715000D01*
X29955000Y1715000D01*
X29955000Y1031172D01*
X30020841Y1071937D01*
X30179439Y1216518D01*
X30179441Y1216521D01*
X30308767Y1387777D01*
X30328851Y1428111D01*
X33500000Y1428111D01*
X33540507Y1290156D01*
X33618239Y1169202D01*
X33726900Y1075048D01*
X33857685Y1015320D01*
X33964237Y1000000D01*
X34035763Y1000000D01*
X34142315Y1015320D01*
X34273100Y1075048D01*
X34381761Y1169202D01*
X34459493Y1290156D01*
X34500000Y1428111D01*
X34500000Y1571889D01*
X34459493Y1709844D01*
X34381761Y1830798D01*
X34273100Y1924952D01*
X34142315Y1984680D01*
X34035763Y2000000D01*
X33964237Y2000000D01*
X33857685Y1984680D01*
X33726900Y1924952D01*
X33618239Y1830798D01*
X33540507Y1709844D01*
X33500000Y1571889D01*
X33500000Y1428111D01*
X30328851Y1428111D01*
X30404428Y1579889D01*
X30404431Y1579895D01*
X30442871Y1715000D01*
X29955000Y1715000D01*
X29543602Y1715000D01*
X29558045Y1722359D01*
X29647641Y1811955D01*
X29705165Y1924852D01*
X29720000Y2018519D01*
X29720000Y2135000D01*
X32603000Y2135000D01*
X33365000Y2135000D01*
X33365000Y2897000D01*
X34635000Y2897000D01*
X34635000Y2135000D01*
X35397000Y2135000D01*
X35397000Y2437580D01*
X35396999Y2437582D01*
X35390493Y2498098D01*
X35339446Y2634962D01*
X35251903Y2751904D01*
X35134961Y2839446D01*
X35134961Y2839447D01*
X34998097Y2890494D01*
X34937581Y2897000D01*
X34635000Y2897000D01*
X33365000Y2897000D01*
X33062418Y2897000D01*
X33001902Y2890494D01*
X32865038Y2839447D01*
X32865038Y2839446D01*
X32748096Y2751904D01*
X32660554Y2634962D01*
X32660553Y2634962D01*
X32609506Y2498098D01*
X32603000Y2437582D01*
X32603000Y2135000D01*
X29720000Y2135000D01*
X29720000Y2681481D01*
X29705165Y2775148D01*
X29647641Y2888045D01*
X29558045Y2977641D01*
X29445148Y3035165D01*
X29320000Y3054986D01*
X29194852Y3035165D01*
X29081955Y2977641D01*
X28992359Y2888045D01*
X28934835Y2775148D01*
X28920000Y2681481D01*
X28920000Y2018519D01*
X21080000Y2018519D01*
X21080000Y2681481D01*
X21065165Y2775148D01*
X21007641Y2888045D01*
X20918045Y2977641D01*
X20805148Y3035165D01*
X20680000Y3054986D01*
X20554852Y3035165D01*
X20441955Y2977641D01*
X20352359Y2888045D01*
X20294835Y2775148D01*
X20280000Y2681481D01*
X20280000Y2018519D01*
X6475356Y2018519D01*
X6517777Y2222661D01*
X6517778Y2222663D01*
X6536747Y2500000D01*
X6517778Y2777338D01*
X6517777Y2777340D01*
X6474625Y2985001D01*
X19557128Y2985001D01*
X19557129Y2985000D01*
X20045000Y2985000D01*
X20045000Y3668830D01*
X20044999Y3668831D01*
X21315000Y3668831D01*
X21315000Y2985000D01*
X21802871Y2985000D01*
X21802871Y2985001D01*
X28197128Y2985001D01*
X28197129Y2985000D01*
X28685000Y2985000D01*
X28685000Y3668830D01*
X28684999Y3668831D01*
X29955000Y3668831D01*
X29955000Y2985000D01*
X30442871Y2985000D01*
X30442871Y2985001D01*
X30404431Y3120106D01*
X30404428Y3120112D01*
X30308767Y3312224D01*
X30179441Y3483480D01*
X30179439Y3483483D01*
X30020841Y3628063D01*
X30020839Y3628065D01*
X29955000Y3668831D01*
X28684999Y3668831D01*
X28619160Y3628065D01*
X28619158Y3628063D01*
X28460560Y3483483D01*
X28460558Y3483480D01*
X28331232Y3312224D01*
X28235571Y3120112D01*
X28235568Y3120106D01*
X28197128Y2985001D01*
X21802871Y2985001D01*
X21764431Y3120106D01*
X21764428Y3120112D01*
X21668767Y3312224D01*
X21539441Y3483480D01*
X21539439Y3483483D01*
X21380841Y3628063D01*
X21380839Y3628065D01*
X21315000Y3668831D01*
X20044999Y3668831D01*
X19979160Y3628065D01*
X19979158Y3628063D01*
X19820560Y3483483D01*
X19820558Y3483480D01*
X19691232Y3312224D01*
X19595571Y3120112D01*
X19595568Y3120106D01*
X19557128Y2985001D01*
X6474625Y2985001D01*
X6461223Y3049497D01*
X6461218Y3049514D01*
X6368128Y3311442D01*
X6313975Y3415952D01*
X6313975Y3415953D01*
X5398025Y2500001D01*
X5398025Y2499999D01*
X5151285Y2499999D01*
X5143561Y2622766D01*
X5092812Y2778956D01*
X5004814Y2917619D01*
X4885097Y3030040D01*
X4741183Y3109158D01*
X4582114Y3150000D01*
X4459106Y3150000D01*
X4337067Y3134583D01*
X4184371Y3074126D01*
X4051508Y2977595D01*
X3946825Y2851055D01*
X3876900Y2702457D01*
X3846127Y2541138D01*
X3560837Y2541138D01*
X2686023Y3415953D01*
X2686022Y3415952D01*
X2631872Y3311446D01*
X2631870Y3311439D01*
X2538781Y3049514D01*
X2538776Y3049497D01*
X2482222Y2777340D01*
X2482221Y2777338D01*
X2463252Y2500000D01*
X254500Y2500000D01*
X254500Y4316473D01*
X3581551Y4316473D01*
X4499999Y3398026D01*
X5418447Y4316473D01*
X5182066Y4419148D01*
X4914394Y4494147D01*
X4914388Y4494148D01*
X4638994Y4532000D01*
X4361006Y4532000D01*
X4085611Y4494148D01*
X4085605Y4494147D01*
X3817933Y4419148D01*
X3581551Y4316473D01*
X254500Y4316473D01*
X254500Y4876000D01*
X274185Y4943039D01*
X326989Y4988794D01*
X378500Y5000000D01*
X17000000Y5000000D01*
X17930000Y5930000D01*
X19576509Y5930000D01*
X19587074Y5819357D01*
X19587075Y5819353D01*
X19646688Y5616328D01*
X19743651Y5428245D01*
X19874458Y5261911D01*
X19874460Y5261909D01*
X20034372Y5123345D01*
X20079999Y5097003D01*
X20080000Y5097003D01*
X20080000Y5930000D01*
X19576509Y5930000D01*
X17930000Y5930000D01*
X18048519Y6048519D01*
X20280000Y6048519D01*
X20294835Y5954852D01*
X20352359Y5841955D01*
X20441955Y5752359D01*
X20554852Y5694835D01*
X20680000Y5675014D01*
X20805148Y5694835D01*
X20918045Y5752359D01*
X21007641Y5841955D01*
X21065165Y5954852D01*
X21080000Y6048519D01*
X21080000Y7011481D01*
X21065165Y7105148D01*
X21007641Y7218045D01*
X20918045Y7307641D01*
X20805148Y7365165D01*
X20680000Y7384986D01*
X20554852Y7365165D01*
X20441955Y7307641D01*
X20352359Y7218045D01*
X20294835Y7105148D01*
X20280000Y7011481D01*
X20280000Y6048519D01*
X18048519Y6048519D01*
X19390166Y7390167D01*
X19451485Y7423649D01*
X19521177Y7418665D01*
X19577110Y7376793D01*
X19601527Y7311329D01*
X19599602Y7279016D01*
X19572000Y7135802D01*
X19572000Y7130000D01*
X20080000Y7130000D01*
X20080000Y7780045D01*
X20099685Y7847084D01*
X20121026Y7872193D01*
X20136925Y7886509D01*
X20175502Y7921245D01*
X20180372Y7925404D01*
X20196006Y7938063D01*
X20210223Y7952282D01*
X20214894Y7956714D01*
X20221876Y7963000D01*
X21280000Y7963000D01*
X21280000Y5097042D01*
X21408885Y5188820D01*
X21408888Y5188823D01*
X21554906Y5341963D01*
X21554911Y5341968D01*
X21663537Y5510996D01*
X21716340Y5556752D01*
X21785499Y5566696D01*
X21832281Y5549906D01*
X21859474Y5533370D01*
X21887010Y5516625D01*
X22033786Y5475500D01*
X22033787Y5475500D01*
X22147928Y5475500D01*
X22176197Y5479386D01*
X22261009Y5491043D01*
X22400818Y5551770D01*
X22519058Y5647966D01*
X22606961Y5772496D01*
X22643995Y5876699D01*
X22658005Y5916119D01*
X22658005Y5916121D01*
X22658006Y5916123D01*
X22663183Y5991804D01*
X27331592Y5991804D01*
X27362604Y5842564D01*
X27432731Y5707225D01*
X27536772Y5595824D01*
X27667010Y5516625D01*
X27813786Y5475500D01*
X27813787Y5475500D01*
X27927928Y5475500D01*
X27956197Y5479386D01*
X28041009Y5491043D01*
X28180818Y5551770D01*
X28180818Y5551771D01*
X28188070Y5554920D01*
X28257401Y5563574D01*
X28320405Y5533370D01*
X28347687Y5498006D01*
X28383651Y5428245D01*
X28514458Y5261911D01*
X28514460Y5261909D01*
X28674372Y5123345D01*
X28719999Y5097003D01*
X28720000Y5097003D01*
X28720000Y6048519D01*
X28920000Y6048519D01*
X28934835Y5954852D01*
X28992359Y5841955D01*
X29081955Y5752359D01*
X29194852Y5694835D01*
X29320000Y5675014D01*
X29445148Y5694835D01*
X29558045Y5752359D01*
X29647641Y5841955D01*
X29692502Y5930000D01*
X29920000Y5930000D01*
X29920000Y5097042D01*
X30048885Y5188820D01*
X30048888Y5188823D01*
X30194906Y5341963D01*
X30194907Y5341964D01*
X30309309Y5519978D01*
X30387950Y5716411D01*
X30387954Y5716424D01*
X30428000Y5924199D01*
X30428000Y5930000D01*
X29920000Y5930000D01*
X29692502Y5930000D01*
X29705165Y5954852D01*
X29720000Y6048519D01*
X29720000Y7011481D01*
X29705165Y7105148D01*
X29647641Y7218045D01*
X29558045Y7307641D01*
X29445148Y7365165D01*
X29320000Y7384986D01*
X29194852Y7365165D01*
X29081955Y7307641D01*
X28992359Y7218045D01*
X28934835Y7105148D01*
X28920000Y7011481D01*
X28920000Y6048519D01*
X28720000Y6048519D01*
X28720000Y7962960D01*
X28719999Y7962960D01*
X28591118Y7871185D01*
X28591112Y7871179D01*
X28445093Y7718038D01*
X28445092Y7718037D01*
X28330690Y7540023D01*
X28252049Y7343590D01*
X28252045Y7343577D01*
X28212000Y7135802D01*
X28212000Y6679153D01*
X28192315Y6612114D01*
X28139511Y6566359D01*
X28070353Y6556415D01*
X28054546Y6559751D01*
X27966214Y6584500D01*
X27852073Y6584500D01*
X27852072Y6584500D01*
X27738993Y6568958D01*
X27738987Y6568956D01*
X27599182Y6508231D01*
X27599180Y6508229D01*
X27480945Y6412037D01*
X27480940Y6412032D01*
X27393038Y6287504D01*
X27341994Y6143882D01*
X27341994Y6143879D01*
X27335336Y6046533D01*
X27331592Y5991804D01*
X22663183Y5991804D01*
X22668408Y6068196D01*
X22637396Y6217436D01*
X22567269Y6352775D01*
X22463228Y6464176D01*
X22463227Y6464177D01*
X22332992Y6543374D01*
X22332991Y6543375D01*
X22332990Y6543375D01*
X22186214Y6584500D01*
X22072073Y6584500D01*
X22072072Y6584500D01*
X21958993Y6568958D01*
X21950827Y6566669D01*
X21950281Y6568616D01*
X21892068Y6561350D01*
X21829065Y6591555D01*
X21792392Y6651027D01*
X21788000Y6683738D01*
X21788000Y7082776D01*
X21772925Y7240644D01*
X21772924Y7240648D01*
X21713311Y7443673D01*
X21616348Y7631756D01*
X21485542Y7798089D01*
X21325624Y7936659D01*
X21280000Y7963000D01*
X20221876Y7963000D01*
X20264669Y8001530D01*
X20272742Y8012643D01*
X20285371Y8027430D01*
X20732124Y8474181D01*
X20793447Y8507666D01*
X20819805Y8510500D01*
X29430195Y8510500D01*
X29497234Y8490815D01*
X29517876Y8474181D01*
X29883681Y8108376D01*
X29917166Y8047053D01*
X29920000Y8020695D01*
X29920000Y7130000D01*
X30423490Y7130000D01*
X30412925Y7240644D01*
X30412924Y7240648D01*
X30409096Y7253687D01*
X30409096Y7323557D01*
X30446870Y7382335D01*
X30510426Y7411360D01*
X30579585Y7401416D01*
X30615754Y7376303D01*
X33338063Y4653994D01*
X34153994Y3838063D01*
X34262875Y3749893D01*
X34429475Y3665006D01*
X34610085Y3616612D01*
X34796810Y3606826D01*
X34930896Y3628063D01*
X34981484Y3636075D01*
X34981486Y3636076D01*
X34981488Y3636076D01*
X35156049Y3703084D01*
X35312864Y3804921D01*
X35445079Y3937136D01*
X35546916Y4093951D01*
X35613924Y4268512D01*
X35619199Y4301819D01*
X35649126Y4364952D01*
X35708437Y4401884D01*
X35778300Y4400888D01*
X35826555Y4372814D01*
X35856296Y4344886D01*
X35859096Y4342172D01*
X35878904Y4322363D01*
X35882184Y4319819D01*
X35891066Y4312234D01*
X35923494Y4281783D01*
X35941470Y4271901D01*
X35957716Y4261230D01*
X35973933Y4248651D01*
X36014756Y4230986D01*
X36025223Y4225857D01*
X36040168Y4217641D01*
X36064192Y4204433D01*
X36064194Y4204433D01*
X36064197Y4204431D01*
X36084066Y4199330D01*
X36102462Y4193032D01*
X36121292Y4184883D01*
X36165219Y4177927D01*
X36176650Y4175559D01*
X36219718Y4164500D01*
X36240226Y4164500D01*
X36259623Y4162974D01*
X36279877Y4159766D01*
X36279878Y4159765D01*
X36279878Y4159766D01*
X36279879Y4159765D01*
X36299397Y4161611D01*
X36324152Y4163950D01*
X36335821Y4164500D01*
X37585406Y4164500D01*
X37652445Y4144815D01*
X37673086Y4128182D01*
X38581699Y3219568D01*
X39470342Y2330925D01*
X39480267Y2318537D01*
X39480474Y2318708D01*
X39485444Y2312700D01*
X39485446Y2312698D01*
X39485447Y2312697D01*
X39509611Y2290006D01*
X39535281Y2265900D01*
X39538078Y2263189D01*
X39557906Y2243361D01*
X39561190Y2240814D01*
X39570081Y2233220D01*
X39602487Y2202789D01*
X39602490Y2202787D01*
X39602494Y2202783D01*
X39602497Y2202781D01*
X39602499Y2202780D01*
X39620462Y2192905D01*
X39636724Y2182224D01*
X39652933Y2169650D01*
X39693746Y2151989D01*
X39704227Y2146855D01*
X39743197Y2125431D01*
X39743201Y2125430D01*
X39763054Y2120333D01*
X39781469Y2114028D01*
X39800286Y2105885D01*
X39800289Y2105885D01*
X39800292Y2105883D01*
X39844219Y2098927D01*
X39855650Y2096559D01*
X39898718Y2085500D01*
X39919226Y2085500D01*
X39938623Y2083974D01*
X39958877Y2080766D01*
X39958878Y2080765D01*
X39958878Y2080766D01*
X39958879Y2080765D01*
X39978397Y2082611D01*
X40003152Y2084950D01*
X40014821Y2085500D01*
X42277518Y2085500D01*
X42307192Y2081898D01*
X42369661Y2066500D01*
X42528604Y2066500D01*
X42591071Y2081897D01*
X42682925Y2104537D01*
X42823661Y2178401D01*
X42942630Y2283799D01*
X43032919Y2414605D01*
X43089281Y2563218D01*
X43108439Y2721000D01*
X43104497Y2753462D01*
X43089281Y2878782D01*
X43082372Y2897000D01*
X43061311Y2952530D01*
X43055945Y3022191D01*
X43089092Y3083698D01*
X43150230Y3117519D01*
X43177254Y3120500D01*
X43985519Y3120500D01*
X44052558Y3100815D01*
X44098313Y3048011D01*
X44098540Y3047513D01*
X44109969Y3022191D01*
X44281327Y2642541D01*
X44284085Y2638611D01*
X44298526Y2611355D01*
X44308270Y2585661D01*
X44375476Y2488297D01*
X44398559Y2454856D01*
X44398561Y2454854D01*
X44398563Y2454852D01*
X44517526Y2349459D01*
X44517528Y2349458D01*
X44658264Y2275594D01*
X44702974Y2264574D01*
X44812585Y2237557D01*
X44812586Y2237557D01*
X44971529Y2237557D01*
X45060489Y2259484D01*
X45125850Y2275594D01*
X45266586Y2349458D01*
X45385555Y2454856D01*
X45475844Y2585662D01*
X45532206Y2734275D01*
X45551364Y2892057D01*
X45538257Y3000000D01*
X45532206Y3049839D01*
X45505557Y3120106D01*
X45475844Y3198452D01*
X45385555Y3329258D01*
X45385552Y3329261D01*
X45385550Y3329263D01*
X45301545Y3403685D01*
X45264418Y3462874D01*
X45265186Y3532740D01*
X45303604Y3591099D01*
X45367474Y3619424D01*
X45383772Y3620500D01*
X48791444Y3620500D01*
X48858483Y3600815D01*
X48879125Y3584181D01*
X49207070Y3256236D01*
X49232410Y3219568D01*
X49489270Y2650484D01*
X49489271Y2650482D01*
X49489272Y2650481D01*
X49489273Y2650479D01*
X49492028Y2646553D01*
X49506468Y2619298D01*
X49516212Y2593606D01*
X49580823Y2500001D01*
X49606502Y2462799D01*
X49606504Y2462797D01*
X49606506Y2462795D01*
X49725469Y2357402D01*
X49725471Y2357401D01*
X49866207Y2283537D01*
X49910256Y2272680D01*
X50020528Y2245500D01*
X50020529Y2245500D01*
X50179472Y2245500D01*
X50256857Y2264574D01*
X50333793Y2283537D01*
X50474529Y2357401D01*
X50593498Y2462799D01*
X50683787Y2593605D01*
X50719939Y2688932D01*
X50762116Y2744632D01*
X50827713Y2768689D01*
X50895903Y2753462D01*
X50923561Y2732639D01*
X51387622Y2268578D01*
X51403746Y2248723D01*
X51409826Y2239418D01*
X51420018Y2231485D01*
X51435132Y2219722D01*
X51446651Y2209549D01*
X51446780Y2209420D01*
X51463910Y2197189D01*
X51468018Y2194126D01*
X51507201Y2163628D01*
X51509775Y2161625D01*
X51509776Y2161625D01*
X51516768Y2157841D01*
X51523914Y2154347D01*
X51574661Y2139239D01*
X51579498Y2137689D01*
X51584126Y2136100D01*
X51629564Y2120500D01*
X51637377Y2119197D01*
X51645301Y2118209D01*
X51645304Y2118208D01*
X51645306Y2118209D01*
X51645307Y2118208D01*
X51698156Y2120394D01*
X51703281Y2120500D01*
X54177782Y2120500D01*
X54203227Y2117861D01*
X54207122Y2117045D01*
X54214102Y2115581D01*
X54245926Y2119548D01*
X54261264Y2120500D01*
X54261442Y2120500D01*
X54261445Y2120500D01*
X54282207Y2123966D01*
X54287224Y2124697D01*
X54339785Y2131248D01*
X54347393Y2133514D01*
X54354925Y2136100D01*
X54354929Y2136100D01*
X54401483Y2161295D01*
X54405968Y2163604D01*
X54453570Y2186874D01*
X54453572Y2186877D01*
X54453574Y2186877D01*
X54460006Y2191470D01*
X54466313Y2196379D01*
X54466318Y2196381D01*
X54467949Y2198154D01*
X54471951Y2200766D01*
X54474429Y2202694D01*
X54474589Y2202488D01*
X54519009Y2231485D01*
X54524076Y2233220D01*
X54955385Y2380916D01*
X54955399Y2380922D01*
X54955907Y2381095D01*
X54962328Y2382982D01*
X54963785Y2383535D01*
X54963795Y2383537D01*
X54963803Y2383542D01*
X54966126Y2384422D01*
X54968142Y2385345D01*
X54970728Y2386695D01*
X54970734Y2386697D01*
X54970739Y2386701D01*
X54972685Y2387716D01*
X54979860Y2391970D01*
X55104531Y2457401D01*
X55223500Y2562799D01*
X55313789Y2693605D01*
X55370151Y2842218D01*
X55389309Y3000000D01*
X55383479Y3048011D01*
X55370151Y3157782D01*
X55354727Y3198452D01*
X55313789Y3306395D01*
X55223500Y3437201D01*
X55223497Y3437204D01*
X55223495Y3437206D01*
X55104532Y3542599D01*
X54963793Y3616464D01*
X54809474Y3654500D01*
X54809473Y3654500D01*
X54650531Y3654500D01*
X54650530Y3654500D01*
X54496210Y3616464D01*
X54355471Y3542599D01*
X54236508Y3437206D01*
X54236505Y3437203D01*
X54146214Y3306394D01*
X54134381Y3275194D01*
X54121034Y3249521D01*
X54116928Y3243473D01*
X53995006Y2955198D01*
X53950762Y2901122D01*
X53884306Y2879550D01*
X53880800Y2879500D01*
X53320158Y2879500D01*
X53253119Y2899185D01*
X53207364Y2951989D01*
X53197420Y3021147D01*
X53204216Y3047472D01*
X53204232Y3047513D01*
X53240149Y3142218D01*
X53259307Y3300000D01*
X53255754Y3329258D01*
X53240149Y3457782D01*
X53226681Y3493294D01*
X53183787Y3606395D01*
X53093498Y3737201D01*
X53093495Y3737204D01*
X53093493Y3737206D01*
X52974530Y3842599D01*
X52833791Y3916464D01*
X52679472Y3954500D01*
X52679471Y3954500D01*
X52520529Y3954500D01*
X52520528Y3954500D01*
X52366207Y3916464D01*
X52359193Y3913803D01*
X52359093Y3914067D01*
X52350225Y3910594D01*
X52350283Y3910441D01*
X51827205Y3712708D01*
X51757536Y3707416D01*
X51696066Y3740630D01*
X51695678Y3741016D01*
X50205271Y5231423D01*
X50189143Y5251284D01*
X50183070Y5260579D01*
X50183068Y5260582D01*
X50179323Y5263497D01*
X50157755Y5280284D01*
X50146245Y5290449D01*
X50146114Y5290580D01*
X50128984Y5302811D01*
X50124879Y5305873D01*
X50083123Y5338372D01*
X50083122Y5338373D01*
X50083119Y5338375D01*
X50083114Y5338377D01*
X50076127Y5342159D01*
X50068979Y5345653D01*
X50018266Y5360751D01*
X50013385Y5362315D01*
X49963326Y5379501D01*
X49955516Y5380804D01*
X49947586Y5381793D01*
X49894738Y5379606D01*
X49889613Y5379500D01*
X45535572Y5379500D01*
X45468533Y5399185D01*
X45422778Y5451989D01*
X45412834Y5521147D01*
X45432938Y5573086D01*
X45433882Y5574479D01*
X45449413Y5597385D01*
X45469566Y5647964D01*
X45518208Y5770045D01*
X45525516Y5814623D01*
X45548278Y5953465D01*
X45538216Y6139058D01*
X45536878Y6143877D01*
X45488494Y6318144D01*
X45488490Y6318152D01*
X45401430Y6482364D01*
X45374368Y6514224D01*
X45345970Y6578063D01*
X45356595Y6647120D01*
X45402867Y6699471D01*
X45468876Y6718500D01*
X49893444Y6718500D01*
X49960483Y6698815D01*
X49981125Y6682181D01*
X50107070Y6556236D01*
X50132410Y6519568D01*
X50162285Y6453378D01*
X50389270Y5950484D01*
X50389271Y5950482D01*
X50389272Y5950481D01*
X50389273Y5950479D01*
X50392028Y5946553D01*
X50406468Y5919298D01*
X50416212Y5893606D01*
X50470730Y5814623D01*
X50506502Y5762799D01*
X50506504Y5762797D01*
X50506506Y5762795D01*
X50625469Y5657402D01*
X50625471Y5657401D01*
X50766207Y5583537D01*
X50834534Y5566696D01*
X50920528Y5545500D01*
X50920529Y5545500D01*
X51079472Y5545500D01*
X51165466Y5566696D01*
X51233793Y5583537D01*
X51374529Y5657401D01*
X51374529Y5657402D01*
X51381171Y5660887D01*
X51382551Y5658258D01*
X51435889Y5675875D01*
X51503548Y5658441D01*
X51549587Y5610027D01*
X51598569Y5517637D01*
X51715814Y5379606D01*
X51718895Y5375979D01*
X51866861Y5263498D01*
X51866862Y5263498D01*
X51866863Y5263497D01*
X52035543Y5185457D01*
X52035551Y5185454D01*
X52090620Y5173333D01*
X52217067Y5145500D01*
X52217070Y5145500D01*
X52356327Y5145500D01*
X52356332Y5145500D01*
X52494775Y5160557D01*
X52670911Y5219904D01*
X52830171Y5315727D01*
X52965108Y5443546D01*
X52970833Y5451989D01*
X53000849Y5496260D01*
X53069413Y5597385D01*
X53138209Y5770049D01*
X53148709Y5834102D01*
X53178980Y5897072D01*
X53238491Y5933682D01*
X53308347Y5932306D01*
X53358756Y5901722D01*
X54305977Y4954500D01*
X55193165Y4067312D01*
X55209293Y4047452D01*
X55215437Y4038047D01*
X55215439Y4038046D01*
X55215440Y4038044D01*
X55240918Y4018215D01*
X55252429Y4008048D01*
X55252593Y4007884D01*
X55269802Y3995598D01*
X55273905Y3992540D01*
X55315915Y3959842D01*
X55315922Y3959840D01*
X55322952Y3956035D01*
X55330127Y3952527D01*
X55330130Y3952525D01*
X55381158Y3937334D01*
X55385997Y3935783D01*
X55436339Y3918500D01*
X55436342Y3918500D01*
X55444219Y3917185D01*
X55452158Y3916196D01*
X55452159Y3916195D01*
X55452159Y3916196D01*
X55452160Y3916195D01*
X55505322Y3918394D01*
X55510447Y3918500D01*
X58917138Y3918500D01*
X58960670Y3910607D01*
X59550701Y3689385D01*
X59550635Y3689210D01*
X59559081Y3685893D01*
X59559197Y3686196D01*
X59566201Y3683540D01*
X59566207Y3683537D01*
X59669088Y3658179D01*
X59720528Y3645500D01*
X59720529Y3645500D01*
X59879472Y3645500D01*
X59930911Y3658179D01*
X60033793Y3683537D01*
X60174529Y3757401D01*
X60293498Y3862799D01*
X60383787Y3993605D01*
X60440149Y4142218D01*
X60459307Y4300000D01*
X60457336Y4316229D01*
X60440149Y4457782D01*
X60426357Y4494148D01*
X60383787Y4606395D01*
X60293498Y4737201D01*
X60293495Y4737204D01*
X60293493Y4737206D01*
X60174530Y4842599D01*
X60033791Y4916464D01*
X59879472Y4954500D01*
X59879471Y4954500D01*
X59720529Y4954500D01*
X59720528Y4954500D01*
X59566207Y4916464D01*
X59559193Y4913803D01*
X59559068Y4914131D01*
X59550880Y4910937D01*
X59550964Y4910713D01*
X58960664Y4689392D01*
X58917132Y4681500D01*
X55709385Y4681500D01*
X55642346Y4701185D01*
X55621704Y4717819D01*
X52506833Y7832690D01*
X52490705Y7852550D01*
X52484560Y7861956D01*
X52459083Y7881785D01*
X52447565Y7891958D01*
X52447409Y7892114D01*
X52430147Y7904439D01*
X52426102Y7907456D01*
X52384085Y7940158D01*
X52384084Y7940159D01*
X52384082Y7940160D01*
X52377070Y7943955D01*
X52369868Y7947476D01*
X52318862Y7962661D01*
X52313981Y7964225D01*
X52263660Y7981501D01*
X52255779Y7982816D01*
X52247839Y7983806D01*
X52194678Y7981606D01*
X52189553Y7981500D01*
X40109385Y7981500D01*
X40042346Y8001185D01*
X40021704Y8017819D01*
X38286819Y9752704D01*
X38253334Y9814027D01*
X38250500Y9840385D01*
X38250500Y13491628D01*
X38270185Y13558667D01*
X38322989Y13604422D01*
X38392147Y13614366D01*
X38432121Y13601427D01*
X38466207Y13583537D01*
X38466209Y13583537D01*
X38466210Y13583536D01*
X38620528Y13545500D01*
X38620529Y13545500D01*
X38779470Y13545500D01*
X38779471Y13545500D01*
X38857356Y13564698D01*
X38864767Y13566285D01*
X39539842Y13689485D01*
X39562104Y13691500D01*
X49581412Y13691500D01*
X49648451Y13671815D01*
X49682541Y13639255D01*
X49722075Y13583536D01*
X49834693Y13424813D01*
X49835613Y13423499D01*
X49906502Y13320799D01*
X49915804Y13312558D01*
X49924982Y13303532D01*
X49926590Y13301778D01*
X49926592Y13301776D01*
X49926597Y13301771D01*
X49926602Y13301768D01*
X49928056Y13300518D01*
X49938521Y13292433D01*
X50025471Y13215401D01*
X50166207Y13141537D01*
X50243368Y13122519D01*
X50320528Y13103500D01*
X50320529Y13103500D01*
X50479472Y13103500D01*
X50530911Y13116179D01*
X50633793Y13141537D01*
X50774529Y13215401D01*
X50893498Y13320799D01*
X50983787Y13451605D01*
X51040149Y13600218D01*
X51059307Y13758000D01*
X51058765Y13762460D01*
X51040149Y13915782D01*
X51013861Y13985096D01*
X50983787Y14064395D01*
X50893498Y14195201D01*
X50893495Y14195204D01*
X50893493Y14195206D01*
X50774529Y14300599D01*
X50774527Y14300601D01*
X50661074Y14360146D01*
X50648961Y14367411D01*
X50643707Y14370985D01*
X50643700Y14370988D01*
X50427109Y14462816D01*
X50387830Y14489298D01*
X50365646Y14511482D01*
X50349012Y14532123D01*
X50346250Y14536421D01*
X50346249Y14536422D01*
X50346247Y14536425D01*
X50308070Y14569505D01*
X50301601Y14575527D01*
X50291848Y14585280D01*
X50289715Y14586877D01*
X50280808Y14593545D01*
X50273918Y14599098D01*
X50235748Y14632172D01*
X50235740Y14632178D01*
X50232398Y14633704D01*
X50231094Y14634300D01*
X50208297Y14647825D01*
X50204204Y14650889D01*
X50172975Y14662538D01*
X50156861Y14668548D01*
X50148688Y14671933D01*
X50139386Y14676181D01*
X50102734Y14692919D01*
X50102731Y14692920D01*
X50102730Y14692920D01*
X50097674Y14693647D01*
X50071998Y14700201D01*
X50067210Y14701987D01*
X50067202Y14701989D01*
X50067201Y14701989D01*
X50055603Y14702819D01*
X50016793Y14705595D01*
X50008006Y14706540D01*
X49994368Y14708500D01*
X49980590Y14708500D01*
X49971744Y14708816D01*
X49921355Y14712420D01*
X49921347Y14712420D01*
X49916358Y14711334D01*
X49890001Y14708500D01*
X39562111Y14708500D01*
X39539848Y14710515D01*
X39327714Y14749230D01*
X39265298Y14780631D01*
X39229767Y14840791D01*
X39232402Y14910611D01*
X39247923Y14941648D01*
X39283787Y14993605D01*
X39340149Y15142218D01*
X39359307Y15300000D01*
X39352994Y15351989D01*
X39340149Y15457782D01*
X39334760Y15471992D01*
X39316686Y15519648D01*
X39310315Y15543241D01*
X39308288Y15555411D01*
X39308286Y15555417D01*
X39297647Y15583560D01*
X39087511Y16139448D01*
X39079500Y16183294D01*
X39079500Y16418785D01*
X39082139Y16444230D01*
X39082600Y16446434D01*
X39084418Y16455100D01*
X39080452Y16486919D01*
X39079500Y16502256D01*
X39079500Y16502441D01*
X39079499Y16502451D01*
X39076037Y16523189D01*
X39075299Y16528247D01*
X39068752Y16580783D01*
X39068750Y16580786D01*
X39066486Y16588396D01*
X39063901Y16595925D01*
X39038720Y16642456D01*
X39036375Y16647013D01*
X39013127Y16694568D01*
X39008541Y16700991D01*
X39003620Y16707314D01*
X39003619Y16707316D01*
X38964676Y16743166D01*
X38961002Y16746692D01*
X38786819Y16920875D01*
X38753334Y16982198D01*
X38750500Y17008556D01*
X38750500Y20462444D01*
X38770185Y20529483D01*
X38786819Y20550125D01*
X39264129Y21027435D01*
X39762534Y21525841D01*
X39823855Y21559324D01*
X39893546Y21554340D01*
X39949480Y21512468D01*
X39973684Y21449600D01*
X39981154Y21368987D01*
X39981154Y21368985D01*
X39981155Y21368982D01*
X39999788Y21303494D01*
X40039151Y21165147D01*
X40133611Y20975446D01*
X40261324Y20806327D01*
X40390270Y20688778D01*
X40417935Y20663558D01*
X40598115Y20551995D01*
X40795726Y20475440D01*
X40954379Y20445783D01*
X41016658Y20414116D01*
X41051931Y20353804D01*
X41048997Y20283996D01*
X41008789Y20226855D01*
X40972420Y20206809D01*
X40696053Y20110441D01*
X40689028Y20107878D01*
X40688529Y20107687D01*
X40688487Y20107671D01*
X40688452Y20107657D01*
X40681825Y20105026D01*
X40681823Y20105025D01*
X40681821Y20105024D01*
X40676683Y20101599D01*
X40652703Y20089154D01*
X40639832Y20084167D01*
X40598118Y20068007D01*
X40598113Y20068005D01*
X40417933Y19956441D01*
X40261324Y19813674D01*
X40133611Y19644555D01*
X40039151Y19454854D01*
X40018412Y19381963D01*
X39982630Y19256200D01*
X39981154Y19251014D01*
X39961601Y19040001D01*
X39961601Y19040000D01*
X39981154Y18828987D01*
X39981154Y18828985D01*
X39981155Y18828982D01*
X40036909Y18633028D01*
X40039151Y18625147D01*
X40133611Y18435446D01*
X40261324Y18266327D01*
X40368113Y18168977D01*
X40417935Y18123558D01*
X40527831Y18055513D01*
X40598113Y18011996D01*
X40598115Y18011995D01*
X40795720Y17935442D01*
X40795726Y17935440D01*
X40860767Y17923282D01*
X40923046Y17891615D01*
X40958320Y17831303D01*
X40955387Y17761495D01*
X40915178Y17704355D01*
X40899314Y17693625D01*
X40650396Y17551963D01*
X40649731Y17551507D01*
X40647939Y17550564D01*
X40645958Y17549436D01*
X40645921Y17549501D01*
X40624544Y17538245D01*
X40598116Y17528007D01*
X40598115Y17528006D01*
X40417933Y17416441D01*
X40261324Y17273674D01*
X40133611Y17104555D01*
X40039151Y16914854D01*
X39981154Y16711014D01*
X39961601Y16500001D01*
X39961601Y16500000D01*
X39981154Y16288987D01*
X39981154Y16288985D01*
X39981155Y16288982D01*
X40036826Y16093317D01*
X40039151Y16085147D01*
X40133611Y15895446D01*
X40261324Y15726327D01*
X40384252Y15614264D01*
X40417935Y15583558D01*
X40598115Y15471995D01*
X40795726Y15395440D01*
X41004039Y15356500D01*
X41004042Y15356500D01*
X41215958Y15356500D01*
X41215961Y15356500D01*
X41424274Y15395440D01*
X41621885Y15471995D01*
X41802065Y15583558D01*
X41958677Y15726329D01*
X42086389Y15895446D01*
X42180850Y16085150D01*
X42238845Y16288982D01*
X42238845Y16288989D01*
X42239175Y16290146D01*
X42276454Y16349239D01*
X42339764Y16378797D01*
X42409004Y16369435D01*
X42462190Y16324126D01*
X42474622Y16299548D01*
X42475633Y16296839D01*
X42475635Y16296834D01*
X42612770Y16045691D01*
X42612775Y16045683D01*
X42784254Y15816613D01*
X42784270Y15816595D01*
X42986594Y15614271D01*
X42986612Y15614255D01*
X43215682Y15442776D01*
X43215690Y15442771D01*
X43466833Y15305636D01*
X43466832Y15305636D01*
X43466836Y15305635D01*
X43466839Y15305633D01*
X43734954Y15205631D01*
X43734960Y15205630D01*
X43734962Y15205629D01*
X44014566Y15144805D01*
X44014568Y15144805D01*
X44014572Y15144804D01*
X44228552Y15129500D01*
X44371448Y15129500D01*
X44585428Y15144804D01*
X44692303Y15168053D01*
X44865037Y15205629D01*
X44865037Y15205630D01*
X44865046Y15205631D01*
X45133161Y15305633D01*
X45384315Y15442774D01*
X45613395Y15614261D01*
X45815739Y15816605D01*
X45987226Y16045685D01*
X46124367Y16296839D01*
X46224369Y16564954D01*
X46229383Y16588004D01*
X46285195Y16844567D01*
X46285195Y16844568D01*
X46285196Y16844572D01*
X46305610Y17130000D01*
X46285196Y17415428D01*
X46284975Y17416442D01*
X46224371Y17695038D01*
X46224370Y17695040D01*
X46224369Y17695046D01*
X46124367Y17963161D01*
X46111261Y17987162D01*
X45987229Y18214310D01*
X45987224Y18214318D01*
X45815745Y18443388D01*
X45815729Y18443406D01*
X45613405Y18645730D01*
X45613387Y18645746D01*
X45384317Y18817225D01*
X45384309Y18817230D01*
X45133166Y18954365D01*
X45133167Y18954365D01*
X44955852Y19020500D01*
X44865046Y19054369D01*
X44865043Y19054370D01*
X44865037Y19054372D01*
X44585433Y19115196D01*
X44371450Y19130500D01*
X44371448Y19130500D01*
X44228552Y19130500D01*
X44228549Y19130500D01*
X44133051Y19123670D01*
X44064778Y19138522D01*
X44015373Y19187927D01*
X44000521Y19256200D01*
X44024938Y19321665D01*
X44036519Y19335031D01*
X44589672Y19888181D01*
X44650995Y19921666D01*
X44677353Y19924500D01*
X54486272Y19924500D01*
X54553311Y19904815D01*
X54599066Y19852011D01*
X54609010Y19782853D01*
X54579985Y19719297D01*
X54565231Y19705301D01*
X54527845Y19664690D01*
X54524299Y19660995D01*
X53168577Y18305273D01*
X53148727Y18289152D01*
X53139419Y18283071D01*
X53119715Y18257755D01*
X53109569Y18246263D01*
X53109425Y18246120D01*
X53109417Y18246110D01*
X53097186Y18228982D01*
X53094131Y18224886D01*
X53061625Y18183120D01*
X53057849Y18176143D01*
X53054345Y18168977D01*
X53039247Y18118261D01*
X53037683Y18113380D01*
X53020499Y18063328D01*
X53019195Y18055513D01*
X53018207Y18047587D01*
X53020394Y17994739D01*
X53020500Y17989614D01*
X53020500Y14608557D01*
X53000815Y14541518D01*
X52984181Y14520876D01*
X52156237Y13692933D01*
X52119569Y13667593D01*
X51550481Y13410730D01*
X51542776Y13405322D01*
X51529171Y13397026D01*
X51425472Y13342601D01*
X51425470Y13342599D01*
X51306506Y13237206D01*
X51306500Y13237199D01*
X51216214Y13106398D01*
X51159850Y12957782D01*
X51140693Y12800001D01*
X51140693Y12800000D01*
X51159850Y12642219D01*
X51195784Y12547472D01*
X51201151Y12477808D01*
X51168004Y12416302D01*
X51106866Y12382481D01*
X51079842Y12379500D01*
X49948091Y12379500D01*
X49881052Y12399185D01*
X49835297Y12451989D01*
X49835070Y12452487D01*
X49610731Y12949519D01*
X49610729Y12949523D01*
X49607978Y12953442D01*
X49593531Y12980708D01*
X49583789Y13006397D01*
X49493500Y13137203D01*
X49493497Y13137206D01*
X49493495Y13137208D01*
X49374532Y13242601D01*
X49233793Y13316466D01*
X49079474Y13354502D01*
X49079473Y13354502D01*
X48920531Y13354502D01*
X48920530Y13354502D01*
X48766210Y13316466D01*
X48625471Y13242601D01*
X48506508Y13137208D01*
X48506502Y13137201D01*
X48416216Y13006400D01*
X48359852Y12857784D01*
X48340695Y12700003D01*
X48340695Y12700002D01*
X48359852Y12542221D01*
X48416216Y12393605D01*
X48492345Y12283313D01*
X48506504Y12262801D01*
X48506506Y12262799D01*
X48506508Y12262797D01*
X48625471Y12157404D01*
X48625473Y12157403D01*
X48729670Y12102716D01*
X48744114Y12093824D01*
X48750485Y12089273D01*
X49319568Y11832414D01*
X49356235Y11807075D01*
X49394732Y11768578D01*
X49410856Y11748723D01*
X49416936Y11739418D01*
X49442242Y11719722D01*
X49453761Y11709549D01*
X49453890Y11709420D01*
X49471020Y11697189D01*
X49475128Y11694126D01*
X49514311Y11663628D01*
X49516885Y11661625D01*
X49516886Y11661625D01*
X49523884Y11657838D01*
X49531020Y11654349D01*
X49531022Y11654349D01*
X49531024Y11654347D01*
X49581751Y11639246D01*
X49586600Y11637693D01*
X49636677Y11620500D01*
X49636680Y11620500D01*
X49644483Y11619197D01*
X49652411Y11618209D01*
X49652412Y11618210D01*
X49652413Y11618209D01*
X49705252Y11620395D01*
X49710375Y11620500D01*
X52047780Y11620500D01*
X52073225Y11617861D01*
X52077120Y11617045D01*
X52084100Y11615581D01*
X52115924Y11619548D01*
X52131262Y11620500D01*
X52131440Y11620500D01*
X52131443Y11620500D01*
X52152205Y11623966D01*
X52157222Y11624697D01*
X52209783Y11631248D01*
X52217391Y11633514D01*
X52224923Y11636100D01*
X52224927Y11636100D01*
X52271481Y11661295D01*
X52275966Y11663604D01*
X52323568Y11686874D01*
X52323570Y11686877D01*
X52323572Y11686877D01*
X52330001Y11691467D01*
X52336310Y11696378D01*
X52336316Y11696381D01*
X52372188Y11735351D01*
X52375667Y11738975D01*
X55120875Y14484181D01*
X55182198Y14517666D01*
X55208556Y14520500D01*
X57237780Y14520500D01*
X57263225Y14517861D01*
X57267120Y14517045D01*
X57274100Y14515581D01*
X57305924Y14519548D01*
X57321262Y14520500D01*
X57321440Y14520500D01*
X57321443Y14520500D01*
X57342205Y14523966D01*
X57347222Y14524697D01*
X57399783Y14531248D01*
X57407391Y14533514D01*
X57414923Y14536100D01*
X57414927Y14536100D01*
X57461481Y14561295D01*
X57465966Y14563604D01*
X57513568Y14586874D01*
X57513570Y14586877D01*
X57513572Y14586877D01*
X57520001Y14591467D01*
X57526310Y14596378D01*
X57526316Y14596381D01*
X57562188Y14635351D01*
X57565667Y14638975D01*
X57831602Y14904910D01*
X57878584Y14934358D01*
X59303667Y15429478D01*
X59303703Y15429491D01*
X59310693Y15432033D01*
X59310722Y15432044D01*
X59311348Y15432282D01*
X59318169Y15434987D01*
X59323250Y15438375D01*
X59347235Y15450824D01*
X59401877Y15471992D01*
X59401876Y15471992D01*
X59401885Y15471995D01*
X59582065Y15583558D01*
X59738677Y15726329D01*
X59866389Y15895446D01*
X59960850Y16085150D01*
X60018845Y16288982D01*
X60038399Y16500000D01*
X60018845Y16711018D01*
X59960850Y16914850D01*
X59866389Y17104554D01*
X59738677Y17273671D01*
X59738675Y17273674D01*
X59582066Y17416441D01*
X59582065Y17416442D01*
X59447115Y17500000D01*
X59401886Y17528005D01*
X59401884Y17528006D01*
X59257392Y17583982D01*
X59204274Y17604560D01*
X58995961Y17643500D01*
X58784039Y17643500D01*
X58575726Y17604560D01*
X58575723Y17604560D01*
X58575723Y17604559D01*
X58378115Y17528006D01*
X58378113Y17528005D01*
X58197933Y17416441D01*
X58041323Y17273673D01*
X57924338Y17118761D01*
X57868229Y17077126D01*
X57798517Y17072435D01*
X57737335Y17106178D01*
X57704109Y17167641D01*
X57701702Y17184631D01*
X57685196Y17415428D01*
X57684975Y17416442D01*
X57624371Y17695038D01*
X57624370Y17695040D01*
X57624369Y17695046D01*
X57524367Y17963161D01*
X57511261Y17987162D01*
X57387229Y18214310D01*
X57387224Y18214318D01*
X57365033Y18243962D01*
X57340616Y18309426D01*
X57355468Y18377699D01*
X57404874Y18427104D01*
X57473147Y18441956D01*
X57518346Y18429874D01*
X58361300Y18021628D01*
X58372526Y18015456D01*
X58378115Y18011995D01*
X58384070Y18009689D01*
X58388771Y18007867D01*
X58398031Y18003839D01*
X58413192Y17996497D01*
X58425532Y17990520D01*
X58432136Y17987436D01*
X58432747Y17987161D01*
X58439706Y17984150D01*
X58450469Y17981998D01*
X58470938Y17976036D01*
X58575726Y17935440D01*
X58784039Y17896500D01*
X58784042Y17896500D01*
X58995958Y17896500D01*
X58995961Y17896500D01*
X59204274Y17935440D01*
X59401885Y18011995D01*
X59582065Y18123558D01*
X59738677Y18266329D01*
X59866389Y18435446D01*
X59960850Y18625150D01*
X60018845Y18828982D01*
X60038399Y19040000D01*
X60037067Y19054369D01*
X60034488Y19082204D01*
X60018845Y19251018D01*
X59960850Y19454850D01*
X59866389Y19644554D01*
X59805055Y19725773D01*
X59780363Y19791134D01*
X59794928Y19859469D01*
X59844125Y19909081D01*
X59904009Y19924500D01*
X60053573Y19924500D01*
X60079018Y19921861D01*
X60082930Y19921041D01*
X60090017Y19919555D01*
X60122050Y19923548D01*
X60137388Y19924500D01*
X60137608Y19924500D01*
X60137611Y19924500D01*
X60137614Y19924501D01*
X60137619Y19924501D01*
X60144173Y19925596D01*
X60158487Y19927985D01*
X60163510Y19928717D01*
X60216360Y19935304D01*
X60216361Y19935305D01*
X60224013Y19937584D01*
X60231580Y19940182D01*
X60231586Y19940182D01*
X60278399Y19965517D01*
X60282902Y19967836D01*
X60330746Y19991224D01*
X60330749Y19991228D01*
X60330751Y19991228D01*
X60337263Y19995878D01*
X60343557Y20000777D01*
X60343557Y20000778D01*
X60343562Y20000780D01*
X60379638Y20039971D01*
X60383140Y20043620D01*
X60545484Y20205964D01*
X60581840Y20231160D01*
X61150198Y20489546D01*
X61158016Y20495058D01*
X61171824Y20503498D01*
X61274529Y20557401D01*
X61393498Y20662799D01*
X61483787Y20793605D01*
X61540149Y20942218D01*
X61559307Y21100000D01*
X61554436Y21140113D01*
X61540149Y21257782D01*
X61540146Y21257790D01*
X61483787Y21406395D01*
X61393498Y21537201D01*
X61393495Y21537204D01*
X61393493Y21537206D01*
X61274530Y21642599D01*
X61133791Y21716464D01*
X60979472Y21754500D01*
X60979471Y21754500D01*
X60820529Y21754500D01*
X60820528Y21754500D01*
X60666208Y21716464D01*
X60525469Y21642599D01*
X60406506Y21537206D01*
X60406500Y21537199D01*
X60316215Y21406399D01*
X60316210Y21406390D01*
X60306643Y21381165D01*
X60291414Y21352801D01*
X60289548Y21350204D01*
X60289547Y21350202D01*
X60237053Y21234736D01*
X60191388Y21181855D01*
X60124382Y21162056D01*
X60057309Y21181627D01*
X60011464Y21234353D01*
X60001403Y21303494D01*
X60004901Y21319976D01*
X60018845Y21368982D01*
X60038399Y21580000D01*
X60018845Y21791018D01*
X59960850Y21994850D01*
X59866389Y22184554D01*
X59752529Y22335328D01*
X59738675Y22353674D01*
X59582066Y22496441D01*
X59582065Y22496442D01*
X59401885Y22608005D01*
X59401883Y22608006D01*
X59401873Y22608011D01*
X59335394Y22633765D01*
X59317424Y22642449D01*
X59310759Y22646361D01*
X59303667Y22650523D01*
X59027029Y22746636D01*
X58970163Y22787232D01*
X58944273Y22852128D01*
X58957577Y22920719D01*
X59005853Y22971229D01*
X59044934Y22985655D01*
X59204274Y23015440D01*
X59401885Y23091995D01*
X59582065Y23203558D01*
X59738677Y23346329D01*
X59866389Y23515446D01*
X59960850Y23705150D01*
X60018845Y23908982D01*
X60038399Y24120000D01*
X60018845Y24331018D01*
X59960850Y24534850D01*
X59866389Y24724554D01*
X59774500Y24846234D01*
X59738675Y24893674D01*
X59582066Y25036441D01*
X59582065Y25036442D01*
X59513449Y25078928D01*
X59401886Y25148005D01*
X59401884Y25148006D01*
X59257392Y25203982D01*
X59204274Y25224560D01*
X58995961Y25263500D01*
X58784039Y25263500D01*
X58575726Y25224560D01*
X58575723Y25224560D01*
X58575723Y25224559D01*
X58378115Y25148006D01*
X58378113Y25148005D01*
X58197933Y25036441D01*
X58041324Y24893674D01*
X57913611Y24724555D01*
X57819151Y24534854D01*
X57814969Y24520155D01*
X57778184Y24390867D01*
X57761154Y24331014D01*
X57741601Y24120001D01*
X57741601Y24120000D01*
X57761154Y23908987D01*
X57761154Y23908985D01*
X57761155Y23908982D01*
X57817541Y23710805D01*
X57819151Y23705147D01*
X57888338Y23566201D01*
X57913611Y23515446D01*
X58038385Y23350219D01*
X58041324Y23346328D01*
X58050704Y23337777D01*
X58086986Y23278067D01*
X58085227Y23208219D01*
X58045984Y23150411D01*
X57981718Y23122996D01*
X57926473Y23129007D01*
X57878586Y23145644D01*
X57831599Y23175095D01*
X57515819Y23490875D01*
X57482334Y23552198D01*
X57479500Y23578556D01*
X57479500Y34110140D01*
X57499185Y34177179D01*
X57551989Y34222934D01*
X57621147Y34232878D01*
X57684703Y34203853D01*
X57720631Y34150838D01*
X57814651Y33880223D01*
X57816778Y33873487D01*
X57818851Y33866199D01*
X57819150Y33865150D01*
X57819153Y33865144D01*
X57819537Y33864373D01*
X57823796Y33854830D01*
X57824984Y33851834D01*
X57826474Y33848991D01*
X57831616Y33840113D01*
X57913611Y33675446D01*
X58041324Y33506327D01*
X58176052Y33383507D01*
X58197935Y33363558D01*
X58378115Y33251995D01*
X58575726Y33175440D01*
X58735059Y33145656D01*
X58797339Y33113989D01*
X58832612Y33053677D01*
X58829679Y32983869D01*
X58789470Y32926728D01*
X58752969Y32906636D01*
X58642874Y32868385D01*
X58476301Y32810512D01*
X58474311Y32809787D01*
X58468965Y32807839D01*
X58468388Y32807619D01*
X58464379Y32806027D01*
X58461830Y32805014D01*
X58461828Y32805013D01*
X58461826Y32805012D01*
X58461825Y32805012D01*
X58456732Y32801617D01*
X58432761Y32789176D01*
X58378113Y32768005D01*
X58197933Y32656441D01*
X58041324Y32513674D01*
X57913611Y32344555D01*
X57819151Y32154854D01*
X57761154Y31951014D01*
X57741601Y31740001D01*
X57741601Y31740000D01*
X57761154Y31528987D01*
X57761154Y31528985D01*
X57761155Y31528982D01*
X57819150Y31325150D01*
X57819151Y31325147D01*
X57913611Y31135446D01*
X58041324Y30966327D01*
X58171298Y30847841D01*
X58197935Y30823558D01*
X58267536Y30780463D01*
X58378113Y30711996D01*
X58378115Y30711995D01*
X58536451Y30650655D01*
X58575726Y30635440D01*
X58735059Y30605656D01*
X58797339Y30573989D01*
X58832612Y30513677D01*
X58829679Y30443869D01*
X58789470Y30386728D01*
X58752969Y30366636D01*
X58652444Y30331710D01*
X58476301Y30270512D01*
X58474784Y30269959D01*
X58468965Y30267839D01*
X58468388Y30267619D01*
X58464379Y30266027D01*
X58461830Y30265014D01*
X58461828Y30265013D01*
X58461826Y30265012D01*
X58461825Y30265012D01*
X58456732Y30261617D01*
X58432761Y30249176D01*
X58378113Y30228005D01*
X58197933Y30116441D01*
X58041324Y29973674D01*
X57913611Y29804555D01*
X57819151Y29614854D01*
X57796437Y29535021D01*
X57772930Y29452401D01*
X57761154Y29411014D01*
X57741601Y29200001D01*
X57741601Y29200000D01*
X57761154Y28988987D01*
X57761154Y28988985D01*
X57761155Y28988982D01*
X57819150Y28785150D01*
X57819151Y28785147D01*
X57913611Y28595446D01*
X58041324Y28426327D01*
X58171352Y28307792D01*
X58197935Y28283558D01*
X58378115Y28171995D01*
X58575726Y28095440D01*
X58735059Y28065656D01*
X58797339Y28033989D01*
X58832612Y27973677D01*
X58829679Y27903869D01*
X58789470Y27846728D01*
X58752969Y27826636D01*
X58601253Y27773925D01*
X58476301Y27730512D01*
X58474311Y27729787D01*
X58468965Y27727839D01*
X58468388Y27727619D01*
X58464379Y27726027D01*
X58461830Y27725014D01*
X58461828Y27725013D01*
X58461826Y27725012D01*
X58461825Y27725012D01*
X58456732Y27721617D01*
X58432761Y27709176D01*
X58378113Y27688005D01*
X58197933Y27576441D01*
X58041324Y27433674D01*
X57913611Y27264555D01*
X57819151Y27074854D01*
X57761154Y26871014D01*
X57741601Y26660001D01*
X57741601Y26660000D01*
X57761154Y26448987D01*
X57761154Y26448985D01*
X57761155Y26448982D01*
X57819150Y26245150D01*
X57819151Y26245147D01*
X57913611Y26055446D01*
X58041324Y25886327D01*
X58175436Y25764069D01*
X58197935Y25743558D01*
X58284925Y25689696D01*
X58365047Y25640086D01*
X58378115Y25631995D01*
X58575726Y25555440D01*
X58784039Y25516500D01*
X58784042Y25516500D01*
X58995958Y25516500D01*
X58995961Y25516500D01*
X59204274Y25555440D01*
X59401885Y25631995D01*
X59582065Y25743558D01*
X59738677Y25886329D01*
X59866389Y26055446D01*
X59960850Y26245150D01*
X59963222Y26253490D01*
X59965350Y26260233D01*
X60455642Y27671416D01*
X60485090Y27718398D01*
X61981425Y29214733D01*
X62001279Y29230855D01*
X62010582Y29236932D01*
X62030276Y29262236D01*
X62040459Y29273766D01*
X62040581Y29273887D01*
X62044485Y29279356D01*
X62052811Y29291016D01*
X62055876Y29295127D01*
X62088375Y29336881D01*
X62088376Y29336883D01*
X62092159Y29343874D01*
X62095651Y29351018D01*
X62095651Y29351019D01*
X62095653Y29351021D01*
X62110750Y29401737D01*
X62112303Y29406586D01*
X62129500Y29456673D01*
X62129500Y29456677D01*
X62129501Y29456679D01*
X62130802Y29464479D01*
X62131792Y29472413D01*
X62129606Y29525273D01*
X62129500Y29530397D01*
X62129500Y49541444D01*
X62149185Y49608483D01*
X62165819Y49629125D01*
X62370875Y49834181D01*
X62432198Y49867666D01*
X62458556Y49870500D01*
X66006087Y49870500D01*
X66073126Y49850815D01*
G37*
%TD.AperFunction*%
%TA.AperFunction,Conductor*%
G36*
X43977912Y6698815D02*
G01*
X44023667Y6646011D01*
X44033611Y6576853D01*
X44013507Y6524914D01*
X43965005Y6453378D01*
X43930583Y6402609D01*
X43861791Y6229956D01*
X43846424Y6136215D01*
X43831722Y6046535D01*
X43840366Y5887088D01*
X43841784Y5860943D01*
X43841784Y5860938D01*
X43891505Y5681857D01*
X43891509Y5681849D01*
X43955270Y5561583D01*
X43969281Y5493132D01*
X43944060Y5427973D01*
X43887615Y5386794D01*
X43845715Y5379500D01*
X41201450Y5379500D01*
X41134411Y5399185D01*
X41113769Y5415819D01*
X40022769Y6506819D01*
X39989284Y6568142D01*
X39994268Y6637834D01*
X40036140Y6693767D01*
X40101604Y6718184D01*
X40110450Y6718500D01*
X43910873Y6718500D01*
X43977912Y6698815D01*
G37*
%TD.AperFunction*%
%TA.AperFunction,Conductor*%
G36*
X28870605Y69725815D02*
G01*
X28916360Y69673011D01*
X28926304Y69603853D01*
X28897279Y69540297D01*
X28868844Y69516073D01*
X28707933Y69416441D01*
X28551324Y69273674D01*
X28423611Y69104555D01*
X28329151Y68914854D01*
X28271154Y68711014D01*
X28253471Y68520181D01*
X28246402Y68502380D01*
X28251693Y68492187D01*
X28253471Y68479820D01*
X28271154Y68288987D01*
X28271154Y68288985D01*
X28271155Y68288982D01*
X28305235Y68169202D01*
X28329151Y68085147D01*
X28423611Y67895446D01*
X28551324Y67726327D01*
X28672896Y67615500D01*
X28707935Y67583558D01*
X28888115Y67471995D01*
X29085726Y67395440D01*
X29294039Y67356500D01*
X29294042Y67356500D01*
X29505958Y67356500D01*
X29505961Y67356500D01*
X29714274Y67395440D01*
X29911885Y67471995D01*
X30092065Y67583558D01*
X30248677Y67726329D01*
X30376389Y67895446D01*
X30470850Y68085150D01*
X30528845Y68288982D01*
X30546529Y68479821D01*
X30553597Y68497622D01*
X30548307Y68507814D01*
X30546529Y68520181D01*
X30535582Y68638316D01*
X30528845Y68711018D01*
X30470850Y68914850D01*
X30376389Y69104554D01*
X30248677Y69273671D01*
X30248675Y69273674D01*
X30092066Y69416441D01*
X30092065Y69416442D01*
X29931156Y69516073D01*
X29884521Y69568101D01*
X29873417Y69637083D01*
X29901370Y69701117D01*
X29959506Y69739874D01*
X29996434Y69745500D01*
X31343566Y69745500D01*
X31410605Y69725815D01*
X31456360Y69673011D01*
X31466304Y69603853D01*
X31437279Y69540297D01*
X31408844Y69516073D01*
X31247933Y69416441D01*
X31091324Y69273674D01*
X30963611Y69104555D01*
X30869151Y68914854D01*
X30811154Y68711014D01*
X30793471Y68520181D01*
X30786402Y68502380D01*
X30791693Y68492187D01*
X30793471Y68479820D01*
X30811154Y68288987D01*
X30811154Y68288985D01*
X30811155Y68288982D01*
X30845235Y68169202D01*
X30869151Y68085147D01*
X30963611Y67895446D01*
X31091324Y67726327D01*
X31212896Y67615500D01*
X31247935Y67583558D01*
X31428115Y67471995D01*
X31625726Y67395440D01*
X31834039Y67356500D01*
X31834042Y67356500D01*
X32045958Y67356500D01*
X32045961Y67356500D01*
X32254274Y67395440D01*
X32451885Y67471995D01*
X32632065Y67583558D01*
X32788677Y67726329D01*
X32916389Y67895446D01*
X33010850Y68085150D01*
X33068845Y68288982D01*
X33086529Y68479821D01*
X33093597Y68497622D01*
X33088307Y68507814D01*
X33086529Y68520181D01*
X33075582Y68638316D01*
X33068845Y68711018D01*
X33010850Y68914850D01*
X32916389Y69104554D01*
X32788677Y69273671D01*
X32788675Y69273674D01*
X32632066Y69416441D01*
X32632065Y69416442D01*
X32471156Y69516073D01*
X32424521Y69568101D01*
X32413417Y69637083D01*
X32441370Y69701117D01*
X32499506Y69739874D01*
X32536434Y69745500D01*
X33883566Y69745500D01*
X33950605Y69725815D01*
X33996360Y69673011D01*
X34006304Y69603853D01*
X33977279Y69540297D01*
X33948844Y69516073D01*
X33787933Y69416441D01*
X33631324Y69273674D01*
X33503611Y69104555D01*
X33409151Y68914854D01*
X33351154Y68711014D01*
X33333471Y68520181D01*
X33326402Y68502380D01*
X33331693Y68492187D01*
X33333471Y68479820D01*
X33351154Y68288987D01*
X33351154Y68288985D01*
X33351155Y68288982D01*
X33385235Y68169202D01*
X33409151Y68085147D01*
X33503611Y67895446D01*
X33631324Y67726327D01*
X33752896Y67615500D01*
X33787935Y67583558D01*
X33968115Y67471995D01*
X34034605Y67446237D01*
X34052575Y67437552D01*
X34062267Y67431864D01*
X34066332Y67429478D01*
X35491685Y66934263D01*
X35531128Y66911755D01*
X35533886Y66909419D01*
X35551005Y66897196D01*
X35555111Y66894135D01*
X35580788Y66874150D01*
X35596881Y66861625D01*
X35596883Y66861625D01*
X35603877Y66857840D01*
X35611018Y66854349D01*
X35611021Y66854347D01*
X35661757Y66839243D01*
X35666590Y66837695D01*
X35716673Y66820500D01*
X35716676Y66820500D01*
X35724482Y66819197D01*
X35732407Y66818209D01*
X35732410Y66818208D01*
X35732412Y66818209D01*
X35732413Y66818208D01*
X35775640Y66819996D01*
X35785273Y66820395D01*
X35790396Y66820500D01*
X37391444Y66820500D01*
X37458483Y66800815D01*
X37479124Y66784182D01*
X37627527Y66635778D01*
X37758730Y66504575D01*
X37774854Y66484720D01*
X37780932Y66475418D01*
X37780936Y66475415D01*
X37806234Y66455724D01*
X37817753Y66445552D01*
X37817886Y66445419D01*
X37835046Y66433168D01*
X37839107Y66430139D01*
X37865271Y66409775D01*
X37880884Y66397623D01*
X37887853Y66393852D01*
X37895018Y66390349D01*
X37895021Y66390347D01*
X37945757Y66375243D01*
X37950590Y66373695D01*
X38000673Y66356500D01*
X38000676Y66356500D01*
X38008481Y66355197D01*
X38016407Y66354209D01*
X38016410Y66354208D01*
X38016412Y66354209D01*
X38016413Y66354208D01*
X38069262Y66356394D01*
X38074387Y66356500D01*
X39701231Y66356500D01*
X39768270Y66336815D01*
X39788912Y66320181D01*
X40074001Y66035092D01*
X40107486Y65973769D01*
X40102502Y65904077D01*
X40060630Y65848144D01*
X40055214Y65844311D01*
X40037516Y65832486D01*
X39981266Y65748301D01*
X39981264Y65748297D01*
X39966500Y65674072D01*
X39966500Y65224526D01*
X39957301Y65177657D01*
X39288081Y63538469D01*
X39260961Y63497657D01*
X36268577Y60505273D01*
X36248727Y60489152D01*
X36239419Y60483071D01*
X36219715Y60457755D01*
X36209569Y60446263D01*
X36209425Y60446120D01*
X36209417Y60446110D01*
X36197186Y60428982D01*
X36194131Y60424886D01*
X36161625Y60383120D01*
X36157849Y60376143D01*
X36154345Y60368977D01*
X36139247Y60318261D01*
X36137683Y60313380D01*
X36120499Y60263328D01*
X36119195Y60255513D01*
X36118207Y60247587D01*
X36120394Y60194739D01*
X36120500Y60189614D01*
X36120500Y41034087D01*
X36100815Y40967048D01*
X36084181Y40946406D01*
X34847181Y39709406D01*
X34785858Y39675921D01*
X34716166Y39680905D01*
X34660233Y39722777D01*
X34635816Y39788241D01*
X34635500Y39797087D01*
X34635500Y44108302D01*
X34639105Y44137985D01*
X34640145Y44142209D01*
X34640149Y44142218D01*
X34659307Y44300000D01*
X34640149Y44457782D01*
X34640146Y44457790D01*
X34639103Y44462024D01*
X34635500Y44491700D01*
X34635500Y45274737D01*
X34655185Y45341776D01*
X34707989Y45387531D01*
X34777147Y45397475D01*
X34793879Y45393154D01*
X34793924Y45393332D01*
X34955528Y45353500D01*
X34955529Y45353500D01*
X35114472Y45353500D01*
X35165911Y45366179D01*
X35268793Y45391537D01*
X35409529Y45465401D01*
X35528498Y45570799D01*
X35618787Y45701605D01*
X35675149Y45850218D01*
X35694307Y46008000D01*
X35675149Y46165782D01*
X35661623Y46201445D01*
X35646544Y46241206D01*
X35641354Y46258664D01*
X35637591Y46275856D01*
X35389868Y46842956D01*
X35379500Y46892593D01*
X35379500Y53715410D01*
X35389868Y53765047D01*
X35416637Y53826329D01*
X35637591Y54332147D01*
X35638579Y54334439D01*
X35638656Y54334620D01*
X35639379Y54336337D01*
X35642333Y54351016D01*
X35647947Y54370497D01*
X35675149Y54442218D01*
X35694307Y54600000D01*
X35675149Y54757782D01*
X35618787Y54906395D01*
X35528498Y55037201D01*
X35528495Y55037204D01*
X35528493Y55037206D01*
X35409530Y55142599D01*
X35268791Y55216464D01*
X35114472Y55254500D01*
X35114471Y55254500D01*
X34955529Y55254500D01*
X34955528Y55254500D01*
X34793924Y55214668D01*
X34793459Y55216551D01*
X34733806Y55211955D01*
X34672301Y55245103D01*
X34638480Y55306242D01*
X34635500Y55333264D01*
X34635500Y55708302D01*
X34639105Y55737985D01*
X34640145Y55742209D01*
X34640149Y55742218D01*
X34659307Y55900000D01*
X34640149Y56057782D01*
X34640146Y56057790D01*
X34639103Y56062024D01*
X34635500Y56091700D01*
X34635500Y60608302D01*
X34639105Y60637985D01*
X34640145Y60642209D01*
X34640149Y60642218D01*
X34659307Y60800000D01*
X34654181Y60842213D01*
X34640149Y60957782D01*
X34624941Y60997882D01*
X34583787Y61106395D01*
X34493498Y61237201D01*
X34493495Y61237204D01*
X34493493Y61237206D01*
X34374530Y61342599D01*
X34233791Y61416464D01*
X34079472Y61454500D01*
X34079471Y61454500D01*
X33920529Y61454500D01*
X33920528Y61454500D01*
X33766208Y61416464D01*
X33625469Y61342599D01*
X33506506Y61237206D01*
X33506500Y61237199D01*
X33416214Y61106398D01*
X33359850Y60957782D01*
X33340693Y60800001D01*
X33340693Y60800000D01*
X33359850Y60642223D01*
X33360895Y60637985D01*
X33364500Y60608302D01*
X33364500Y56091700D01*
X33360897Y56062024D01*
X33359850Y56057778D01*
X33340693Y55900001D01*
X33340693Y55900000D01*
X33359850Y55742223D01*
X33360895Y55737985D01*
X33364500Y55708302D01*
X33364500Y53491700D01*
X33360897Y53462024D01*
X33359850Y53457778D01*
X33340693Y53300001D01*
X33340693Y53300000D01*
X33359850Y53142223D01*
X33360895Y53137985D01*
X33364500Y53108302D01*
X33364500Y44491700D01*
X33360897Y44462024D01*
X33359850Y44457778D01*
X33340693Y44300001D01*
X33340693Y44300000D01*
X33359850Y44142223D01*
X33360895Y44137985D01*
X33364500Y44108302D01*
X33364500Y30491700D01*
X33360897Y30462024D01*
X33359850Y30457778D01*
X33340693Y30300001D01*
X33340693Y30300000D01*
X33359850Y30142223D01*
X33360895Y30137985D01*
X33364500Y30108302D01*
X33364500Y21991700D01*
X33360897Y21962024D01*
X33359850Y21957778D01*
X33340693Y21800001D01*
X33340693Y21800000D01*
X33359850Y21642223D01*
X33360895Y21637985D01*
X33364500Y21608302D01*
X33364500Y14391700D01*
X33360897Y14362024D01*
X33359850Y14357778D01*
X33340693Y14200001D01*
X33340693Y14200000D01*
X33359850Y14042223D01*
X33360895Y14037985D01*
X33364500Y14008302D01*
X33364500Y7442805D01*
X33344815Y7375766D01*
X33292011Y7330011D01*
X33222853Y7320067D01*
X33159297Y7349092D01*
X33152819Y7355124D01*
X30535375Y9972568D01*
X30522743Y9987357D01*
X30514669Y9998470D01*
X30514666Y9998473D01*
X30464907Y10043277D01*
X30460199Y10047745D01*
X30446015Y10061929D01*
X30445999Y10061943D01*
X30430405Y10074571D01*
X30425480Y10078777D01*
X30375715Y10123585D01*
X30375712Y10123588D01*
X30363824Y10130451D01*
X30347789Y10141471D01*
X30337125Y10150107D01*
X30277460Y10180508D01*
X30271782Y10183590D01*
X30213785Y10217075D01*
X30200724Y10221319D01*
X30182751Y10228764D01*
X30170520Y10234996D01*
X30105839Y10252328D01*
X30099616Y10254171D01*
X30035959Y10274855D01*
X30031937Y10275278D01*
X30022298Y10276291D01*
X30003184Y10279834D01*
X29993209Y10282507D01*
X29989912Y10283390D01*
X29923055Y10286893D01*
X29916586Y10287402D01*
X29896622Y10289500D01*
X29896620Y10289500D01*
X29876545Y10289500D01*
X29870056Y10289670D01*
X29865891Y10289889D01*
X29803190Y10293174D01*
X29803189Y10293174D01*
X29795601Y10291973D01*
X29789633Y10291027D01*
X29770236Y10289500D01*
X21124000Y10289500D01*
X21056961Y10309185D01*
X21011206Y10361989D01*
X21000000Y10413500D01*
X21000000Y11448638D01*
X21019685Y11515677D01*
X21036319Y11536319D01*
X21963681Y12463681D01*
X22025004Y12497166D01*
X22051362Y12500000D01*
X27802149Y12500000D01*
X27810135Y12499575D01*
X27810141Y12499676D01*
X27813423Y12499501D01*
X27813431Y12499500D01*
X27813439Y12499500D01*
X28093209Y12499500D01*
X28093213Y12499500D01*
X28099292Y12499825D01*
X28105893Y12500000D01*
X29250000Y12500000D01*
X29662504Y12912505D01*
X29692996Y12934846D01*
X29779606Y12979850D01*
X30090547Y13186120D01*
X30377800Y13424273D01*
X30638113Y13691609D01*
X30868534Y13985101D01*
X31066454Y14301422D01*
X31229630Y14636989D01*
X31356212Y14988000D01*
X31444768Y15350476D01*
X31494293Y15720312D01*
X31504226Y16093317D01*
X31474455Y16465265D01*
X31405316Y16831941D01*
X31401509Y16844567D01*
X31297595Y17189192D01*
X31154604Y17528005D01*
X31152510Y17532967D01*
X31152508Y17532971D01*
X31015529Y17780261D01*
X31000000Y17840345D01*
X31000000Y52159618D01*
X31018881Y52225390D01*
X31066454Y52301422D01*
X31229630Y52636989D01*
X31356212Y52988000D01*
X31444768Y53350476D01*
X31494293Y53720312D01*
X31504226Y54093317D01*
X31474455Y54465265D01*
X31405316Y54831941D01*
X31405314Y54831948D01*
X31297595Y55189192D01*
X31190608Y55442695D01*
X31152510Y55532967D01*
X31099868Y55628002D01*
X31015529Y55780261D01*
X31000000Y55840345D01*
X31000000Y66500000D01*
X30500000Y67000000D01*
X25613047Y67000000D01*
X25546008Y67019685D01*
X25500253Y67072489D01*
X25490309Y67141647D01*
X25519334Y67205203D01*
X25538736Y67223267D01*
X25571903Y67248097D01*
X25659445Y67365039D01*
X25659446Y67365039D01*
X25710493Y67501903D01*
X25716999Y67562419D01*
X25717000Y67562420D01*
X25717000Y67746110D01*
X25736685Y67813149D01*
X25789489Y67858904D01*
X25858647Y67868848D01*
X25922203Y67839823D01*
X25939951Y67820841D01*
X25968386Y67783186D01*
X26011324Y67726327D01*
X26132896Y67615500D01*
X26167935Y67583558D01*
X26348115Y67471995D01*
X26545726Y67395440D01*
X26754039Y67356500D01*
X26754042Y67356500D01*
X26965958Y67356500D01*
X26965961Y67356500D01*
X27174274Y67395440D01*
X27371885Y67471995D01*
X27552065Y67583558D01*
X27708677Y67726329D01*
X27836389Y67895446D01*
X27930850Y68085150D01*
X27988845Y68288982D01*
X28006529Y68479821D01*
X28013597Y68497622D01*
X28008307Y68507814D01*
X28006529Y68520181D01*
X27995582Y68638316D01*
X27988845Y68711018D01*
X27930850Y68914850D01*
X27836389Y69104554D01*
X27708677Y69273671D01*
X27708675Y69273674D01*
X27552066Y69416441D01*
X27552065Y69416442D01*
X27391156Y69516073D01*
X27344521Y69568101D01*
X27333417Y69637083D01*
X27361370Y69701117D01*
X27419506Y69739874D01*
X27456434Y69745500D01*
X28803566Y69745500D01*
X28870605Y69725815D01*
G37*
%TD.AperFunction*%
%TA.AperFunction,Conductor*%
G36*
X40273596Y35236799D02*
G01*
X40305755Y35174771D01*
X40299275Y35105203D01*
X40267595Y35059390D01*
X40261324Y35053674D01*
X40133611Y34884555D01*
X40039151Y34694854D01*
X39981154Y34491014D01*
X39961601Y34280001D01*
X39961601Y34280000D01*
X39981154Y34068987D01*
X39981154Y34068985D01*
X39981155Y34068982D01*
X40039150Y33865150D01*
X40039151Y33865147D01*
X40133611Y33675446D01*
X40261324Y33506327D01*
X40396052Y33383507D01*
X40417935Y33363558D01*
X40598115Y33251995D01*
X40795726Y33175440D01*
X40955059Y33145656D01*
X41017339Y33113989D01*
X41052612Y33053677D01*
X41049679Y32983869D01*
X41009470Y32926728D01*
X40972969Y32906636D01*
X40862874Y32868385D01*
X40696301Y32810512D01*
X40694311Y32809787D01*
X40688965Y32807839D01*
X40688388Y32807619D01*
X40684379Y32806027D01*
X40681830Y32805014D01*
X40681828Y32805013D01*
X40681826Y32805012D01*
X40681825Y32805012D01*
X40676732Y32801617D01*
X40652761Y32789176D01*
X40598113Y32768005D01*
X40417933Y32656441D01*
X40261324Y32513674D01*
X40133611Y32344555D01*
X40039151Y32154854D01*
X39981154Y31951014D01*
X39961601Y31740001D01*
X39961601Y31740000D01*
X39981154Y31528987D01*
X39981154Y31528985D01*
X39981155Y31528982D01*
X40039150Y31325150D01*
X40039151Y31325147D01*
X40133611Y31135446D01*
X40261324Y30966327D01*
X40391298Y30847841D01*
X40417935Y30823558D01*
X40487536Y30780463D01*
X40598113Y30711996D01*
X40598115Y30711995D01*
X40756451Y30650655D01*
X40795726Y30635440D01*
X40955059Y30605656D01*
X41017339Y30573989D01*
X41052612Y30513677D01*
X41049679Y30443869D01*
X41009470Y30386728D01*
X40972969Y30366636D01*
X40872444Y30331710D01*
X40696301Y30270512D01*
X40694784Y30269959D01*
X40688965Y30267839D01*
X40688388Y30267619D01*
X40684379Y30266027D01*
X40681830Y30265014D01*
X40681828Y30265013D01*
X40681826Y30265012D01*
X40681825Y30265012D01*
X40676732Y30261617D01*
X40652761Y30249176D01*
X40598113Y30228005D01*
X40417933Y30116441D01*
X40261324Y29973674D01*
X40133611Y29804555D01*
X40039151Y29614854D01*
X40016437Y29535021D01*
X39992930Y29452401D01*
X39981154Y29411014D01*
X39961601Y29200001D01*
X39961601Y29200000D01*
X39981154Y28988987D01*
X39981154Y28988985D01*
X39981155Y28988982D01*
X40039150Y28785150D01*
X40039151Y28785147D01*
X40133611Y28595446D01*
X40261324Y28426327D01*
X40391352Y28307792D01*
X40417935Y28283558D01*
X40598115Y28171995D01*
X40795726Y28095440D01*
X40941445Y28068201D01*
X41003724Y28036534D01*
X41038998Y27976222D01*
X41036065Y27906414D01*
X40995856Y27849274D01*
X40962048Y27830152D01*
X40952635Y27826636D01*
X40789805Y27765815D01*
X40690274Y27728638D01*
X40685986Y27726995D01*
X40685728Y27726893D01*
X40681715Y27725273D01*
X40675534Y27721153D01*
X40651564Y27708712D01*
X40598111Y27688004D01*
X40417933Y27576441D01*
X40261324Y27433674D01*
X40133611Y27264555D01*
X40039151Y27074854D01*
X39981154Y26871014D01*
X39961601Y26660001D01*
X39961601Y26660000D01*
X39981154Y26448987D01*
X39981154Y26448985D01*
X39981155Y26448982D01*
X40039150Y26245150D01*
X40039151Y26245147D01*
X40133611Y26055446D01*
X40261324Y25886327D01*
X40395436Y25764069D01*
X40417935Y25743558D01*
X40504925Y25689696D01*
X40585047Y25640086D01*
X40598115Y25631995D01*
X40795726Y25555440D01*
X41004039Y25516500D01*
X41004042Y25516500D01*
X41215958Y25516500D01*
X41215961Y25516500D01*
X41424274Y25555440D01*
X41621885Y25631995D01*
X41802065Y25743558D01*
X41802065Y25743559D01*
X41805222Y25745513D01*
X41872583Y25764069D01*
X41939282Y25743261D01*
X41984144Y25689696D01*
X41994500Y25640086D01*
X41994500Y25139915D01*
X41974815Y25072876D01*
X41922011Y25027121D01*
X41852853Y25017177D01*
X41805223Y25034488D01*
X41621891Y25148002D01*
X41621884Y25148006D01*
X41477392Y25203982D01*
X41424274Y25224560D01*
X41215961Y25263500D01*
X41004039Y25263500D01*
X40795726Y25224560D01*
X40795723Y25224560D01*
X40795723Y25224559D01*
X40598115Y25148006D01*
X40598113Y25148005D01*
X40417933Y25036441D01*
X40261324Y24893674D01*
X40133609Y24724553D01*
X40039154Y24534861D01*
X40039152Y24534854D01*
X40039150Y24534850D01*
X40036923Y24527025D01*
X40034750Y24520155D01*
X39543035Y23110007D01*
X39513630Y23063154D01*
X37889181Y21438704D01*
X37827858Y21405219D01*
X37758166Y21410203D01*
X37702233Y21452075D01*
X37677816Y21517539D01*
X37677500Y21526385D01*
X37677500Y22785458D01*
X37697185Y22852497D01*
X37749989Y22898252D01*
X37819147Y22908196D01*
X37859121Y22895256D01*
X37866207Y22891537D01*
X37941100Y22873078D01*
X38020528Y22853500D01*
X38020529Y22853500D01*
X38179472Y22853500D01*
X38230911Y22866179D01*
X38333793Y22891537D01*
X38474529Y22965401D01*
X38593498Y23070799D01*
X38683787Y23201605D01*
X38740149Y23350218D01*
X38759307Y23508000D01*
X38756976Y23527194D01*
X38740149Y23665782D01*
X38733070Y23684447D01*
X38716937Y23726985D01*
X38710512Y23750907D01*
X38708574Y23762738D01*
X38700371Y23784616D01*
X38489392Y24347335D01*
X38481500Y24390867D01*
X38481500Y30590616D01*
X38501185Y30657655D01*
X38517819Y30678297D01*
X38823607Y30984085D01*
X39132693Y31293172D01*
X39152542Y31309291D01*
X39161956Y31315440D01*
X39181785Y31340918D01*
X39191964Y31352442D01*
X39192114Y31352591D01*
X39204438Y31369855D01*
X39207455Y31373900D01*
X39240158Y31415915D01*
X39240159Y31415921D01*
X39243957Y31422936D01*
X39247471Y31430126D01*
X39247475Y31430130D01*
X39262658Y31481131D01*
X39264213Y31485990D01*
X39281500Y31536339D01*
X39281500Y31536343D01*
X39281501Y31536345D01*
X39282815Y31544220D01*
X39283805Y31552161D01*
X39281606Y31605323D01*
X39281500Y31610448D01*
X39281500Y34400616D01*
X39301185Y34467655D01*
X39317819Y34488297D01*
X39674397Y34844875D01*
X40053157Y35223636D01*
X40100005Y35253038D01*
X40143225Y35268109D01*
X40213006Y35271594D01*
X40273596Y35236799D01*
G37*
%TD.AperFunction*%
%TA.AperFunction,Conductor*%
G36*
X42453662Y65480049D02*
G01*
X42459610Y65475420D01*
X42459611Y65475418D01*
X42484918Y65455721D01*
X42496436Y65445549D01*
X42496565Y65445420D01*
X42513695Y65433189D01*
X42517803Y65430126D01*
X42559560Y65397625D01*
X42559561Y65397625D01*
X42566553Y65393841D01*
X42573696Y65390349D01*
X42573699Y65390347D01*
X42624463Y65375234D01*
X42629286Y65373688D01*
X42637445Y65370887D01*
X42679349Y65356500D01*
X42687165Y65355196D01*
X42695085Y65354209D01*
X42695088Y65354208D01*
X42695090Y65354209D01*
X42695091Y65354208D01*
X42747940Y65356394D01*
X42753065Y65356500D01*
X44334126Y65356500D01*
X44401165Y65336815D01*
X44421807Y65320181D01*
X44773410Y64968578D01*
X44789534Y64948723D01*
X44795614Y64939418D01*
X44820920Y64919722D01*
X44832439Y64909549D01*
X44832568Y64909420D01*
X44849698Y64897189D01*
X44853806Y64894126D01*
X44895563Y64861625D01*
X44895564Y64861625D01*
X44902562Y64857838D01*
X44909698Y64854349D01*
X44909700Y64854349D01*
X44909702Y64854347D01*
X44960429Y64839246D01*
X44965278Y64837693D01*
X45015355Y64820500D01*
X45015358Y64820500D01*
X45023161Y64819197D01*
X45031089Y64818209D01*
X45031090Y64818210D01*
X45031091Y64818209D01*
X45083930Y64820395D01*
X45089053Y64820500D01*
X46770126Y64820500D01*
X46837165Y64800815D01*
X46857807Y64784181D01*
X47173410Y64468578D01*
X47189534Y64448723D01*
X47195614Y64439418D01*
X47199570Y64436339D01*
X47220917Y64419724D01*
X47232440Y64409548D01*
X47232569Y64409419D01*
X47232572Y64409417D01*
X47232574Y64409415D01*
X47249687Y64397196D01*
X47253793Y64394135D01*
X47295563Y64361625D01*
X47295565Y64361625D01*
X47302559Y64357840D01*
X47309700Y64354349D01*
X47309703Y64354347D01*
X47360439Y64339243D01*
X47365272Y64337695D01*
X47415355Y64320500D01*
X47415358Y64320500D01*
X47423164Y64319197D01*
X47431089Y64318209D01*
X47431092Y64318208D01*
X47431094Y64318209D01*
X47431095Y64318208D01*
X47474322Y64319996D01*
X47483955Y64320395D01*
X47489078Y64320500D01*
X48884338Y64320500D01*
X48951377Y64300815D01*
X48972019Y64284181D01*
X48992573Y64263627D01*
X49026058Y64202304D01*
X49021074Y64132612D01*
X48979202Y64076679D01*
X48913738Y64052262D01*
X48887033Y64054540D01*
X48886919Y64053596D01*
X48879473Y64054500D01*
X48879471Y64054500D01*
X48720529Y64054500D01*
X48720528Y64054500D01*
X48566208Y64016464D01*
X48425469Y63942599D01*
X48306506Y63837206D01*
X48306500Y63837199D01*
X48216214Y63706398D01*
X48159850Y63557782D01*
X48140693Y63400001D01*
X48140693Y63400000D01*
X48159850Y63242219D01*
X48216214Y63093603D01*
X48263090Y63025692D01*
X48306502Y62962799D01*
X48306504Y62962797D01*
X48306506Y62962795D01*
X48425469Y62857402D01*
X48425471Y62857401D01*
X48529668Y62802714D01*
X48544112Y62793822D01*
X48550483Y62789271D01*
X49119566Y62532412D01*
X49156233Y62507073D01*
X52084181Y59579125D01*
X52117666Y59517802D01*
X52120500Y59491444D01*
X52120500Y42183296D01*
X52112489Y42139450D01*
X51891713Y41555419D01*
X51891711Y41555413D01*
X51889300Y41541658D01*
X51883105Y41519101D01*
X51859851Y41457786D01*
X51859851Y41457784D01*
X51840693Y41300001D01*
X51840693Y41300000D01*
X51859850Y41142219D01*
X51916214Y40993603D01*
X51923148Y40983558D01*
X52006502Y40862799D01*
X52006504Y40862797D01*
X52006506Y40862795D01*
X52125469Y40757402D01*
X52125471Y40757401D01*
X52266207Y40683537D01*
X52343368Y40664519D01*
X52420528Y40645500D01*
X52420529Y40645500D01*
X52579472Y40645500D01*
X52630911Y40658179D01*
X52733793Y40683537D01*
X52874529Y40757401D01*
X52993498Y40862799D01*
X53083787Y40993605D01*
X53140149Y41142218D01*
X53159307Y41300000D01*
X53140149Y41457782D01*
X53116686Y41519648D01*
X53110315Y41543241D01*
X53108288Y41555411D01*
X53108286Y41555417D01*
X52887511Y42139448D01*
X52879500Y42183294D01*
X52879500Y56376408D01*
X52899185Y56443447D01*
X52951989Y56489202D01*
X53021147Y56499146D01*
X53061126Y56486204D01*
X53066207Y56483537D01*
X53066206Y56483537D01*
X53220528Y56445500D01*
X53220529Y56445500D01*
X53379472Y56445500D01*
X53430911Y56458179D01*
X53533793Y56483537D01*
X53538873Y56486204D01*
X53607380Y56499930D01*
X53672434Y56474439D01*
X53713379Y56417824D01*
X53720500Y56376408D01*
X53720500Y52956279D01*
X53700815Y52889240D01*
X53677252Y52862178D01*
X53357707Y52587964D01*
X53350552Y52581590D01*
X53349892Y52580980D01*
X53342904Y52574273D01*
X53338614Y52569161D01*
X53338357Y52569377D01*
X53323042Y52551855D01*
X53306502Y52537202D01*
X53216214Y52406398D01*
X53159850Y52257782D01*
X53140693Y52100001D01*
X53140693Y52100000D01*
X53159850Y51942219D01*
X53195209Y51848987D01*
X53216213Y51793605D01*
X53306502Y51662799D01*
X53306504Y51662797D01*
X53306506Y51662795D01*
X53425469Y51557402D01*
X53425471Y51557401D01*
X53566207Y51483537D01*
X53643368Y51464519D01*
X53720528Y51445500D01*
X53720529Y51445500D01*
X53879472Y51445500D01*
X53953323Y51463703D01*
X54033793Y51483537D01*
X54038873Y51486204D01*
X54107380Y51499930D01*
X54172434Y51474439D01*
X54213379Y51417824D01*
X54220500Y51376408D01*
X54220500Y50604573D01*
X54200815Y50537534D01*
X54184181Y50516892D01*
X53793577Y50126289D01*
X53773727Y50110168D01*
X53764419Y50104087D01*
X53744715Y50078771D01*
X53734569Y50067279D01*
X53734425Y50067136D01*
X53734417Y50067126D01*
X53722186Y50049998D01*
X53719131Y50045902D01*
X53686625Y50004136D01*
X53682849Y49997159D01*
X53679345Y49989993D01*
X53664247Y49939277D01*
X53662683Y49934396D01*
X53645499Y49884344D01*
X53644195Y49876529D01*
X53643207Y49868603D01*
X53645394Y49815755D01*
X53645500Y49810630D01*
X53645500Y49231205D01*
X53642861Y49205757D01*
X53640581Y49194884D01*
X53644548Y49163061D01*
X53645500Y49147722D01*
X53645500Y49147541D01*
X53648959Y49126809D01*
X53649697Y49121742D01*
X53656247Y49069203D01*
X53658505Y49061617D01*
X53661101Y49054054D01*
X53686279Y49007530D01*
X53688621Y49002980D01*
X53693587Y48992822D01*
X53711874Y48955415D01*
X53716472Y48948976D01*
X53721381Y48942668D01*
X53760323Y48906819D01*
X53763995Y48903295D01*
X54173712Y48493578D01*
X54189836Y48473723D01*
X54195916Y48464418D01*
X54220457Y48445317D01*
X54221222Y48444722D01*
X54232741Y48434549D01*
X54232869Y48434421D01*
X54250002Y48422188D01*
X54254097Y48419135D01*
X54259642Y48414819D01*
X54271155Y48404651D01*
X54684181Y47991625D01*
X54717666Y47930302D01*
X54720500Y47903944D01*
X54720500Y46208557D01*
X54700815Y46141518D01*
X54684181Y46120876D01*
X54356237Y45792933D01*
X54319569Y45767593D01*
X53750481Y45510730D01*
X53742776Y45505322D01*
X53729171Y45497026D01*
X53625472Y45442601D01*
X53625470Y45442599D01*
X53506506Y45337206D01*
X53506500Y45337199D01*
X53416214Y45206398D01*
X53359850Y45057782D01*
X53340693Y44900001D01*
X53340693Y44900000D01*
X53359850Y44742219D01*
X53416214Y44593603D01*
X53431448Y44571533D01*
X53506502Y44462799D01*
X53506504Y44462797D01*
X53506506Y44462795D01*
X53625469Y44357402D01*
X53625471Y44357401D01*
X53766207Y44283537D01*
X53843368Y44264519D01*
X53920528Y44245500D01*
X53920529Y44245500D01*
X54079472Y44245500D01*
X54130911Y44258179D01*
X54233793Y44283537D01*
X54374529Y44357401D01*
X54456590Y44430102D01*
X54519821Y44459823D01*
X54589085Y44450641D01*
X54642389Y44405469D01*
X54661913Y44352234D01*
X54673601Y44255970D01*
X54709922Y44160201D01*
X54716742Y44142218D01*
X54729965Y44107354D01*
X54806094Y43997062D01*
X54820253Y43976550D01*
X54820255Y43976548D01*
X54820257Y43976546D01*
X54939220Y43871153D01*
X54939222Y43871152D01*
X55079958Y43797288D01*
X55114781Y43788705D01*
X55234279Y43759251D01*
X55234280Y43759251D01*
X55393221Y43759251D01*
X55393222Y43759251D01*
X55525172Y43791774D01*
X55594970Y43788705D01*
X55652033Y43748386D01*
X55678238Y43683617D01*
X55665267Y43614962D01*
X55620071Y43565919D01*
X55418877Y43441480D01*
X55418018Y43440741D01*
X55415956Y43439342D01*
X55414979Y43438626D01*
X55414953Y43438661D01*
X55394860Y43425019D01*
X55325474Y43388601D01*
X55325466Y43388596D01*
X55206506Y43283206D01*
X55206500Y43283199D01*
X55116214Y43152398D01*
X55059850Y43003782D01*
X55040693Y42846001D01*
X55040693Y42846000D01*
X55059850Y42688219D01*
X55116214Y42539603D01*
X55179499Y42447919D01*
X55206502Y42408799D01*
X55206504Y42408797D01*
X55206506Y42408795D01*
X55325469Y42303402D01*
X55325471Y42303401D01*
X55466207Y42229537D01*
X55543368Y42210519D01*
X55620528Y42191500D01*
X55620529Y42191500D01*
X55779472Y42191500D01*
X55856632Y42210519D01*
X55933793Y42229537D01*
X56038874Y42284689D01*
X56107382Y42298414D01*
X56172436Y42272921D01*
X56213380Y42216306D01*
X56220500Y42174892D01*
X56220500Y22608556D01*
X56200815Y22541517D01*
X56184181Y22520875D01*
X55659125Y21995819D01*
X55597802Y21962334D01*
X55571444Y21959500D01*
X42986302Y21959500D01*
X42932253Y21971899D01*
X42909610Y21982865D01*
X42632783Y22116934D01*
X42062656Y22393050D01*
X42010900Y22439988D01*
X41992737Y22507455D01*
X42013932Y22574032D01*
X42029019Y22592327D01*
X42605425Y23168733D01*
X42625279Y23184855D01*
X42634582Y23190932D01*
X42654276Y23216236D01*
X42664459Y23227766D01*
X42664581Y23227887D01*
X42668485Y23233356D01*
X42676811Y23245016D01*
X42679876Y23249127D01*
X42712375Y23290881D01*
X42712376Y23290883D01*
X42716159Y23297874D01*
X42719651Y23305018D01*
X42719651Y23305019D01*
X42719653Y23305021D01*
X42734750Y23355737D01*
X42736303Y23360586D01*
X42753500Y23410673D01*
X42753500Y23410677D01*
X42753501Y23410679D01*
X42754802Y23418479D01*
X42755792Y23426413D01*
X42753606Y23479273D01*
X42753500Y23484397D01*
X42753500Y26865445D01*
X42773185Y26932484D01*
X42789814Y26953121D01*
X45235425Y29398733D01*
X45255279Y29414855D01*
X45264582Y29420932D01*
X45284276Y29446236D01*
X45294459Y29457766D01*
X45294581Y29457887D01*
X45304952Y29472413D01*
X45306811Y29475016D01*
X45309876Y29479127D01*
X45342375Y29520881D01*
X45342376Y29520883D01*
X45346159Y29527874D01*
X45349651Y29535018D01*
X45349651Y29535019D01*
X45349653Y29535021D01*
X45364750Y29585737D01*
X45366303Y29590586D01*
X45383500Y29640673D01*
X45383500Y29640677D01*
X45383501Y29640679D01*
X45384802Y29648479D01*
X45385792Y29656413D01*
X45383606Y29709273D01*
X45383500Y29714397D01*
X45383500Y29995000D01*
X47990693Y29995000D01*
X48009850Y29837219D01*
X48066214Y29688603D01*
X48091668Y29651727D01*
X48156502Y29557799D01*
X48156504Y29557797D01*
X48156506Y29557795D01*
X48275469Y29452402D01*
X48287233Y29446228D01*
X48416207Y29378537D01*
X48493368Y29359519D01*
X48570528Y29340500D01*
X48570529Y29340500D01*
X48729472Y29340500D01*
X48780911Y29353179D01*
X48883793Y29378537D01*
X49024529Y29452401D01*
X49143498Y29557799D01*
X49208335Y29651735D01*
X49222694Y29668964D01*
X49819072Y30265342D01*
X49831461Y30275265D01*
X49831289Y30275472D01*
X49837298Y30280445D01*
X49837303Y30280447D01*
X49884149Y30330335D01*
X49886798Y30333068D01*
X49906638Y30352906D01*
X49909183Y30356187D01*
X49916776Y30365078D01*
X49918239Y30366636D01*
X49947217Y30397494D01*
X49957102Y30415476D01*
X49967773Y30431722D01*
X49980349Y30447933D01*
X49998011Y30488750D01*
X50003142Y30499224D01*
X50024569Y30538197D01*
X50029670Y30558069D01*
X50035973Y30576474D01*
X50042093Y30590616D01*
X50044117Y30595292D01*
X50051075Y30639229D01*
X50053442Y30650655D01*
X50064500Y30693718D01*
X50064500Y30714226D01*
X50066027Y30733626D01*
X50069235Y30753879D01*
X50066722Y30780463D01*
X50065050Y30798152D01*
X50064500Y30809821D01*
X50064500Y33237302D01*
X50068105Y33266985D01*
X50069145Y33271209D01*
X50069149Y33271218D01*
X50088307Y33429000D01*
X50069149Y33586782D01*
X50012787Y33735395D01*
X49922498Y33866201D01*
X49922495Y33866204D01*
X49922493Y33866206D01*
X49803530Y33971599D01*
X49662791Y34045464D01*
X49508472Y34083500D01*
X49508471Y34083500D01*
X49349529Y34083500D01*
X49349528Y34083500D01*
X49195208Y34045464D01*
X49054469Y33971599D01*
X48935506Y33866206D01*
X48935500Y33866199D01*
X48845214Y33735398D01*
X48788850Y33586782D01*
X48769693Y33429001D01*
X48769693Y33429000D01*
X48788850Y33271223D01*
X48789895Y33266985D01*
X48793500Y33237302D01*
X48793500Y31088596D01*
X48773815Y31021557D01*
X48757181Y31000915D01*
X48327530Y30571264D01*
X48297477Y30549150D01*
X48275473Y30537602D01*
X48275470Y30537599D01*
X48156502Y30432202D01*
X48156500Y30432199D01*
X48066214Y30301398D01*
X48009850Y30152782D01*
X47990693Y29995001D01*
X47990693Y29995000D01*
X45383500Y29995000D01*
X45383500Y36391444D01*
X45403185Y36458483D01*
X45419814Y36479122D01*
X45531427Y36590735D01*
X45551282Y36606857D01*
X45560582Y36612932D01*
X45580273Y36638233D01*
X45590449Y36649756D01*
X45590580Y36649886D01*
X45602822Y36667034D01*
X45605852Y36671099D01*
X45638375Y36712881D01*
X45638375Y36712884D01*
X45642158Y36719872D01*
X45645649Y36727016D01*
X45645653Y36727020D01*
X45660763Y36777777D01*
X45662300Y36782575D01*
X45679500Y36832673D01*
X45679500Y36832677D01*
X45680803Y36840486D01*
X45681792Y36848411D01*
X45679606Y36901262D01*
X45679500Y36906387D01*
X45679500Y37516707D01*
X45687511Y37560553D01*
X45745808Y37714771D01*
X45908287Y38144586D01*
X45910695Y38158331D01*
X45916892Y38180896D01*
X45940148Y38242216D01*
X45940147Y38242216D01*
X45940149Y38242218D01*
X45959307Y38400000D01*
X45940149Y38557782D01*
X45883787Y38706395D01*
X45793498Y38837201D01*
X45793495Y38837204D01*
X45793493Y38837206D01*
X45674530Y38942599D01*
X45533791Y39016464D01*
X45379472Y39054500D01*
X45379471Y39054500D01*
X45220529Y39054500D01*
X45220528Y39054500D01*
X45066209Y39016464D01*
X45066207Y39016464D01*
X45066207Y39016463D01*
X45065120Y39015893D01*
X45064236Y39015716D01*
X45059199Y39013805D01*
X45058881Y39014643D01*
X44996613Y39002171D01*
X44931561Y39027665D01*
X44890619Y39084283D01*
X44883500Y39125692D01*
X44883500Y42992616D01*
X44903185Y43059655D01*
X44919813Y43080292D01*
X45045486Y43205965D01*
X45081844Y43231161D01*
X45092961Y43236215D01*
X45650198Y43489546D01*
X45658016Y43495058D01*
X45671824Y43503498D01*
X45774529Y43557401D01*
X45893498Y43662799D01*
X45983787Y43793605D01*
X46040149Y43942218D01*
X46059307Y44100000D01*
X46040149Y44257782D01*
X45983787Y44406395D01*
X45893498Y44537201D01*
X45893495Y44537204D01*
X45893493Y44537206D01*
X45774530Y44642599D01*
X45633791Y44716464D01*
X45479472Y44754500D01*
X45479471Y44754500D01*
X45320529Y44754500D01*
X45320528Y44754500D01*
X45166206Y44716464D01*
X45166203Y44716462D01*
X45161120Y44713794D01*
X45092611Y44700072D01*
X45027559Y44725567D01*
X44986618Y44782185D01*
X44979500Y44823593D01*
X44979500Y44895707D01*
X44987511Y44939553D01*
X45022485Y45032072D01*
X45208287Y45523586D01*
X45210695Y45537331D01*
X45216892Y45559896D01*
X45240148Y45621216D01*
X45240147Y45621216D01*
X45240149Y45621218D01*
X45259307Y45779000D01*
X45240149Y45936782D01*
X45183787Y46085395D01*
X45093498Y46216201D01*
X45093495Y46216204D01*
X45093493Y46216206D01*
X44974530Y46321599D01*
X44833791Y46395464D01*
X44679472Y46433500D01*
X44679471Y46433500D01*
X44520529Y46433500D01*
X44520528Y46433500D01*
X44366206Y46395464D01*
X44366203Y46395462D01*
X44361120Y46392794D01*
X44292611Y46379072D01*
X44227559Y46404567D01*
X44186618Y46461185D01*
X44179500Y46502593D01*
X44179500Y60116707D01*
X44187511Y60160553D01*
X44216151Y60236316D01*
X44408287Y60744586D01*
X44410695Y60758331D01*
X44416892Y60780896D01*
X44430978Y60818036D01*
X44440149Y60842218D01*
X44459307Y61000000D01*
X44458195Y61009155D01*
X44440149Y61157782D01*
X44431370Y61180931D01*
X44383787Y61306395D01*
X44293498Y61437201D01*
X44293495Y61437204D01*
X44293493Y61437206D01*
X44174530Y61542599D01*
X44033791Y61616464D01*
X43879472Y61654500D01*
X43879471Y61654500D01*
X43720529Y61654500D01*
X43720528Y61654500D01*
X43566208Y61616464D01*
X43425469Y61542599D01*
X43306506Y61437206D01*
X43306500Y61437199D01*
X43216214Y61306398D01*
X43159850Y61157782D01*
X43140693Y61000001D01*
X43140693Y61000000D01*
X43159850Y60842222D01*
X43159852Y60842213D01*
X43183311Y60780356D01*
X43189682Y60756769D01*
X43191711Y60744590D01*
X43191712Y60744586D01*
X43412489Y60160556D01*
X43420500Y60116710D01*
X43420500Y45623593D01*
X43400815Y45556554D01*
X43348011Y45510799D01*
X43278853Y45500855D01*
X43238880Y45513794D01*
X43233796Y45516462D01*
X43233793Y45516464D01*
X43079472Y45554500D01*
X43079471Y45554500D01*
X42920529Y45554500D01*
X42920528Y45554500D01*
X42766208Y45516464D01*
X42625469Y45442599D01*
X42506506Y45337206D01*
X42506500Y45337199D01*
X42416214Y45206398D01*
X42359850Y45057782D01*
X42354778Y45016007D01*
X42327155Y44951829D01*
X42269220Y44912773D01*
X42199367Y44911240D01*
X42139774Y44947715D01*
X42120684Y44975679D01*
X42086389Y45044554D01*
X42057450Y45082876D01*
X41958675Y45213674D01*
X41802066Y45356441D01*
X41802065Y45356442D01*
X41715072Y45410306D01*
X41621886Y45468005D01*
X41621875Y45468010D01*
X41609083Y45472966D01*
X41553682Y45515540D01*
X41530094Y45581308D01*
X41533071Y45616540D01*
X41541030Y45650945D01*
X41110001Y46081974D01*
X41110000Y46081974D01*
X40678968Y45650945D01*
X40686928Y45616540D01*
X40682860Y45546789D01*
X40641728Y45490309D01*
X40610918Y45472967D01*
X40598127Y45468012D01*
X40598113Y45468005D01*
X40417933Y45356441D01*
X40261324Y45213674D01*
X40133609Y45044553D01*
X40039151Y44854855D01*
X40039148Y44854848D01*
X40036781Y44846527D01*
X40034651Y44839779D01*
X39963317Y44634460D01*
X39544356Y43428586D01*
X39514905Y43381601D01*
X38591181Y42457876D01*
X38529858Y42424391D01*
X38460167Y42429375D01*
X38404233Y42471247D01*
X38379816Y42536711D01*
X38379500Y42545557D01*
X38379500Y46201445D01*
X38399185Y46268484D01*
X38415814Y46289121D01*
X39541115Y47414423D01*
X39602436Y47447906D01*
X39672128Y47442922D01*
X39728061Y47401050D01*
X39752478Y47335586D01*
X39749000Y47296301D01*
X39727330Y47210726D01*
X39708212Y46980006D01*
X39708212Y46979995D01*
X39727330Y46749277D01*
X39778638Y46546665D01*
X40140084Y46908111D01*
X40610000Y46908111D01*
X40650507Y46770156D01*
X40728239Y46649202D01*
X40836900Y46555048D01*
X40967685Y46495320D01*
X41074237Y46480000D01*
X41145763Y46480000D01*
X41252315Y46495320D01*
X41383100Y46555048D01*
X41491761Y46649202D01*
X41569493Y46770156D01*
X41610000Y46908111D01*
X41610000Y46980000D01*
X42008026Y46980000D01*
X42441360Y46546666D01*
X42492668Y46749273D01*
X42492670Y46749282D01*
X42511788Y46979995D01*
X42511788Y46980006D01*
X42492670Y47210719D01*
X42492668Y47210728D01*
X42441360Y47413336D01*
X42008026Y46980001D01*
X42008026Y46980000D01*
X41610000Y46980000D01*
X41610000Y47051889D01*
X41569493Y47189844D01*
X41491761Y47310798D01*
X41383100Y47404952D01*
X41252315Y47464680D01*
X41145763Y47480000D01*
X41074237Y47480000D01*
X40967685Y47464680D01*
X40836900Y47404952D01*
X40728239Y47310798D01*
X40650507Y47189844D01*
X40610000Y47051889D01*
X40610000Y46908111D01*
X40140084Y46908111D01*
X41110000Y47878026D01*
X41541029Y48309057D01*
X41533070Y48343460D01*
X41537137Y48413211D01*
X41578269Y48469691D01*
X41609087Y48487037D01*
X41621877Y48491992D01*
X41621876Y48491992D01*
X41621885Y48491995D01*
X41802065Y48603558D01*
X41958677Y48746329D01*
X42086389Y48915446D01*
X42180850Y49105150D01*
X42238845Y49308982D01*
X42258399Y49520000D01*
X42238845Y49731018D01*
X42180850Y49934850D01*
X42086389Y50124554D01*
X41958677Y50293671D01*
X41958675Y50293674D01*
X41802066Y50436441D01*
X41802065Y50436442D01*
X41700223Y50499500D01*
X41621886Y50548005D01*
X41621884Y50548006D01*
X41451793Y50613899D01*
X41424274Y50624560D01*
X41276984Y50652093D01*
X41222810Y50662220D01*
X41160529Y50693888D01*
X41125256Y50754201D01*
X41128190Y50824009D01*
X41168399Y50881149D01*
X41212510Y50903614D01*
X41343607Y50939904D01*
X41353906Y50942287D01*
X41424271Y50955439D01*
X41424279Y50955442D01*
X41479960Y50977014D01*
X41491653Y50980887D01*
X41506699Y50985051D01*
X41521769Y50989720D01*
X41523114Y50990182D01*
X41537853Y50995751D01*
X41539752Y50997018D01*
X41563738Y51009470D01*
X41621885Y51031995D01*
X41802065Y51143558D01*
X41958677Y51286329D01*
X42086389Y51455446D01*
X42180850Y51645150D01*
X42238845Y51848982D01*
X42258399Y52060000D01*
X42238845Y52271018D01*
X42180850Y52474850D01*
X42086389Y52664554D01*
X41958677Y52833671D01*
X41958675Y52833674D01*
X41802066Y52976441D01*
X41802065Y52976442D01*
X41679076Y53052594D01*
X41621886Y53088005D01*
X41621884Y53088006D01*
X41477392Y53143982D01*
X41424274Y53164560D01*
X41215961Y53203500D01*
X41004039Y53203500D01*
X40795726Y53164560D01*
X40795723Y53164560D01*
X40795723Y53164559D01*
X40598115Y53088006D01*
X40598113Y53088005D01*
X40417933Y52976441D01*
X40261324Y52833674D01*
X40133612Y52664557D01*
X40133607Y52664549D01*
X40053807Y52504288D01*
X40046063Y52490900D01*
X40044261Y52488191D01*
X39488592Y51138776D01*
X39461614Y51098310D01*
X37591181Y49227876D01*
X37529858Y49194391D01*
X37460166Y49199375D01*
X37404233Y49241247D01*
X37379816Y49306711D01*
X37379500Y49315557D01*
X37379500Y54600000D01*
X39961601Y54600000D01*
X39981154Y54388987D01*
X39981154Y54388985D01*
X39981155Y54388982D01*
X40039150Y54185150D01*
X40039151Y54185147D01*
X40133611Y53995446D01*
X40261324Y53826327D01*
X40337037Y53757306D01*
X40417935Y53683558D01*
X40555167Y53598588D01*
X40585047Y53580086D01*
X40598115Y53571995D01*
X40795726Y53495440D01*
X41004039Y53456500D01*
X41004042Y53456500D01*
X41215958Y53456500D01*
X41215961Y53456500D01*
X41424274Y53495440D01*
X41621885Y53571995D01*
X41802065Y53683558D01*
X41958677Y53826329D01*
X42086389Y53995446D01*
X42180850Y54185150D01*
X42238845Y54388982D01*
X42258399Y54600000D01*
X42238845Y54811018D01*
X42180850Y55014850D01*
X42086389Y55204554D01*
X41958677Y55373671D01*
X41958675Y55373674D01*
X41802066Y55516441D01*
X41802065Y55516442D01*
X41647941Y55611872D01*
X41621886Y55628005D01*
X41621884Y55628006D01*
X41439715Y55698578D01*
X41424274Y55704560D01*
X41215961Y55743500D01*
X41004039Y55743500D01*
X40795726Y55704560D01*
X40795723Y55704560D01*
X40795723Y55704559D01*
X40598115Y55628006D01*
X40598113Y55628005D01*
X40417933Y55516441D01*
X40261324Y55373674D01*
X40133611Y55204555D01*
X40039151Y55014854D01*
X39981154Y54811014D01*
X39961601Y54600001D01*
X39961601Y54600000D01*
X37379500Y54600000D01*
X37379500Y59784338D01*
X37399185Y59851377D01*
X37415819Y59872019D01*
X39347981Y61804181D01*
X39409304Y61837666D01*
X39435662Y61840500D01*
X39486099Y61840500D01*
X39549525Y61823051D01*
X39701189Y61732772D01*
X40399017Y61317384D01*
X40413226Y61306847D01*
X40413355Y61307016D01*
X40417928Y61303563D01*
X40417932Y61303561D01*
X40417935Y61303558D01*
X40594556Y61194199D01*
X40641191Y61142171D01*
X40652295Y61073189D01*
X40624342Y61009155D01*
X40569544Y60971492D01*
X40546916Y60963724D01*
X40546906Y60963720D01*
X40343292Y60853529D01*
X40343287Y60853526D01*
X40321985Y60836945D01*
X40256991Y60811303D01*
X40188451Y60824870D01*
X40143774Y60864359D01*
X40126885Y60888827D01*
X40093495Y60937201D01*
X40093492Y60937204D01*
X40093490Y60937206D01*
X39974527Y61042599D01*
X39833788Y61116464D01*
X39679469Y61154500D01*
X39679468Y61154500D01*
X39520526Y61154500D01*
X39520525Y61154500D01*
X39366205Y61116464D01*
X39225466Y61042599D01*
X39106503Y60937206D01*
X39106497Y60937199D01*
X39016211Y60806398D01*
X38959847Y60657782D01*
X38940690Y60500001D01*
X38940690Y60500000D01*
X38946294Y60453842D01*
X38946722Y60445704D01*
X38946725Y60445704D01*
X38947225Y60439640D01*
X38948930Y60430298D01*
X38950041Y60422984D01*
X38959847Y60342220D01*
X38959849Y60342212D01*
X38965777Y60326582D01*
X38971820Y60304874D01*
X39089482Y59660153D01*
X39091497Y59637891D01*
X39091497Y58718002D01*
X39088663Y58691645D01*
X39087577Y58686656D01*
X39087577Y58686652D01*
X39091181Y58636262D01*
X39091497Y58627415D01*
X39091497Y58613635D01*
X39093457Y58600001D01*
X39094402Y58591210D01*
X39098008Y58540803D01*
X39098010Y58540793D01*
X39099796Y58536005D01*
X39106350Y58510329D01*
X39107078Y58505269D01*
X39116400Y58484857D01*
X39128064Y58459315D01*
X39131449Y58451142D01*
X39149108Y58403799D01*
X39151796Y58400208D01*
X39152172Y58399706D01*
X39165699Y58376907D01*
X39167819Y58372263D01*
X39167825Y58372255D01*
X39200899Y58334085D01*
X39206452Y58327195D01*
X39214428Y58316541D01*
X39214717Y58316155D01*
X39224470Y58306402D01*
X39230492Y58299933D01*
X39263572Y58261756D01*
X39263575Y58261754D01*
X39263576Y58261753D01*
X39267874Y58258991D01*
X39288515Y58242357D01*
X39432673Y58098199D01*
X39458736Y58059897D01*
X40046055Y56707002D01*
X40048931Y56702810D01*
X40057681Y56687932D01*
X40133607Y56535452D01*
X40133612Y56535444D01*
X40261324Y56366327D01*
X40374533Y56263124D01*
X40417935Y56223558D01*
X40512973Y56164713D01*
X40597848Y56112160D01*
X40598115Y56111995D01*
X40795726Y56035440D01*
X41004039Y55996500D01*
X41004042Y55996500D01*
X41215958Y55996500D01*
X41215961Y55996500D01*
X41424274Y56035440D01*
X41621885Y56111995D01*
X41802065Y56223558D01*
X41958677Y56366329D01*
X42086389Y56535446D01*
X42180850Y56725150D01*
X42238845Y56928982D01*
X42258399Y57140000D01*
X42238845Y57351018D01*
X42180850Y57554850D01*
X42086389Y57744554D01*
X41958677Y57913671D01*
X41958675Y57913674D01*
X41802066Y58056441D01*
X41802065Y58056442D01*
X41752372Y58087211D01*
X41621885Y58168006D01*
X41609081Y58172966D01*
X41553681Y58215541D01*
X41530093Y58281309D01*
X41533070Y58316541D01*
X41541029Y58350946D01*
X40299655Y59592320D01*
X40291032Y59608111D01*
X40610000Y59608111D01*
X40650507Y59470156D01*
X40728239Y59349202D01*
X40836900Y59255048D01*
X40967685Y59195320D01*
X41074237Y59180000D01*
X41145763Y59180000D01*
X41252315Y59195320D01*
X41383100Y59255048D01*
X41491761Y59349202D01*
X41569493Y59470156D01*
X41610000Y59608111D01*
X41610000Y59680000D01*
X42008026Y59680000D01*
X42441360Y59246666D01*
X42492668Y59449273D01*
X42492670Y59449282D01*
X42511788Y59679995D01*
X42511788Y59680006D01*
X42492670Y59910719D01*
X42492668Y59910728D01*
X42441360Y60113336D01*
X42008026Y59680001D01*
X42008026Y59680000D01*
X41610000Y59680000D01*
X41610000Y59751889D01*
X41569493Y59889844D01*
X41491761Y60010798D01*
X41383100Y60104952D01*
X41252315Y60164680D01*
X41145763Y60180000D01*
X41074237Y60180000D01*
X40967685Y60164680D01*
X40836900Y60104952D01*
X40728239Y60010798D01*
X40650507Y59889844D01*
X40610000Y59751889D01*
X40610000Y59608111D01*
X40291032Y59608111D01*
X40266170Y59653643D01*
X40271154Y59723335D01*
X40299655Y59767682D01*
X41110000Y60578026D01*
X41541029Y61009057D01*
X41533070Y61043460D01*
X41537137Y61113211D01*
X41578269Y61169691D01*
X41609087Y61187038D01*
X41621885Y61191995D01*
X41802065Y61303558D01*
X41958677Y61446329D01*
X42086389Y61615446D01*
X42180850Y61805150D01*
X42238845Y62008982D01*
X42252636Y62157805D01*
X46406825Y62157805D01*
X46416610Y61971080D01*
X46416611Y61971078D01*
X46465006Y61790468D01*
X46549890Y61623871D01*
X46638059Y61514992D01*
X46638066Y61514984D01*
X47174181Y60978869D01*
X47207666Y60917546D01*
X47210500Y60891188D01*
X47210500Y43553380D01*
X47217464Y43487125D01*
X47225145Y43414042D01*
X47225146Y43414040D01*
X47282925Y43236214D01*
X47376413Y43074287D01*
X47501530Y42935331D01*
X47652795Y42825430D01*
X47652796Y42825430D01*
X47652800Y42825427D01*
X47754996Y42779927D01*
X47823609Y42749377D01*
X47823615Y42749375D01*
X48006510Y42710500D01*
X48006511Y42710500D01*
X48193489Y42710500D01*
X48193490Y42710500D01*
X48376385Y42749375D01*
X48376387Y42749377D01*
X48376390Y42749377D01*
X48399501Y42759668D01*
X48547200Y42825427D01*
X48698470Y42935331D01*
X48823585Y43074285D01*
X48917075Y43236215D01*
X48974855Y43414044D01*
X48989500Y43553380D01*
X48989500Y61231229D01*
X48991027Y61250629D01*
X48992669Y61260997D01*
X48993174Y61264183D01*
X48989670Y61331050D01*
X48989500Y61337539D01*
X48989500Y61357615D01*
X48987402Y61377566D01*
X48986892Y61384046D01*
X48985641Y61407923D01*
X48983389Y61450908D01*
X48979836Y61464164D01*
X48976289Y61483299D01*
X48974855Y61496949D01*
X48954160Y61560638D01*
X48952321Y61566850D01*
X48939300Y61615446D01*
X48934994Y61631517D01*
X48928759Y61643752D01*
X48921317Y61661720D01*
X48917075Y61674778D01*
X48883592Y61732772D01*
X48880494Y61738478D01*
X48850106Y61798120D01*
X48841470Y61808784D01*
X48830447Y61824822D01*
X48823584Y61836709D01*
X48823583Y61836711D01*
X48778786Y61886463D01*
X48774571Y61891398D01*
X48761942Y61906993D01*
X48761932Y61907004D01*
X48747744Y61921192D01*
X48743275Y61925901D01*
X48698470Y61975662D01*
X48698468Y61975664D01*
X48687358Y61983736D01*
X48672565Y61996371D01*
X47896009Y62772927D01*
X47896001Y62772934D01*
X47787122Y62861103D01*
X47620525Y62945987D01*
X47439915Y62994382D01*
X47439913Y62994383D01*
X47253188Y63004168D01*
X47253187Y63004167D01*
X47068515Y62974919D01*
X47068512Y62974918D01*
X46893951Y62907910D01*
X46737137Y62806074D01*
X46604919Y62673856D01*
X46503083Y62517042D01*
X46436075Y62342481D01*
X46436074Y62342478D01*
X46406826Y62157806D01*
X46406825Y62157805D01*
X42252636Y62157805D01*
X42258399Y62220000D01*
X42238845Y62431018D01*
X42180850Y62634850D01*
X42086389Y62824554D01*
X41972888Y62974853D01*
X41958675Y62993674D01*
X41802066Y63136441D01*
X41802065Y63136442D01*
X41733449Y63178928D01*
X41621886Y63248005D01*
X41621884Y63248006D01*
X41424274Y63324560D01*
X41411977Y63326859D01*
X41349697Y63358529D01*
X41314426Y63418843D01*
X41317362Y63488651D01*
X41357573Y63545790D01*
X41391433Y63564928D01*
X41508787Y63608688D01*
X41552107Y63616501D01*
X42024064Y63616501D01*
X42024066Y63616501D01*
X42098301Y63631266D01*
X42182484Y63687516D01*
X42238734Y63771699D01*
X42253500Y63845933D01*
X42253499Y65382197D01*
X42273184Y65449235D01*
X42325987Y65494990D01*
X42395146Y65504934D01*
X42453662Y65480049D01*
G37*
%TD.AperFunction*%
%TA.AperFunction,Conductor*%
G36*
X44039834Y31490627D02*
G01*
X44095767Y31448755D01*
X44120184Y31383291D01*
X44120500Y31374445D01*
X44120500Y30321322D01*
X44100815Y30254283D01*
X44084181Y30233641D01*
X42240470Y28389931D01*
X42179147Y28356446D01*
X42109455Y28361430D01*
X42053522Y28403302D01*
X42029105Y28468766D01*
X42043957Y28537039D01*
X42053832Y28552334D01*
X42086389Y28595446D01*
X42180850Y28785150D01*
X42183222Y28793490D01*
X42185350Y28800233D01*
X42675642Y30211416D01*
X42705090Y30258398D01*
X43908820Y31462128D01*
X43970142Y31495611D01*
X44039834Y31490627D01*
G37*
%TD.AperFunction*%
%TA.AperFunction,Conductor*%
G36*
X66329703Y39411908D02*
G01*
X66336181Y39405876D01*
X67514622Y38227435D01*
X67527257Y38212642D01*
X67535329Y38201532D01*
X67535331Y38201530D01*
X67585092Y38156725D01*
X67589801Y38152256D01*
X67603989Y38138068D01*
X67604000Y38138058D01*
X67619595Y38125429D01*
X67624530Y38121214D01*
X67674282Y38076417D01*
X67674283Y38076417D01*
X67674285Y38076415D01*
X67685152Y38070142D01*
X67686171Y38069553D01*
X67702209Y38058530D01*
X67712873Y38049894D01*
X67712875Y38049893D01*
X67772526Y38019500D01*
X67778221Y38016408D01*
X67836215Y37982925D01*
X67849273Y37978683D01*
X67867241Y37971241D01*
X67879476Y37965006D01*
X67944156Y37947676D01*
X67950355Y37945840D01*
X68014044Y37925145D01*
X68027694Y37923711D01*
X68046829Y37920164D01*
X68060085Y37916611D01*
X68126118Y37913152D01*
X68126947Y37913108D01*
X68133422Y37912599D01*
X68144450Y37911439D01*
X68153379Y37910500D01*
X68153380Y37910500D01*
X68173455Y37910500D01*
X68179944Y37910330D01*
X68246810Y37906826D01*
X68260366Y37908974D01*
X68279764Y37910500D01*
X69876000Y37910500D01*
X69943039Y37890815D01*
X69988794Y37838011D01*
X70000000Y37786500D01*
X70000000Y33809306D01*
X69980315Y33742267D01*
X69963681Y33721625D01*
X66336181Y30094125D01*
X66274858Y30060640D01*
X66205166Y30065624D01*
X66149233Y30107496D01*
X66124816Y30172960D01*
X66124500Y30181806D01*
X66124500Y39318195D01*
X66144185Y39385234D01*
X66196989Y39430989D01*
X66266147Y39440933D01*
X66329703Y39411908D01*
G37*
%TD.AperFunction*%
%TA.AperFunction,Conductor*%
G36*
X43539834Y33530627D02*
G01*
X43595767Y33488755D01*
X43620184Y33423291D01*
X43620500Y33414445D01*
X43620500Y32298557D01*
X43600815Y32231518D01*
X43584181Y32210876D01*
X42168399Y30795095D01*
X42121413Y30765644D01*
X42073527Y30749007D01*
X42003741Y30745600D01*
X41943190Y30780463D01*
X41911101Y30842528D01*
X41917660Y30912089D01*
X41949295Y30957778D01*
X41958677Y30966329D01*
X42086389Y31135446D01*
X42180850Y31325150D01*
X42183222Y31333490D01*
X42185350Y31340233D01*
X42675642Y32751416D01*
X42705090Y32798398D01*
X43408820Y33502127D01*
X43470142Y33535611D01*
X43539834Y33530627D01*
G37*
%TD.AperFunction*%
%TA.AperFunction,Conductor*%
G36*
X40273596Y37776799D02*
G01*
X40305755Y37714771D01*
X40299275Y37645203D01*
X40267595Y37599390D01*
X40261324Y37593674D01*
X40133609Y37424553D01*
X40039154Y37234861D01*
X40039152Y37234854D01*
X40039150Y37234850D01*
X40036923Y37227025D01*
X40034750Y37220155D01*
X39543035Y35810008D01*
X39513630Y35763155D01*
X38693181Y34942705D01*
X38631858Y34909220D01*
X38562167Y34914204D01*
X38506233Y34956076D01*
X38481816Y35021540D01*
X38481500Y35030386D01*
X38481500Y36140616D01*
X38501185Y36207655D01*
X38517819Y36228297D01*
X39264594Y36975072D01*
X40053157Y37763636D01*
X40100005Y37793038D01*
X40143225Y37808109D01*
X40213006Y37811594D01*
X40273596Y37776799D01*
G37*
%TD.AperFunction*%
%TA.AperFunction,Conductor*%
G36*
X42463289Y44427150D02*
G01*
X42489775Y44385176D01*
X42540842Y44250088D01*
X42597578Y44100000D01*
X42612489Y44060557D01*
X42620500Y44016710D01*
X42620500Y36378557D01*
X42600815Y36311518D01*
X42584181Y36290876D01*
X42168399Y35875095D01*
X42121413Y35845644D01*
X42073527Y35829007D01*
X42003741Y35825600D01*
X41943190Y35860463D01*
X41911101Y35922528D01*
X41917660Y35992089D01*
X41949295Y36037778D01*
X41958677Y36046329D01*
X42086389Y36215446D01*
X42180850Y36405150D01*
X42238845Y36608982D01*
X42258399Y36820000D01*
X42255766Y36848409D01*
X42250394Y36906387D01*
X42238845Y37031018D01*
X42180850Y37234850D01*
X42086389Y37424554D01*
X41983687Y37560553D01*
X41958675Y37593674D01*
X41802066Y37736441D01*
X41802065Y37736442D01*
X41680691Y37811594D01*
X41621886Y37848005D01*
X41621884Y37848006D01*
X41470048Y37906827D01*
X41424274Y37924560D01*
X41265617Y37954218D01*
X41203338Y37985885D01*
X41168065Y38046197D01*
X41170999Y38116006D01*
X41211208Y38173146D01*
X41247577Y38193192D01*
X41325983Y38220532D01*
X41523960Y38289566D01*
X41530933Y38292110D01*
X41531547Y38292344D01*
X41538174Y38294975D01*
X41543306Y38298397D01*
X41567288Y38310845D01*
X41621885Y38331995D01*
X41802065Y38443558D01*
X41958677Y38586329D01*
X42086389Y38755446D01*
X42180850Y38945150D01*
X42238845Y39148982D01*
X42258399Y39360000D01*
X42238845Y39571018D01*
X42180850Y39774850D01*
X42086389Y39964554D01*
X41958677Y40133671D01*
X41958675Y40133674D01*
X41802066Y40276441D01*
X41802065Y40276442D01*
X41681655Y40350997D01*
X41621886Y40388005D01*
X41621884Y40388006D01*
X41477392Y40443982D01*
X41424274Y40464560D01*
X41264937Y40494345D01*
X41202658Y40526012D01*
X41167385Y40586324D01*
X41170319Y40656132D01*
X41210528Y40713273D01*
X41247029Y40733365D01*
X41523667Y40829478D01*
X41523703Y40829491D01*
X41530693Y40832033D01*
X41530722Y40832044D01*
X41531348Y40832282D01*
X41538169Y40834987D01*
X41543250Y40838375D01*
X41567235Y40850824D01*
X41589962Y40859628D01*
X41621885Y40871995D01*
X41802065Y40983558D01*
X41958677Y41126329D01*
X42086389Y41295446D01*
X42180850Y41485150D01*
X42238845Y41688982D01*
X42258399Y41900000D01*
X42238845Y42111018D01*
X42180850Y42314850D01*
X42086389Y42504554D01*
X41958677Y42673671D01*
X41958675Y42673674D01*
X41802066Y42816441D01*
X41802065Y42816442D01*
X41681844Y42890880D01*
X41621886Y42928005D01*
X41621884Y42928006D01*
X41426282Y43003782D01*
X41424274Y43004560D01*
X41264937Y43034345D01*
X41202658Y43066012D01*
X41167385Y43126324D01*
X41170319Y43196132D01*
X41210528Y43253273D01*
X41247029Y43273365D01*
X41275334Y43283199D01*
X41523667Y43369478D01*
X41523703Y43369491D01*
X41530693Y43372033D01*
X41530722Y43372044D01*
X41531348Y43372282D01*
X41538169Y43374987D01*
X41543250Y43378375D01*
X41567235Y43390824D01*
X41621877Y43411992D01*
X41621876Y43411992D01*
X41621885Y43411995D01*
X41802065Y43523558D01*
X41936794Y43646381D01*
X41958675Y43666327D01*
X41971732Y43683617D01*
X42086389Y43835446D01*
X42180850Y44025150D01*
X42238845Y44228982D01*
X42250316Y44352773D01*
X42276101Y44417707D01*
X42332901Y44458395D01*
X42402682Y44461915D01*
X42463289Y44427150D01*
G37*
%TD.AperFunction*%
%TA.AperFunction,Conductor*%
G36*
X40276811Y40319541D02*
G01*
X40308901Y40257477D01*
X40302342Y40187916D01*
X40270712Y40142231D01*
X40261323Y40133672D01*
X40133609Y39964553D01*
X40039154Y39774861D01*
X40039152Y39774854D01*
X40039150Y39774850D01*
X40036923Y39767025D01*
X40034750Y39760155D01*
X39543035Y38350007D01*
X39513630Y38303154D01*
X37889181Y36678705D01*
X37827858Y36645220D01*
X37758166Y36650204D01*
X37702233Y36692076D01*
X37677816Y36757540D01*
X37677500Y36766386D01*
X37677500Y37879444D01*
X37697185Y37946483D01*
X37713819Y37967125D01*
X38882081Y39135387D01*
X40051603Y40304910D01*
X40098583Y40334358D01*
X40146477Y40350998D01*
X40216261Y40354404D01*
X40276811Y40319541D01*
G37*
%TD.AperFunction*%
%TA.AperFunction,Conductor*%
G36*
X40377704Y50652093D02*
G01*
X40435888Y50613410D01*
X40463922Y50549411D01*
X40452906Y50480416D01*
X40421138Y50441437D01*
X40422171Y50440304D01*
X40261324Y50293674D01*
X40133609Y50124553D01*
X40039151Y49934855D01*
X40039148Y49934848D01*
X40036781Y49926527D01*
X40034651Y49919779D01*
X39932235Y49625000D01*
X39544356Y48508586D01*
X39514905Y48461601D01*
X38091181Y47037876D01*
X38029858Y47004391D01*
X37960166Y47009375D01*
X37904233Y47051247D01*
X37879816Y47116711D01*
X37879500Y47125557D01*
X37879500Y48391445D01*
X37899185Y48458484D01*
X37915814Y48479121D01*
X39983327Y50546635D01*
X40037924Y50578457D01*
X40307843Y50653178D01*
X40377704Y50652093D01*
G37*
%TD.AperFunction*%
%TA.AperFunction,Conductor*%
G36*
X61834703Y52474519D02*
G01*
X61861971Y52440890D01*
X62028291Y52140630D01*
X62028294Y52140626D01*
X62242769Y51835287D01*
X62488484Y51554475D01*
X62739834Y51322439D01*
X62762656Y51301371D01*
X63062166Y51078853D01*
X63062177Y51078845D01*
X63383655Y50889416D01*
X63434338Y50866418D01*
X63487252Y50820792D01*
X63507099Y50753800D01*
X63487576Y50686713D01*
X63434883Y50640831D01*
X63383099Y50629500D01*
X62302220Y50629500D01*
X62276775Y50632139D01*
X62265901Y50634419D01*
X62265898Y50634419D01*
X62234076Y50630452D01*
X62218738Y50629500D01*
X62218557Y50629500D01*
X62209006Y50627907D01*
X62197784Y50626035D01*
X62192725Y50625299D01*
X62140222Y50618754D01*
X62132608Y50616487D01*
X62125070Y50613899D01*
X62078548Y50588723D01*
X62073995Y50586379D01*
X62026432Y50563127D01*
X62019969Y50558513D01*
X62013684Y50553621D01*
X61977845Y50514690D01*
X61974299Y50510995D01*
X61841180Y50377876D01*
X61779859Y50344391D01*
X61710167Y50349375D01*
X61654233Y50391246D01*
X61629816Y50456710D01*
X61629500Y50465557D01*
X61629500Y52380806D01*
X61649185Y52447845D01*
X61701989Y52493600D01*
X61771147Y52503544D01*
X61834703Y52474519D01*
G37*
%TD.AperFunction*%
%TA.AperFunction,Conductor*%
G36*
X62384732Y66725815D02*
G01*
X62405374Y66709181D01*
X65074181Y64040374D01*
X65107666Y63979051D01*
X65110500Y63952693D01*
X65110500Y58688745D01*
X65107861Y58663297D01*
X65105581Y58652424D01*
X65109548Y58620601D01*
X65110500Y58605262D01*
X65110500Y58605081D01*
X65113959Y58584349D01*
X65114697Y58579282D01*
X65121247Y58526743D01*
X65123505Y58519157D01*
X65126101Y58511594D01*
X65151279Y58465070D01*
X65153624Y58460514D01*
X65176874Y58412955D01*
X65181472Y58406516D01*
X65186381Y58400208D01*
X65225323Y58364359D01*
X65228995Y58360835D01*
X65988721Y57601109D01*
X66022206Y57539786D01*
X66017222Y57470094D01*
X65975350Y57414161D01*
X65909886Y57389744D01*
X65874829Y57392230D01*
X65557595Y57460838D01*
X65557588Y57460839D01*
X65186569Y57500500D01*
X64906787Y57500500D01*
X64906776Y57500500D01*
X64627405Y57485611D01*
X64627379Y57485608D01*
X64259007Y57426257D01*
X64259004Y57426256D01*
X63899013Y57328083D01*
X63819783Y57297103D01*
X63551498Y57192201D01*
X63551496Y57192201D01*
X63551496Y57192200D01*
X63220398Y57020153D01*
X62909458Y56813884D01*
X62909449Y56813878D01*
X62622211Y56575737D01*
X62622196Y56575723D01*
X62361888Y56308393D01*
X62131469Y56014905D01*
X62131462Y56014895D01*
X61933548Y55698584D01*
X61933546Y55698579D01*
X61865015Y55557646D01*
X61817995Y55505965D01*
X61750499Y55487908D01*
X61683956Y55509210D01*
X61639492Y55563105D01*
X61629500Y55611872D01*
X61629500Y65897780D01*
X61632139Y65923225D01*
X61632801Y65926389D01*
X61634419Y65934100D01*
X61630452Y65965924D01*
X61629500Y65981262D01*
X61629500Y65981441D01*
X61627382Y65994135D01*
X61626034Y66002211D01*
X61625299Y66007259D01*
X61623640Y66020568D01*
X61618752Y66059782D01*
X61618751Y66059784D01*
X61618751Y66059786D01*
X61616489Y66067382D01*
X61613900Y66074926D01*
X61613900Y66074927D01*
X61588699Y66121493D01*
X61586375Y66126010D01*
X61563125Y66173571D01*
X61558541Y66179991D01*
X61553620Y66186314D01*
X61553619Y66186316D01*
X61514676Y66222166D01*
X61511002Y66225692D01*
X61202875Y66533819D01*
X61169390Y66595142D01*
X61174374Y66664834D01*
X61216246Y66720767D01*
X61281710Y66745184D01*
X61290556Y66745500D01*
X62317693Y66745500D01*
X62384732Y66725815D01*
G37*
%TD.AperFunction*%
%TA.AperFunction,Conductor*%
G36*
X53969886Y67698675D02*
G01*
X54007474Y67675140D01*
X54072896Y67615500D01*
X54107935Y67583558D01*
X54288115Y67471995D01*
X54354605Y67446237D01*
X54372575Y67437552D01*
X54382267Y67431864D01*
X54386332Y67429478D01*
X55811415Y66934357D01*
X55858399Y66904907D01*
X56694728Y66068578D01*
X56710852Y66048723D01*
X56716932Y66039418D01*
X56716935Y66039416D01*
X56742235Y66019724D01*
X56753758Y66009548D01*
X56753887Y66009419D01*
X56753890Y66009417D01*
X56753892Y66009415D01*
X56771005Y65997196D01*
X56775111Y65994135D01*
X56816881Y65961625D01*
X56816883Y65961625D01*
X56823877Y65957840D01*
X56831018Y65954349D01*
X56831021Y65954347D01*
X56881757Y65939243D01*
X56886590Y65937695D01*
X56936673Y65920500D01*
X56936676Y65920500D01*
X56944482Y65919197D01*
X56952407Y65918209D01*
X56952410Y65918208D01*
X56952412Y65918209D01*
X56952413Y65918208D01*
X56995640Y65919996D01*
X57005273Y65920395D01*
X57010396Y65920500D01*
X57647014Y65920500D01*
X57714053Y65900815D01*
X57759808Y65848011D01*
X57769752Y65778853D01*
X57761574Y65749044D01*
X57761264Y65748297D01*
X57746500Y65674072D01*
X57746500Y65674069D01*
X57746500Y65674067D01*
X57746500Y64784181D01*
X57746501Y63999500D01*
X57726816Y63932461D01*
X57674013Y63886706D01*
X57622501Y63875500D01*
X57472556Y63875500D01*
X57405517Y63895185D01*
X57384875Y63911819D01*
X53855093Y67441601D01*
X53825642Y67488587D01*
X53806804Y67542808D01*
X53803397Y67612594D01*
X53838260Y67673145D01*
X53900325Y67705234D01*
X53969886Y67698675D01*
G37*
%TD.AperFunction*%
%TD*%
%TA.AperFunction,Conductor*%
%TO.N,/GPIO5\u005CSPI0_CSn(CS#)*%
G36*
X40300114Y49855480D02*
G01*
X41106214Y49522563D01*
X41112553Y49516238D01*
X41112562Y49516215D01*
X41445476Y48710123D01*
X41445467Y48701168D01*
X41439128Y48694843D01*
X41438502Y48694605D01*
X39948080Y48176783D01*
X39939140Y48177305D01*
X39935967Y48179562D01*
X39769561Y48345968D01*
X39766134Y48354241D01*
X39766781Y48358076D01*
X40284605Y49848505D01*
X40290556Y49855193D01*
X40299496Y49855715D01*
X40300114Y49855480D01*
G37*
%TD.AperFunction*%
%TD*%
%TA.AperFunction,Conductor*%
%TO.N,/GPIO4\u005CSPI0_RX(MISO)*%
G36*
X49630071Y3550748D02*
G01*
X50242760Y3274207D01*
X50248891Y3267680D01*
X50248767Y3259091D01*
X50102563Y2903805D01*
X50096245Y2897458D01*
X50096195Y2897437D01*
X49740909Y2751233D01*
X49731955Y2751254D01*
X49725793Y2757240D01*
X49661676Y2899293D01*
X49499279Y3259091D01*
X49449252Y3369929D01*
X49448972Y3378879D01*
X49451641Y3383013D01*
X49616986Y3548358D01*
X49625258Y3551784D01*
X49630071Y3550748D01*
G37*
%TD.AperFunction*%
%TD*%
%TA.AperFunction,Conductor*%
%TO.N,/GPIO3\u005CIN2*%
G36*
X35388534Y54453606D02*
G01*
X35393569Y54451506D01*
X35399887Y54445159D01*
X35399866Y54436205D01*
X35399789Y54436024D01*
X35128065Y53813979D01*
X35121613Y53807769D01*
X35117343Y53806962D01*
X34883480Y53806962D01*
X34875207Y53810389D01*
X34872361Y53815021D01*
X34669018Y54436024D01*
X34668813Y54436651D01*
X34669495Y54445578D01*
X34675429Y54451089D01*
X35030500Y54599125D01*
X35039449Y54599145D01*
X35388534Y54453606D01*
G37*
%TD.AperFunction*%
%TD*%
%TA.AperFunction,Conductor*%
%TO.N,/GPIO15*%
G36*
X65777137Y68834768D02*
G01*
X65783462Y68828429D01*
X65784120Y68826259D01*
X65848852Y68502854D01*
X66014750Y67674009D01*
X66124199Y67127195D01*
X66122463Y67118410D01*
X66115023Y67113427D01*
X66112727Y67113199D01*
X65875518Y67113199D01*
X65870706Y67114234D01*
X64630126Y67674009D01*
X64623994Y67680536D01*
X64624126Y67689145D01*
X64958144Y68496515D01*
X64964472Y68502847D01*
X65768183Y68834777D01*
X65777137Y68834768D01*
G37*
%TD.AperFunction*%
%TD*%
%TA.AperFunction,Conductor*%
%TO.N,/GPIO5\u005CSPI0_CSn(CS#)*%
G36*
X54371171Y3148645D02*
G01*
X54726502Y3001859D01*
X54732840Y2995533D01*
X54732855Y2995497D01*
X54878345Y2641942D01*
X54878324Y2632988D01*
X54871977Y2626670D01*
X54871315Y2626421D01*
X54152598Y2380305D01*
X54143661Y2380867D01*
X54137739Y2387584D01*
X54137108Y2391374D01*
X54137108Y2622627D01*
X54138032Y2627185D01*
X54144273Y2641942D01*
X54355931Y3142390D01*
X54362309Y3148672D01*
X54371171Y3148645D01*
G37*
%TD.AperFunction*%
%TD*%
%TA.AperFunction,Conductor*%
%TO.N,+3.3V*%
G36*
X38713762Y14597489D02*
G01*
X39490401Y14455752D01*
X39497924Y14450895D01*
X39500000Y14444242D01*
X39500000Y13955759D01*
X39496573Y13947486D01*
X39490401Y13944249D01*
X38713766Y13802513D01*
X38705012Y13804399D01*
X38700155Y13811922D01*
X38699965Y13813994D01*
X38699000Y14199942D01*
X38699000Y14200000D01*
X38699965Y14586007D01*
X38703413Y14594272D01*
X38711694Y14597678D01*
X38713762Y14597489D01*
G37*
%TD.AperFunction*%
%TD*%
%TA.AperFunction,Conductor*%
%TO.N,/GPIO17\u005CI2C0_SCL*%
G36*
X52283014Y13448357D02*
G01*
X52448356Y13283015D01*
X52451783Y13274742D01*
X52450747Y13269929D01*
X52174206Y12657240D01*
X52167679Y12651109D01*
X52159090Y12651233D01*
X51803804Y12797437D01*
X51797457Y12803755D01*
X51797436Y12803805D01*
X51651232Y13159091D01*
X51651253Y13168045D01*
X51657237Y13174206D01*
X52269928Y13450749D01*
X52278878Y13451028D01*
X52283014Y13448357D01*
G37*
%TD.AperFunction*%
%TD*%
%TA.AperFunction,Conductor*%
%TO.N,/GPIO15*%
G36*
X42015165Y18020188D02*
G01*
X42184337Y17851016D01*
X42187764Y17842743D01*
X42187650Y17841113D01*
X42000415Y16510062D01*
X41995869Y16502347D01*
X41988838Y16499992D01*
X41117125Y16499300D01*
X41108849Y16502720D01*
X41106302Y16506534D01*
X40773731Y17311796D01*
X40773740Y17320751D01*
X40778757Y17326431D01*
X42001107Y18022085D01*
X42009990Y18023197D01*
X42015165Y18020188D01*
G37*
%TD.AperFunction*%
%TD*%
%TA.AperFunction,Conductor*%
%TO.N,/ADC_VREF*%
G36*
X54221073Y52772310D02*
G01*
X54224500Y52764037D01*
X54224500Y52762440D01*
X54224492Y52762007D01*
X54200415Y52111239D01*
X54196685Y52103099D01*
X54188752Y52099972D01*
X53804875Y52099013D01*
X53796594Y52102419D01*
X53796558Y52102454D01*
X53526054Y52373915D01*
X53522642Y52382195D01*
X53526083Y52390462D01*
X53526707Y52391039D01*
X53873352Y52688509D01*
X53971713Y52772916D01*
X53979332Y52775737D01*
X54212800Y52775737D01*
X54221073Y52772310D01*
G37*
%TD.AperFunction*%
%TD*%
%TA.AperFunction,Conductor*%
%TO.N,/GPIO25*%
G36*
X41460746Y22396204D02*
G01*
X41461343Y22395936D01*
X42881400Y21708196D01*
X42887352Y21701507D01*
X42888000Y21697667D01*
X42888000Y21462334D01*
X42884573Y21454061D01*
X42881400Y21451804D01*
X41461357Y20764072D01*
X41452417Y20763550D01*
X41445727Y20769502D01*
X41445460Y20770095D01*
X41110863Y21575514D01*
X41110855Y21584466D01*
X41445453Y22389890D01*
X41451791Y22396213D01*
X41460746Y22396204D01*
G37*
%TD.AperFunction*%
%TD*%
%TA.AperFunction,Conductor*%
%TO.N,/GPIO6\u005CSPI0_SCK(CLK)*%
G36*
X52445294Y3665272D02*
G01*
X52451280Y3659110D01*
X52599123Y3304502D01*
X52599144Y3295548D01*
X52599123Y3295498D01*
X52451280Y2940891D01*
X52444933Y2934573D01*
X52436344Y2934449D01*
X51807563Y3172142D01*
X51801036Y3178273D01*
X51800000Y3183086D01*
X51800000Y3416915D01*
X51803427Y3425188D01*
X51807563Y3427859D01*
X52436345Y3665552D01*
X52445294Y3665272D01*
G37*
%TD.AperFunction*%
%TD*%
%TA.AperFunction,Conductor*%
%TO.N,/GPIO26*%
G36*
X42918832Y68835468D02*
G01*
X42925157Y68829129D01*
X42925395Y68828503D01*
X43443217Y67338081D01*
X43442695Y67329141D01*
X43440438Y67325968D01*
X43277473Y67163003D01*
X43269200Y67159576D01*
X43260927Y67163003D01*
X43111881Y67312049D01*
X42950808Y67473123D01*
X42949286Y67474997D01*
X42936979Y67493835D01*
X42906499Y67517559D01*
X42905412Y67518519D01*
X42900413Y67523518D01*
X42881599Y67536951D01*
X42881212Y67537240D01*
X42838083Y67570809D01*
X42832174Y67572838D01*
X42829176Y67574381D01*
X42824090Y67578012D01*
X42771705Y67593609D01*
X42771245Y67593756D01*
X42719556Y67611500D01*
X42719554Y67611500D01*
X42713306Y67611500D01*
X42709969Y67611986D01*
X42703983Y67613768D01*
X42703981Y67613768D01*
X42649381Y67611510D01*
X42648898Y67611500D01*
X41955104Y67611500D01*
X41951264Y67612148D01*
X41771497Y67674605D01*
X41764807Y67680557D01*
X41764285Y67689497D01*
X41764515Y67690104D01*
X42097438Y68496217D01*
X42103759Y68502552D01*
X42909878Y68835477D01*
X42918832Y68835468D01*
G37*
%TD.AperFunction*%
%TD*%
%TA.AperFunction,Conductor*%
%TO.N,/GPIO14*%
G36*
X56651395Y21458662D02*
G01*
X56651926Y21457555D01*
X56799121Y21104502D01*
X56799142Y21095548D01*
X56799121Y21095498D01*
X56650714Y20739539D01*
X56644367Y20733221D01*
X56637321Y20732632D01*
X56028995Y20870930D01*
X56021688Y20876106D01*
X56019889Y20882339D01*
X56019889Y21120060D01*
X56023316Y21128333D01*
X56025977Y21130327D01*
X56635519Y21463322D01*
X56644421Y21464280D01*
X56651395Y21458662D01*
G37*
%TD.AperFunction*%
%TD*%
%TA.AperFunction,Conductor*%
%TO.N,Net-(D4-A)*%
G36*
X5634244Y43499059D02*
G01*
X7014268Y43263660D01*
X7021846Y43258892D01*
X7024000Y43252128D01*
X7024000Y41747873D01*
X7020573Y41739600D01*
X7014267Y41736340D01*
X5634252Y41500943D01*
X5625521Y41502930D01*
X5624530Y41503715D01*
X5348698Y41747873D01*
X4508896Y42491240D01*
X4504974Y42499289D01*
X4507891Y42507755D01*
X4508892Y42508757D01*
X5624531Y43496287D01*
X5632996Y43499203D01*
X5634244Y43499059D01*
G37*
%TD.AperFunction*%
%TD*%
%TA.AperFunction,Conductor*%
%TO.N,/ADC_VREF*%
G36*
X51368044Y63569737D02*
G01*
X51374206Y63563751D01*
X51650747Y62951062D01*
X51651027Y62942112D01*
X51648356Y62937976D01*
X51483014Y62772634D01*
X51474741Y62769207D01*
X51469928Y62770243D01*
X50857239Y63046784D01*
X50851108Y63053311D01*
X50851232Y63061900D01*
X50997437Y63417188D01*
X51003753Y63423533D01*
X51359090Y63569758D01*
X51368044Y63569737D01*
G37*
%TD.AperFunction*%
%TD*%
%TA.AperFunction,Conductor*%
%TO.N,/GPIO19*%
G36*
X60060859Y28002696D02*
G01*
X60064032Y28000439D01*
X60230438Y27834033D01*
X60233865Y27825760D01*
X60233217Y27821920D01*
X59715395Y26331498D01*
X59709443Y26324808D01*
X59700503Y26324286D01*
X59699877Y26324524D01*
X58893785Y26657438D01*
X58887447Y26663762D01*
X58554523Y27469879D01*
X58554532Y27478833D01*
X58560871Y27485158D01*
X58561466Y27485385D01*
X60051921Y28003218D01*
X60060859Y28002696D01*
G37*
%TD.AperFunction*%
%TD*%
%TA.AperFunction,Conductor*%
%TO.N,/GPIO6\u005CSPI0_SCK(CLK)*%
G36*
X40300114Y44775480D02*
G01*
X41106214Y44442563D01*
X41112553Y44436238D01*
X41112562Y44436215D01*
X41445476Y43630123D01*
X41445467Y43621168D01*
X41439128Y43614843D01*
X41438502Y43614605D01*
X39948080Y43096783D01*
X39939140Y43097305D01*
X39935967Y43099562D01*
X39769561Y43265968D01*
X39766134Y43274241D01*
X39766781Y43278076D01*
X40284605Y44768505D01*
X40290556Y44775193D01*
X40299496Y44775715D01*
X40300114Y44775480D01*
G37*
%TD.AperFunction*%
%TD*%
%TA.AperFunction,Conductor*%
%TO.N,/GPIO15*%
G36*
X65081616Y21749755D02*
G01*
X65249754Y21581617D01*
X65253181Y21573344D01*
X65252132Y21568502D01*
X65206577Y21468301D01*
X65205555Y21466497D01*
X65162782Y21404527D01*
X65162778Y21404521D01*
X65106763Y21256821D01*
X65105642Y21247588D01*
X65104678Y21244157D01*
X64974221Y20957199D01*
X64967677Y20951086D01*
X64959118Y20951221D01*
X64603804Y21097437D01*
X64597457Y21103755D01*
X64597436Y21103805D01*
X64451220Y21459120D01*
X64451241Y21468073D01*
X64457196Y21474221D01*
X65068503Y21752134D01*
X65077450Y21752437D01*
X65081616Y21749755D01*
G37*
%TD.AperFunction*%
%TD*%
%TA.AperFunction,Conductor*%
%TO.N,/GPIO14*%
G36*
X68312305Y68163543D02*
G01*
X68318630Y68157204D01*
X68319248Y68150247D01*
X68010007Y66731209D01*
X68004897Y66723855D01*
X67998575Y66722000D01*
X67001425Y66722000D01*
X66993152Y66725427D01*
X66989993Y66731209D01*
X66680751Y68150249D01*
X66682338Y68159060D01*
X66687692Y68163542D01*
X67495513Y68499137D01*
X67504465Y68499145D01*
X68312305Y68163543D01*
G37*
%TD.AperFunction*%
%TD*%
%TA.AperFunction,Conductor*%
%TO.N,+5V*%
G36*
X73206398Y54868916D02*
G01*
X73999013Y53923135D01*
X74001701Y53914594D01*
X74000343Y53910066D01*
X73178677Y52387019D01*
X73171733Y52381365D01*
X73162825Y52382277D01*
X73160107Y52384301D01*
X72275688Y53268720D01*
X72272492Y53274678D01*
X72055421Y54350104D01*
X72057144Y54358892D01*
X72062086Y54363088D01*
X73192628Y54872071D01*
X73201579Y54872341D01*
X73206398Y54868916D01*
G37*
%TD.AperFunction*%
%TD*%
%TA.AperFunction,Conductor*%
%TO.N,Net-(D6-A)*%
G36*
X5634244Y13499059D02*
G01*
X7014268Y13263660D01*
X7021846Y13258892D01*
X7024000Y13252128D01*
X7024000Y11747873D01*
X7020573Y11739600D01*
X7014267Y11736340D01*
X5634252Y11500943D01*
X5625521Y11502930D01*
X5624530Y11503715D01*
X5348698Y11747873D01*
X4508896Y12491240D01*
X4504974Y12499289D01*
X4507891Y12507755D01*
X4508892Y12508757D01*
X5624531Y13496287D01*
X5632996Y13499203D01*
X5634244Y13499059D01*
G37*
%TD.AperFunction*%
%TD*%
%TA.AperFunction,Conductor*%
%TO.N,/GPIO15*%
G36*
X66458526Y67010096D02*
G01*
X66464847Y67003753D01*
X66464830Y66994798D01*
X66464829Y66994795D01*
X66130000Y66191200D01*
X66123655Y66184881D01*
X66119200Y66184000D01*
X65880800Y66184000D01*
X65872527Y66187427D01*
X65870000Y66191200D01*
X65535170Y66994795D01*
X65535151Y67003750D01*
X65541468Y67010094D01*
X65995503Y67199129D01*
X66004455Y67199145D01*
X66458526Y67010096D01*
G37*
%TD.AperFunction*%
%TD*%
%TA.AperFunction,Conductor*%
%TO.N,+5V*%
G36*
X71446584Y39429927D02*
G01*
X73117595Y38878193D01*
X73124377Y38872345D01*
X73125606Y38867791D01*
X73200457Y37633941D01*
X73197537Y37625476D01*
X73192510Y37622144D01*
X72010086Y37224245D01*
X72001152Y37224854D01*
X71996339Y37229285D01*
X71432903Y38162211D01*
X71431218Y38168260D01*
X71431218Y39418816D01*
X71434645Y39427089D01*
X71442918Y39430516D01*
X71446584Y39429927D01*
G37*
%TD.AperFunction*%
%TD*%
%TA.AperFunction,Conductor*%
%TO.N,/GPIO7\u005CSPI0_TX(MOSI)*%
G36*
X40300114Y42235480D02*
G01*
X41106214Y41902563D01*
X41112553Y41896238D01*
X41112562Y41896215D01*
X41445476Y41090123D01*
X41445467Y41081168D01*
X41439128Y41074843D01*
X41438502Y41074605D01*
X39948080Y40556783D01*
X39939140Y40557305D01*
X39935967Y40559562D01*
X39769561Y40725968D01*
X39766134Y40734241D01*
X39766781Y40738076D01*
X40284605Y42228505D01*
X40290556Y42235193D01*
X40299496Y42235715D01*
X40300114Y42235480D01*
G37*
%TD.AperFunction*%
%TD*%
%TA.AperFunction,Conductor*%
%TO.N,/GPIO29*%
G36*
X42280859Y35622696D02*
G01*
X42284032Y35620439D01*
X42450438Y35454033D01*
X42453865Y35445760D01*
X42453217Y35441920D01*
X41935395Y33951498D01*
X41929443Y33944808D01*
X41920503Y33944286D01*
X41919877Y33944524D01*
X41113785Y34277438D01*
X41107447Y34283762D01*
X40774523Y35089879D01*
X40774532Y35098833D01*
X40780871Y35105158D01*
X40781466Y35105385D01*
X42271921Y35623218D01*
X42280859Y35622696D01*
G37*
%TD.AperFunction*%
%TD*%
%TA.AperFunction,Conductor*%
%TO.N,/GPIO14*%
G36*
X65870165Y21896573D02*
G01*
X65872846Y21892408D01*
X66071500Y21362565D01*
X66108591Y21263638D01*
X66108287Y21254689D01*
X66102138Y21248732D01*
X65747502Y21100877D01*
X65738548Y21100856D01*
X65738498Y21100877D01*
X65388349Y21246861D01*
X65382031Y21253208D01*
X65381911Y21261809D01*
X65382605Y21263638D01*
X65390175Y21283599D01*
X65391475Y21286078D01*
X65415830Y21321361D01*
X65427860Y21340557D01*
X65428882Y21342361D01*
X65439168Y21362557D01*
X65444726Y21374781D01*
X65458247Y21404523D01*
X65473925Y21439011D01*
X65476299Y21442436D01*
X65477393Y21443530D01*
X65479256Y21445043D01*
X65498209Y21457424D01*
X65522068Y21488080D01*
X65523013Y21489150D01*
X65528051Y21494186D01*
X65541560Y21513108D01*
X65541816Y21513451D01*
X65575592Y21556845D01*
X65577633Y21562791D01*
X65579177Y21565792D01*
X65582832Y21570910D01*
X65598523Y21623620D01*
X65598642Y21623992D01*
X65616500Y21676006D01*
X65616500Y21682296D01*
X65616986Y21685634D01*
X65617099Y21686017D01*
X65618780Y21691660D01*
X65616510Y21746549D01*
X65616500Y21747032D01*
X65616500Y21888300D01*
X65619927Y21896573D01*
X65628200Y21900000D01*
X65861892Y21900000D01*
X65870165Y21896573D01*
G37*
%TD.AperFunction*%
%TD*%
%TA.AperFunction,Conductor*%
%TO.N,/GPIO19*%
G36*
X60698832Y68835468D02*
G01*
X60705157Y68829129D01*
X60705395Y68828503D01*
X61223217Y67338081D01*
X61222695Y67329141D01*
X61220438Y67325968D01*
X61054032Y67159562D01*
X61045759Y67156135D01*
X61041919Y67156783D01*
X59551497Y67674605D01*
X59544807Y67680557D01*
X59544285Y67689497D01*
X59544515Y67690104D01*
X59877438Y68496217D01*
X59883759Y68502552D01*
X60689878Y68835477D01*
X60698832Y68835468D01*
G37*
%TD.AperFunction*%
%TD*%
%TA.AperFunction,Conductor*%
%TO.N,/GPIO0\u005CUART0_TX*%
G36*
X44422128Y3542805D02*
G01*
X45034817Y3266264D01*
X45040948Y3259737D01*
X45040824Y3251148D01*
X44894620Y2895862D01*
X44888302Y2889515D01*
X44888252Y2889494D01*
X44532966Y2743290D01*
X44524012Y2743311D01*
X44517850Y2749297D01*
X44453733Y2891350D01*
X44291336Y3251148D01*
X44241309Y3361986D01*
X44241029Y3370936D01*
X44243698Y3375070D01*
X44409043Y3540415D01*
X44417315Y3543841D01*
X44422128Y3542805D01*
G37*
%TD.AperFunction*%
%TD*%
%TA.AperFunction,Conductor*%
%TO.N,/GPIO23*%
G36*
X50539165Y68835605D02*
G01*
X50545490Y68829266D01*
X50545610Y68828963D01*
X51094972Y67386189D01*
X51094714Y67377238D01*
X51092311Y67373753D01*
X50929518Y67210960D01*
X50921245Y67207533D01*
X50912972Y67210960D01*
X50686806Y67437126D01*
X50685284Y67439000D01*
X50672979Y67457835D01*
X50642503Y67481556D01*
X50641416Y67482516D01*
X50636411Y67487521D01*
X50629534Y67492430D01*
X50617582Y67500963D01*
X50617227Y67501228D01*
X50574083Y67534809D01*
X50568174Y67536838D01*
X50565176Y67538381D01*
X50563449Y67539614D01*
X50560093Y67542010D01*
X50542822Y67547152D01*
X50507707Y67557607D01*
X50507247Y67557755D01*
X50455556Y67575500D01*
X50455554Y67575500D01*
X50449305Y67575500D01*
X50445968Y67575986D01*
X50439982Y67577768D01*
X50439980Y67577768D01*
X50385380Y67575510D01*
X50384897Y67575500D01*
X49715349Y67575500D01*
X49711894Y67576022D01*
X49392049Y67674883D01*
X49385157Y67680600D01*
X49384326Y67689516D01*
X49384686Y67690518D01*
X49717438Y68496217D01*
X49723759Y68502552D01*
X50530210Y68835614D01*
X50539165Y68835605D01*
G37*
%TD.AperFunction*%
%TD*%
%TA.AperFunction,Conductor*%
%TO.N,/GPIO9\u005CIN4*%
G36*
X38227165Y24304573D02*
G01*
X38229847Y24300407D01*
X38465591Y23671638D01*
X38465287Y23662689D01*
X38459138Y23656732D01*
X38104502Y23508877D01*
X38095548Y23508856D01*
X38095498Y23508877D01*
X37740861Y23656732D01*
X37734543Y23663079D01*
X37734408Y23671636D01*
X37970153Y24300408D01*
X37976266Y24306951D01*
X37981108Y24308000D01*
X38218892Y24308000D01*
X38227165Y24304573D01*
G37*
%TD.AperFunction*%
%TD*%
%TA.AperFunction,Conductor*%
%TO.N,/GPIO1\u005CUART0_RX*%
G36*
X40774225Y63030351D02*
G01*
X40774976Y63028855D01*
X41109135Y62224489D01*
X41109144Y62215534D01*
X41109135Y62215511D01*
X40774976Y61411146D01*
X40768637Y61404821D01*
X40759682Y61404830D01*
X40758186Y61405581D01*
X39605715Y62091599D01*
X39600359Y62098776D01*
X39600000Y62101653D01*
X39600000Y62338348D01*
X39603427Y62346621D01*
X39605715Y62348402D01*
X40758187Y63034421D01*
X40767048Y63035707D01*
X40774225Y63030351D01*
G37*
%TD.AperFunction*%
%TD*%
%TA.AperFunction,Conductor*%
%TO.N,/GPIO27*%
G36*
X40378832Y68835468D02*
G01*
X40385157Y68829129D01*
X40385395Y68828503D01*
X40903217Y67338081D01*
X40902695Y67329141D01*
X40900438Y67325968D01*
X40737474Y67163005D01*
X40729201Y67159578D01*
X40720928Y67163005D01*
X40569568Y67314365D01*
X40569545Y67314386D01*
X40410806Y67473126D01*
X40409284Y67475000D01*
X40396979Y67493835D01*
X40366503Y67517556D01*
X40365416Y67518516D01*
X40360411Y67523521D01*
X40353534Y67528430D01*
X40341582Y67536963D01*
X40341227Y67537228D01*
X40298083Y67570809D01*
X40292174Y67572838D01*
X40289176Y67574381D01*
X40287449Y67575614D01*
X40284093Y67578010D01*
X40266822Y67583152D01*
X40231707Y67593607D01*
X40231247Y67593755D01*
X40179556Y67611500D01*
X40179554Y67611500D01*
X40173305Y67611500D01*
X40169968Y67611986D01*
X40163982Y67613768D01*
X40163980Y67613768D01*
X40109380Y67611510D01*
X40108897Y67611500D01*
X39415104Y67611500D01*
X39411264Y67612148D01*
X39231497Y67674605D01*
X39224807Y67680557D01*
X39224285Y67689497D01*
X39224515Y67690104D01*
X39557438Y68496217D01*
X39563759Y68502552D01*
X40369878Y68835477D01*
X40378832Y68835468D01*
G37*
%TD.AperFunction*%
%TD*%
%TA.AperFunction,Conductor*%
%TO.N,/GPIO29*%
G36*
X35298832Y68835468D02*
G01*
X35305157Y68829129D01*
X35305395Y68828503D01*
X35823217Y67338081D01*
X35822695Y67329141D01*
X35820438Y67325968D01*
X35654032Y67159562D01*
X35645759Y67156135D01*
X35641919Y67156783D01*
X34151497Y67674605D01*
X34144807Y67680557D01*
X34144285Y67689497D01*
X34144515Y67690104D01*
X34477438Y68496217D01*
X34483759Y68502552D01*
X35289878Y68835477D01*
X35298832Y68835468D01*
G37*
%TD.AperFunction*%
%TD*%
%TA.AperFunction,Conductor*%
%TO.N,/GPIO24*%
G36*
X47998974Y68835527D02*
G01*
X48005299Y68829188D01*
X48005488Y68828699D01*
X48536799Y67358655D01*
X48536389Y67349710D01*
X48534069Y67346405D01*
X48371177Y67183513D01*
X48362904Y67180086D01*
X48354631Y67183513D01*
X48101018Y67437126D01*
X48099496Y67439000D01*
X48087191Y67457835D01*
X48056715Y67481556D01*
X48055628Y67482516D01*
X48050623Y67487521D01*
X48043746Y67492430D01*
X48031794Y67500963D01*
X48031439Y67501228D01*
X47988295Y67534809D01*
X47982386Y67536838D01*
X47979388Y67538381D01*
X47977661Y67539614D01*
X47974305Y67542010D01*
X47957034Y67547152D01*
X47921919Y67557607D01*
X47921459Y67557755D01*
X47869768Y67575500D01*
X47869766Y67575500D01*
X47863517Y67575500D01*
X47860180Y67575986D01*
X47854194Y67577768D01*
X47854192Y67577768D01*
X47799592Y67575510D01*
X47799109Y67575500D01*
X47153527Y67575500D01*
X47149852Y67576092D01*
X46851733Y67674721D01*
X46844955Y67680573D01*
X46844300Y67689504D01*
X46844587Y67690279D01*
X47177438Y68496217D01*
X47183759Y68502552D01*
X47990021Y68835536D01*
X47998974Y68835527D01*
G37*
%TD.AperFunction*%
%TD*%
%TA.AperFunction,Conductor*%
%TO.N,/GPIO29*%
G36*
X43359109Y44751281D02*
G01*
X43365427Y44744934D01*
X43365551Y44736345D01*
X43127859Y44107563D01*
X43121728Y44101036D01*
X43116915Y44100000D01*
X42883085Y44100000D01*
X42874812Y44103427D01*
X42872141Y44107563D01*
X42634448Y44736345D01*
X42634728Y44745295D01*
X42640889Y44751281D01*
X42995500Y44899125D01*
X43004449Y44899145D01*
X43359109Y44751281D01*
G37*
%TD.AperFunction*%
%TD*%
%TA.AperFunction,Conductor*%
%TO.N,/GPIO18*%
G36*
X64539165Y24362774D02*
G01*
X64541847Y24358608D01*
X64777591Y23729839D01*
X64777287Y23720890D01*
X64771138Y23714933D01*
X64416502Y23567078D01*
X64407548Y23567057D01*
X64407498Y23567078D01*
X64052861Y23714933D01*
X64046543Y23721280D01*
X64046408Y23729837D01*
X64282153Y24358609D01*
X64288266Y24365152D01*
X64293108Y24366201D01*
X64530892Y24366201D01*
X64539165Y24362774D01*
G37*
%TD.AperFunction*%
%TD*%
%TA.AperFunction,Conductor*%
%TO.N,/GPIO10\u005CREL1*%
G36*
X42280859Y33082696D02*
G01*
X42284032Y33080439D01*
X42450438Y32914033D01*
X42453865Y32905760D01*
X42453217Y32901920D01*
X41935395Y31411498D01*
X41929443Y31404808D01*
X41920503Y31404286D01*
X41919877Y31404524D01*
X41113785Y31737438D01*
X41107447Y31743762D01*
X40774523Y32549879D01*
X40774532Y32558833D01*
X40780871Y32565158D01*
X40781466Y32565385D01*
X42271921Y33083218D01*
X42280859Y33082696D01*
G37*
%TD.AperFunction*%
%TD*%
%TA.AperFunction,Conductor*%
%TO.N,+3.3V*%
G36*
X49799345Y14447105D02*
G01*
X50518607Y14142165D01*
X50542414Y14132071D01*
X50548693Y14125687D01*
X50548667Y14116847D01*
X50401895Y13760177D01*
X50399334Y13756341D01*
X50126954Y13484920D01*
X50118674Y13481508D01*
X50110407Y13484949D01*
X50109153Y13486438D01*
X49785239Y13942959D01*
X49783081Y13949729D01*
X49783081Y14436332D01*
X49786508Y14444605D01*
X49794781Y14448032D01*
X49799345Y14447105D01*
G37*
%TD.AperFunction*%
%TD*%
%TA.AperFunction,Conductor*%
%TO.N,+5V*%
G36*
X72447390Y4121810D02*
G01*
X72450621Y4118880D01*
X73195677Y3132050D01*
X73197927Y3123382D01*
X73195677Y3117950D01*
X72450621Y2131121D01*
X72442901Y2126583D01*
X72438544Y2126796D01*
X70938961Y2487843D01*
X70931720Y2493111D01*
X70930000Y2499218D01*
X70930000Y3750783D01*
X70933427Y3759056D01*
X70938959Y3762158D01*
X72438544Y4123205D01*
X72447390Y4121810D01*
G37*
%TD.AperFunction*%
%TD*%
%TA.AperFunction,Conductor*%
%TO.N,/GPIO12\u005CREL3*%
G36*
X42243405Y28028098D02*
G01*
X42246823Y28025726D01*
X42416065Y27856484D01*
X42419492Y27848211D01*
X42418936Y27844647D01*
X42328286Y27561164D01*
X42325415Y27556455D01*
X42136876Y27367916D01*
X42135003Y27366395D01*
X42116166Y27354086D01*
X42092444Y27323610D01*
X42091486Y27322525D01*
X42086479Y27317517D01*
X42073040Y27298695D01*
X42072751Y27298308D01*
X42039191Y27255190D01*
X42037162Y27249280D01*
X42035618Y27246282D01*
X42031989Y27241200D01*
X42016392Y27188815D01*
X42016245Y27188355D01*
X41998500Y27136663D01*
X41998500Y27130413D01*
X41998014Y27127076D01*
X41996232Y27121088D01*
X41998490Y27066487D01*
X41998500Y27066004D01*
X41998500Y26531678D01*
X41997944Y26528114D01*
X41935197Y26331894D01*
X41929413Y26325058D01*
X41920489Y26324314D01*
X41919587Y26324644D01*
X41113785Y26657438D01*
X41107447Y26663762D01*
X40774415Y27470141D01*
X40774424Y27479095D01*
X40780763Y27485420D01*
X40781088Y27485548D01*
X42234457Y28028413D01*
X42243405Y28028098D01*
G37*
%TD.AperFunction*%
%TD*%
%TA.AperFunction,Conductor*%
%TO.N,/GPIO2\u005CIN1*%
G36*
X39986003Y60500035D02*
G01*
X39994268Y60496587D01*
X39997674Y60488306D01*
X39997484Y60486234D01*
X39855749Y59709599D01*
X39850892Y59702076D01*
X39844239Y59700000D01*
X39355755Y59700000D01*
X39347482Y59703427D01*
X39344245Y59709599D01*
X39202509Y60486234D01*
X39204395Y60494988D01*
X39211918Y60499845D01*
X39213989Y60500035D01*
X39599997Y60501000D01*
X39986003Y60500035D01*
G37*
%TD.AperFunction*%
%TD*%
%TA.AperFunction,Conductor*%
%TO.N,/GPIO25*%
G36*
X45458832Y68835468D02*
G01*
X45465157Y68829129D01*
X45465395Y68828503D01*
X45983217Y67338081D01*
X45982695Y67329141D01*
X45980438Y67325968D01*
X45814032Y67159562D01*
X45805759Y67156135D01*
X45801919Y67156783D01*
X45762060Y67170632D01*
X45757627Y67173411D01*
X45457912Y67473126D01*
X45456390Y67475000D01*
X45444085Y67493835D01*
X45413609Y67517556D01*
X45412522Y67518516D01*
X45407517Y67523521D01*
X45400640Y67528430D01*
X45388688Y67536963D01*
X45388333Y67537228D01*
X45345189Y67570809D01*
X45339280Y67572838D01*
X45336282Y67574381D01*
X45334555Y67575614D01*
X45331199Y67578010D01*
X45313928Y67583152D01*
X45278813Y67593607D01*
X45278353Y67593755D01*
X45226662Y67611500D01*
X45226660Y67611500D01*
X45220411Y67611500D01*
X45217074Y67611986D01*
X45211088Y67613768D01*
X45211086Y67613768D01*
X45156486Y67611510D01*
X45156003Y67611500D01*
X44495104Y67611500D01*
X44491264Y67612148D01*
X44311497Y67674605D01*
X44304807Y67680557D01*
X44304285Y67689497D01*
X44304515Y67690104D01*
X44637438Y68496217D01*
X44643759Y68502552D01*
X45449878Y68835477D01*
X45458832Y68835468D01*
G37*
%TD.AperFunction*%
%TD*%
%TA.AperFunction,Conductor*%
%TO.N,/GPIO8\u005CIN3*%
G36*
X40300101Y39695486D02*
G01*
X41106214Y39362563D01*
X41112553Y39356238D01*
X41112562Y39356215D01*
X41445481Y38550111D01*
X41445472Y38541156D01*
X41439133Y38534831D01*
X41438519Y38534597D01*
X39949499Y38015380D01*
X39940559Y38015892D01*
X39937374Y38018155D01*
X39768154Y38187375D01*
X39764727Y38195648D01*
X39765378Y38199498D01*
X40284596Y39688521D01*
X40290556Y39695204D01*
X40299496Y39695716D01*
X40300101Y39695486D01*
G37*
%TD.AperFunction*%
%TD*%
%TA.AperFunction,Conductor*%
%TO.N,/GPIO16\u005CI2C0_SDA*%
G36*
X49368046Y12848749D02*
G01*
X49374208Y12842763D01*
X49650749Y12230074D01*
X49651029Y12221124D01*
X49648358Y12216988D01*
X49483016Y12051646D01*
X49474743Y12048219D01*
X49469930Y12049255D01*
X48857241Y12325796D01*
X48851110Y12332323D01*
X48851234Y12340912D01*
X48997439Y12696200D01*
X49003755Y12702545D01*
X49359092Y12848770D01*
X49368046Y12848749D01*
G37*
%TD.AperFunction*%
%TD*%
%TA.AperFunction,Conductor*%
%TO.N,/GPIO27*%
G36*
X55721073Y45072310D02*
G01*
X55724500Y45064037D01*
X55724500Y45062440D01*
X55724492Y45062007D01*
X55700415Y44411239D01*
X55696685Y44403099D01*
X55688752Y44399972D01*
X55304875Y44399013D01*
X55296594Y44402419D01*
X55296558Y44402454D01*
X55026054Y44673915D01*
X55022642Y44682195D01*
X55026083Y44690462D01*
X55026707Y44691039D01*
X55373352Y44988509D01*
X55471713Y45072916D01*
X55479332Y45075737D01*
X55712800Y45075737D01*
X55721073Y45072310D01*
G37*
%TD.AperFunction*%
%TD*%
%TA.AperFunction,Conductor*%
%TO.N,/GPIO8\u005CIN3*%
G36*
X38227165Y32804573D02*
G01*
X38229847Y32800407D01*
X38465591Y32171638D01*
X38465287Y32162689D01*
X38459138Y32156732D01*
X38104502Y32008877D01*
X38095548Y32008856D01*
X38095498Y32008877D01*
X37740861Y32156732D01*
X37734543Y32163079D01*
X37734408Y32171636D01*
X37970153Y32800408D01*
X37976266Y32806951D01*
X37981108Y32808000D01*
X38218892Y32808000D01*
X38227165Y32804573D01*
G37*
%TD.AperFunction*%
%TD*%
%TA.AperFunction,Conductor*%
%TO.N,+5V*%
G36*
X73207145Y37619594D02*
G01*
X74107798Y36764343D01*
X74111437Y36756161D01*
X74110605Y36751516D01*
X73425290Y35037159D01*
X73419037Y35030749D01*
X73410083Y35030638D01*
X73406153Y35033229D01*
X72522488Y35916894D01*
X72519790Y35921102D01*
X72129550Y36974396D01*
X72129889Y36983343D01*
X72134518Y36988502D01*
X73193087Y37621154D01*
X73201945Y37622456D01*
X73207145Y37619594D01*
G37*
%TD.AperFunction*%
%TD*%
%TA.AperFunction,Conductor*%
%TO.N,/GPIO28*%
G36*
X55221073Y50172310D02*
G01*
X55224500Y50164037D01*
X55224500Y50162440D01*
X55224492Y50162007D01*
X55200415Y49511239D01*
X55196685Y49503099D01*
X55188752Y49499972D01*
X54804875Y49499013D01*
X54796594Y49502419D01*
X54796558Y49502454D01*
X54787804Y49511239D01*
X54526052Y49773916D01*
X54522641Y49782195D01*
X54526082Y49790462D01*
X54526693Y49791027D01*
X54912291Y50121925D01*
X54971713Y50172916D01*
X54979332Y50175737D01*
X55212800Y50175737D01*
X55221073Y50172310D01*
G37*
%TD.AperFunction*%
%TD*%
%TA.AperFunction,Conductor*%
%TO.N,/GPIO11\u005CREL2*%
G36*
X42280859Y30542696D02*
G01*
X42284032Y30540439D01*
X42450438Y30374033D01*
X42453865Y30365760D01*
X42453217Y30361920D01*
X41935395Y28871498D01*
X41929443Y28864808D01*
X41920503Y28864286D01*
X41919877Y28864524D01*
X41113785Y29197438D01*
X41107447Y29203762D01*
X40774523Y30009879D01*
X40774532Y30018833D01*
X40780871Y30025158D01*
X40781466Y30025385D01*
X42271921Y30543218D01*
X42280859Y30542696D01*
G37*
%TD.AperFunction*%
%TD*%
%TA.AperFunction,Conductor*%
%TO.N,/3V3_EN*%
G36*
X50268044Y63548747D02*
G01*
X50274206Y63542761D01*
X50349709Y63375480D01*
X50350660Y63372077D01*
X50363763Y63264170D01*
X50419778Y63116470D01*
X50419782Y63116464D01*
X50509513Y62986465D01*
X50509514Y62986464D01*
X50509517Y62986460D01*
X50533937Y62964826D01*
X50536840Y62960884D01*
X50550747Y62930072D01*
X50551027Y62921122D01*
X50548356Y62916986D01*
X50383014Y62751644D01*
X50374741Y62748217D01*
X50369928Y62749253D01*
X49757239Y63025794D01*
X49751108Y63032321D01*
X49751232Y63040910D01*
X49897437Y63396198D01*
X49903753Y63402543D01*
X50259090Y63548768D01*
X50268044Y63548747D01*
G37*
%TD.AperFunction*%
%TD*%
%TA.AperFunction,Conductor*%
%TO.N,/GPIO28*%
G36*
X37838832Y68835468D02*
G01*
X37845157Y68829129D01*
X37845395Y68828503D01*
X38363217Y67338081D01*
X38362695Y67329141D01*
X38360438Y67325968D01*
X38194032Y67159562D01*
X38185759Y67156135D01*
X38181919Y67156783D01*
X38172707Y67159984D01*
X38168274Y67162763D01*
X37893912Y67437126D01*
X37892390Y67439000D01*
X37880085Y67457835D01*
X37849609Y67481556D01*
X37848522Y67482516D01*
X37843517Y67487521D01*
X37834671Y67493836D01*
X37824688Y67500963D01*
X37824333Y67501228D01*
X37781189Y67534809D01*
X37775280Y67536838D01*
X37772282Y67538381D01*
X37770555Y67539614D01*
X37767199Y67542010D01*
X37749928Y67547152D01*
X37714813Y67557607D01*
X37714353Y67557755D01*
X37662662Y67575500D01*
X37662660Y67575500D01*
X37656411Y67575500D01*
X37653074Y67575986D01*
X37647088Y67577768D01*
X37647086Y67577768D01*
X37592486Y67575510D01*
X37592003Y67575500D01*
X36978721Y67575500D01*
X36974881Y67576148D01*
X36691497Y67674605D01*
X36684807Y67680557D01*
X36684285Y67689497D01*
X36684515Y67690104D01*
X37017438Y68496217D01*
X37023759Y68502552D01*
X37829878Y68835477D01*
X37838832Y68835468D01*
G37*
%TD.AperFunction*%
%TD*%
%TA.AperFunction,Conductor*%
%TO.N,/GPIO10\u005CREL1*%
G36*
X44159109Y60851281D02*
G01*
X44165427Y60844934D01*
X44165551Y60836345D01*
X43927859Y60207563D01*
X43921728Y60201036D01*
X43916915Y60200000D01*
X43683085Y60200000D01*
X43674812Y60203427D01*
X43672141Y60207563D01*
X43434448Y60836345D01*
X43434728Y60845295D01*
X43440889Y60851281D01*
X43795500Y60999125D01*
X43804449Y60999145D01*
X44159109Y60851281D01*
G37*
%TD.AperFunction*%
%TD*%
%TA.AperFunction,Conductor*%
%TO.N,/GPIO20*%
G36*
X60060859Y30542696D02*
G01*
X60064032Y30540439D01*
X60230438Y30374033D01*
X60233865Y30365760D01*
X60233217Y30361920D01*
X59715395Y28871498D01*
X59709443Y28864808D01*
X59700503Y28864286D01*
X59699877Y28864524D01*
X58893785Y29197438D01*
X58887447Y29203762D01*
X58554523Y30009879D01*
X58554532Y30018833D01*
X58560871Y30025158D01*
X58561466Y30025385D01*
X60051921Y30543218D01*
X60060859Y30542696D01*
G37*
%TD.AperFunction*%
%TD*%
%TA.AperFunction,Conductor*%
%TO.N,/GPIO18*%
G36*
X63867465Y67689927D02*
G01*
X63873786Y67683584D01*
X63873787Y67683581D01*
X64205252Y66878596D01*
X64205233Y66869641D01*
X64202706Y66865868D01*
X64034132Y66697294D01*
X64025859Y66693867D01*
X64021404Y66694748D01*
X63216419Y67026213D01*
X63210074Y67032532D01*
X63210055Y67041487D01*
X63210056Y67041490D01*
X63397438Y67496207D01*
X63403756Y67502547D01*
X63858510Y67689944D01*
X63867465Y67689927D01*
G37*
%TD.AperFunction*%
%TD*%
%TA.AperFunction,Conductor*%
%TO.N,/GPIO23*%
G36*
X57728076Y35623219D02*
G01*
X59218503Y35105395D01*
X59225192Y35099444D01*
X59225714Y35090504D01*
X59225476Y35089878D01*
X58892562Y34283786D01*
X58886237Y34277447D01*
X58886214Y34277438D01*
X58080122Y33944524D01*
X58071167Y33944533D01*
X58064842Y33950872D01*
X58064611Y33951479D01*
X57546782Y35441922D01*
X57547304Y35450860D01*
X57549558Y35454030D01*
X57715968Y35620440D01*
X57724240Y35623866D01*
X57728076Y35623219D01*
G37*
%TD.AperFunction*%
%TD*%
%TA.AperFunction,Conductor*%
%TO.N,Net-(D3-A)*%
G36*
X5634244Y58499059D02*
G01*
X7014268Y58263660D01*
X7021846Y58258892D01*
X7024000Y58252128D01*
X7024000Y56747873D01*
X7020573Y56739600D01*
X7014267Y56736340D01*
X5634252Y56500943D01*
X5625521Y56502930D01*
X5624530Y56503715D01*
X5348698Y56747873D01*
X4508896Y57491240D01*
X4504974Y57499289D01*
X4507891Y57507755D01*
X4508892Y57508757D01*
X5624531Y58496287D01*
X5632996Y58499203D01*
X5634244Y58499059D01*
G37*
%TD.AperFunction*%
%TD*%
%TA.AperFunction,Conductor*%
%TO.N,Net-(PWR_LED1-A)*%
G36*
X45659109Y38251281D02*
G01*
X45665427Y38244934D01*
X45665551Y38236345D01*
X45427859Y37607563D01*
X45421728Y37601036D01*
X45416915Y37600000D01*
X45183085Y37600000D01*
X45174812Y37603427D01*
X45172141Y37607563D01*
X44934448Y38236345D01*
X44934728Y38245295D01*
X44940889Y38251281D01*
X45295500Y38399125D01*
X45304449Y38399145D01*
X45659109Y38251281D01*
G37*
%TD.AperFunction*%
%TD*%
%TA.AperFunction,Conductor*%
%TO.N,/GPIO22*%
G36*
X60060859Y38162696D02*
G01*
X60064032Y38160439D01*
X60230438Y37994033D01*
X60233865Y37985760D01*
X60233217Y37981920D01*
X59715395Y36491498D01*
X59709443Y36484808D01*
X59700503Y36484286D01*
X59699877Y36484524D01*
X58893785Y36817438D01*
X58887447Y36823762D01*
X58554523Y37629879D01*
X58554532Y37638833D01*
X58560871Y37645158D01*
X58561466Y37645385D01*
X60051921Y38163218D01*
X60060859Y38162696D01*
G37*
%TD.AperFunction*%
%TD*%
%TA.AperFunction,Conductor*%
%TO.N,/GPIO11\u005CREL2*%
G36*
X44959109Y45630281D02*
G01*
X44965427Y45623934D01*
X44965551Y45615345D01*
X44727859Y44986563D01*
X44721728Y44980036D01*
X44716915Y44979000D01*
X44483085Y44979000D01*
X44474812Y44982427D01*
X44472141Y44986563D01*
X44234448Y45615345D01*
X44234728Y45624295D01*
X44240889Y45630281D01*
X44595500Y45778125D01*
X44604449Y45778145D01*
X44959109Y45630281D01*
G37*
%TD.AperFunction*%
%TD*%
%TA.AperFunction,Conductor*%
%TO.N,/GPIO4\u005CSPI0_RX(MISO)*%
G36*
X41106214Y52062563D02*
G01*
X41112553Y52056238D01*
X41112562Y52056215D01*
X41445160Y51250887D01*
X41445151Y51241932D01*
X41438812Y51235607D01*
X41437467Y51235145D01*
X39887642Y50806114D01*
X39878755Y50807210D01*
X39876248Y50809117D01*
X39709809Y50975556D01*
X39706382Y50983829D01*
X39707261Y50988279D01*
X40284212Y52389379D01*
X40290530Y52395722D01*
X40299482Y52395741D01*
X41106214Y52062563D01*
G37*
%TD.AperFunction*%
%TD*%
%TA.AperFunction,Conductor*%
%TO.N,/GPIO14*%
G36*
X67958526Y66060096D02*
G01*
X67964847Y66053753D01*
X67964830Y66044798D01*
X67964829Y66044795D01*
X67630000Y65241200D01*
X67623655Y65234881D01*
X67619200Y65234000D01*
X67380800Y65234000D01*
X67372527Y65237427D01*
X67370000Y65241200D01*
X67035170Y66044795D01*
X67035151Y66053750D01*
X67041468Y66060094D01*
X67495503Y66249129D01*
X67504455Y66249145D01*
X67958526Y66060096D01*
G37*
%TD.AperFunction*%
%TD*%
%TA.AperFunction,Conductor*%
%TO.N,/GPIO3\u005CIN2*%
G36*
X35125616Y46797611D02*
G01*
X35128065Y46794021D01*
X35399789Y46171977D01*
X35399960Y46163024D01*
X35393750Y46156572D01*
X35393569Y46156495D01*
X35039502Y46008877D01*
X35030548Y46008856D01*
X35030498Y46008877D01*
X34675430Y46156912D01*
X34669112Y46163259D01*
X34668813Y46171350D01*
X34872361Y46792980D01*
X34878192Y46799775D01*
X34883480Y46801038D01*
X35117343Y46801038D01*
X35125616Y46797611D01*
G37*
%TD.AperFunction*%
%TD*%
%TA.AperFunction,Conductor*%
%TO.N,/GPIO1\u005CUART0_RX*%
G36*
X36525681Y7046358D02*
G01*
X37138370Y6769817D01*
X37144501Y6763290D01*
X37144377Y6754701D01*
X36998173Y6399415D01*
X36991855Y6393068D01*
X36991805Y6393047D01*
X36636519Y6246843D01*
X36627565Y6246864D01*
X36621403Y6252850D01*
X36557286Y6394903D01*
X36394889Y6754701D01*
X36344862Y6865539D01*
X36344582Y6874489D01*
X36347251Y6878623D01*
X36512596Y7043968D01*
X36520868Y7047394D01*
X36525681Y7046358D01*
G37*
%TD.AperFunction*%
%TD*%
%TA.AperFunction,Conductor*%
%TO.N,/GPIO21*%
G36*
X60060859Y33082696D02*
G01*
X60064032Y33080439D01*
X60230438Y32914033D01*
X60233865Y32905760D01*
X60233217Y32901920D01*
X59715395Y31411498D01*
X59709443Y31404808D01*
X59700503Y31404286D01*
X59699877Y31404524D01*
X58893785Y31737438D01*
X58887447Y31743762D01*
X58554523Y32549879D01*
X58554532Y32558833D01*
X58560871Y32565158D01*
X58561466Y32565385D01*
X60051921Y33083218D01*
X60060859Y33082696D01*
G37*
%TD.AperFunction*%
%TD*%
%TA.AperFunction,Conductor*%
%TO.N,/GPIO18*%
G36*
X63240200Y68836033D02*
G01*
X63246187Y68830439D01*
X63899588Y67516911D01*
X63900204Y67507977D01*
X63894323Y67501224D01*
X63889112Y67500000D01*
X62893273Y67500000D01*
X62890759Y67500273D01*
X62093428Y67675672D01*
X62086085Y67680796D01*
X62084515Y67689613D01*
X62085131Y67691572D01*
X62418144Y68496515D01*
X62424472Y68502847D01*
X63231246Y68836042D01*
X63240200Y68836033D01*
G37*
%TD.AperFunction*%
%TD*%
%TA.AperFunction,Conductor*%
%TO.N,/GPIO24*%
G36*
X57728076Y22923219D02*
G01*
X59218503Y22405395D01*
X59225192Y22399444D01*
X59225714Y22390504D01*
X59225476Y22389878D01*
X58892562Y21583786D01*
X58886237Y21577447D01*
X58886214Y21577438D01*
X58080122Y21244524D01*
X58071167Y21244533D01*
X58064842Y21250872D01*
X58064611Y21251479D01*
X57546782Y22741922D01*
X57547304Y22750860D01*
X57549558Y22754030D01*
X57715968Y22920440D01*
X57724240Y22923866D01*
X57728076Y22923219D01*
G37*
%TD.AperFunction*%
%TD*%
%TA.AperFunction,Conductor*%
%TO.N,/GPIO14*%
G36*
X42279440Y20384109D02*
G01*
X42282625Y20381846D01*
X42451845Y20212626D01*
X42455272Y20204353D01*
X42454620Y20200501D01*
X41935403Y18711481D01*
X41929443Y18704797D01*
X41920503Y18704285D01*
X41919889Y18704519D01*
X41113785Y19037438D01*
X41107447Y19043762D01*
X40774518Y19849891D01*
X40774527Y19858845D01*
X40780866Y19865170D01*
X40781480Y19865404D01*
X42270501Y20384621D01*
X42279440Y20384109D01*
G37*
%TD.AperFunction*%
%TD*%
%TA.AperFunction,Conductor*%
%TO.N,/GPIO13\u005CREL4*%
G36*
X40300101Y24455486D02*
G01*
X41106214Y24122563D01*
X41112553Y24116238D01*
X41112562Y24116215D01*
X41445481Y23310111D01*
X41445472Y23301156D01*
X41439133Y23294831D01*
X41438519Y23294597D01*
X41246472Y23227630D01*
X41237119Y23224368D01*
X41225028Y23220152D01*
X41221176Y23219500D01*
X40584157Y23219500D01*
X40581756Y23219749D01*
X40559731Y23224368D01*
X40521408Y23219590D01*
X40519961Y23219500D01*
X40512886Y23219500D01*
X40490105Y23215699D01*
X40489628Y23215630D01*
X40435375Y23208867D01*
X40435369Y23208865D01*
X40429757Y23206122D01*
X40426548Y23205094D01*
X40420394Y23204067D01*
X40420389Y23204065D01*
X40372337Y23178062D01*
X40371908Y23177841D01*
X40322790Y23153827D01*
X40318368Y23149406D01*
X40315666Y23147392D01*
X40310177Y23144421D01*
X40310176Y23144421D01*
X40310174Y23144419D01*
X40273939Y23105059D01*
X40273154Y23104206D01*
X40272819Y23103858D01*
X39950518Y22781557D01*
X39942245Y22778130D01*
X39933972Y22781557D01*
X39768154Y22947375D01*
X39764727Y22955648D01*
X39765378Y22959498D01*
X40284596Y24448521D01*
X40290556Y24455204D01*
X40299496Y24455716D01*
X40300101Y24455486D01*
G37*
%TD.AperFunction*%
%TD*%
%TA.AperFunction,Conductor*%
%TO.N,/GPIO21*%
G36*
X55618832Y68835468D02*
G01*
X55625157Y68829129D01*
X55625395Y68828503D01*
X56143217Y67338081D01*
X56142695Y67329141D01*
X56140438Y67325968D01*
X55974032Y67159562D01*
X55965759Y67156135D01*
X55961919Y67156783D01*
X54471497Y67674605D01*
X54464807Y67680557D01*
X54464285Y67689497D01*
X54464515Y67690104D01*
X54797438Y68496217D01*
X54803759Y68502552D01*
X55609878Y68835477D01*
X55618832Y68835468D01*
G37*
%TD.AperFunction*%
%TD*%
%TA.AperFunction,Conductor*%
%TO.N,/3V3_EN*%
G36*
X53425188Y57896573D02*
G01*
X53427859Y57892437D01*
X53665551Y57263656D01*
X53665271Y57254706D01*
X53659109Y57248720D01*
X53304502Y57100877D01*
X53295548Y57100856D01*
X53295498Y57100877D01*
X52940890Y57248720D01*
X52934572Y57255067D01*
X52934448Y57263655D01*
X53172141Y57892438D01*
X53178272Y57898964D01*
X53183085Y57900000D01*
X53416915Y57900000D01*
X53425188Y57896573D01*
G37*
%TD.AperFunction*%
%TD*%
%TA.AperFunction,Conductor*%
%TO.N,/GPIO13\u005CREL4*%
G36*
X59645311Y4665288D02*
G01*
X59651268Y4659139D01*
X59799123Y4304502D01*
X59799144Y4295548D01*
X59799123Y4295498D01*
X59651268Y3940862D01*
X59644921Y3934544D01*
X59636362Y3934409D01*
X59007593Y4170154D01*
X59001049Y4176267D01*
X59000000Y4181109D01*
X59000000Y4418892D01*
X59003427Y4427165D01*
X59007593Y4429847D01*
X59636364Y4665592D01*
X59645311Y4665288D01*
G37*
%TD.AperFunction*%
%TD*%
%TA.AperFunction,Conductor*%
%TO.N,/GPIO7\u005CSPI0_TX(MOSI)*%
G36*
X50530071Y6850748D02*
G01*
X51142760Y6574207D01*
X51148891Y6567680D01*
X51148767Y6559091D01*
X51002563Y6203805D01*
X50996245Y6197458D01*
X50996195Y6197437D01*
X50640909Y6051233D01*
X50631955Y6051254D01*
X50625793Y6057240D01*
X50561676Y6199293D01*
X50399279Y6559091D01*
X50349252Y6669929D01*
X50348972Y6678879D01*
X50351641Y6683013D01*
X50516986Y6848358D01*
X50525258Y6851784D01*
X50530071Y6850748D01*
G37*
%TD.AperFunction*%
%TD*%
%TA.AperFunction,Conductor*%
%TO.N,+5V*%
G36*
X71467563Y22229418D02*
G01*
X73150910Y21628380D01*
X73157549Y21622370D01*
X73158669Y21617759D01*
X73200696Y20383901D01*
X73197553Y20375516D01*
X73192500Y20372338D01*
X72005567Y20000544D01*
X71996648Y20001341D01*
X71991876Y20005968D01*
X71453434Y20962327D01*
X71451929Y20968067D01*
X71451929Y22218399D01*
X71455356Y22226672D01*
X71463629Y22230099D01*
X71467563Y22229418D01*
G37*
%TD.AperFunction*%
%TD*%
%TA.AperFunction,Conductor*%
%TO.N,/GPIO20*%
G36*
X58158832Y68835468D02*
G01*
X58165157Y68829129D01*
X58165395Y68828503D01*
X58683217Y67338081D01*
X58682695Y67329141D01*
X58680438Y67325968D01*
X58514032Y67159562D01*
X58505759Y67156135D01*
X58501919Y67156783D01*
X57011497Y67674605D01*
X57004807Y67680557D01*
X57004285Y67689497D01*
X57004515Y67690104D01*
X57337438Y68496217D01*
X57343759Y68502552D01*
X58149878Y68835477D01*
X58158832Y68835468D01*
G37*
%TD.AperFunction*%
%TD*%
%TA.AperFunction,Conductor*%
%TO.N,/GPIO16\u005CI2C0_SDA*%
G36*
X58080114Y16835480D02*
G01*
X58886214Y16502563D01*
X58892553Y16496238D01*
X58892562Y16496215D01*
X59225476Y15690123D01*
X59225467Y15681168D01*
X59219128Y15674843D01*
X59218502Y15674605D01*
X57728080Y15156783D01*
X57719140Y15157305D01*
X57715967Y15159562D01*
X57549561Y15325968D01*
X57546134Y15334241D01*
X57546781Y15338076D01*
X58064605Y16828505D01*
X58070556Y16835193D01*
X58079496Y16835715D01*
X58080114Y16835480D01*
G37*
%TD.AperFunction*%
%TD*%
%TA.AperFunction,Conductor*%
%TO.N,/GPIO2\u005CIN1*%
G36*
X40039672Y58573671D02*
G01*
X41439664Y57965906D01*
X41445888Y57959468D01*
X41445819Y57950708D01*
X41112562Y57143786D01*
X41106237Y57137447D01*
X41106214Y57137438D01*
X40299292Y56804181D01*
X40290337Y56804190D01*
X40284094Y56810336D01*
X40142092Y57137438D01*
X39676329Y58210328D01*
X39676178Y58219281D01*
X39678786Y58223258D01*
X40026741Y58571213D01*
X40035013Y58574639D01*
X40039672Y58573671D01*
G37*
%TD.AperFunction*%
%TD*%
%TA.AperFunction,Conductor*%
%TO.N,Net-(PWR_LED1-A)*%
G36*
X38825188Y16096573D02*
G01*
X38827859Y16092437D01*
X39065551Y15463656D01*
X39065271Y15454706D01*
X39059109Y15448720D01*
X38704502Y15300877D01*
X38695548Y15300856D01*
X38695498Y15300877D01*
X38340890Y15448720D01*
X38334572Y15455067D01*
X38334448Y15463655D01*
X38572141Y16092438D01*
X38578272Y16098964D01*
X38583085Y16100000D01*
X38816915Y16100000D01*
X38825188Y16096573D01*
G37*
%TD.AperFunction*%
%TD*%
%TA.AperFunction,Conductor*%
%TO.N,/GPIO22*%
G36*
X53078832Y68835468D02*
G01*
X53085157Y68829129D01*
X53085395Y68828503D01*
X53603217Y67338081D01*
X53602695Y67329141D01*
X53600438Y67325968D01*
X53434032Y67159562D01*
X53425759Y67156135D01*
X53421919Y67156783D01*
X53384080Y67169930D01*
X53379647Y67172709D01*
X53115230Y67437126D01*
X53113708Y67439000D01*
X53101403Y67457835D01*
X53070927Y67481556D01*
X53069840Y67482516D01*
X53064835Y67487521D01*
X53057958Y67492430D01*
X53046006Y67500963D01*
X53045651Y67501228D01*
X53002507Y67534809D01*
X52996598Y67536838D01*
X52993600Y67538381D01*
X52991873Y67539614D01*
X52988517Y67542010D01*
X52971246Y67547152D01*
X52936131Y67557607D01*
X52935671Y67557755D01*
X52883980Y67575500D01*
X52883978Y67575500D01*
X52877729Y67575500D01*
X52874392Y67575986D01*
X52868406Y67577768D01*
X52868404Y67577768D01*
X52813804Y67575510D01*
X52813321Y67575500D01*
X52218721Y67575500D01*
X52214881Y67576148D01*
X51931497Y67674605D01*
X51924807Y67680557D01*
X51924285Y67689497D01*
X51924515Y67690104D01*
X52257438Y68496217D01*
X52263759Y68502552D01*
X53069878Y68835477D01*
X53078832Y68835468D01*
G37*
%TD.AperFunction*%
%TD*%
%TA.AperFunction,Conductor*%
%TO.N,/RUN*%
G36*
X52625188Y42096573D02*
G01*
X52627859Y42092437D01*
X52865551Y41463656D01*
X52865271Y41454706D01*
X52859109Y41448720D01*
X52504502Y41300877D01*
X52495548Y41300856D01*
X52495498Y41300877D01*
X52140890Y41448720D01*
X52134572Y41455067D01*
X52134448Y41463655D01*
X52372141Y42092438D01*
X52378272Y42098964D01*
X52383085Y42100000D01*
X52616915Y42100000D01*
X52625188Y42096573D01*
G37*
%TD.AperFunction*%
%TD*%
%TA.AperFunction,Conductor*%
%TO.N,/GPIO29*%
G36*
X54483014Y45548357D02*
G01*
X54648356Y45383015D01*
X54651783Y45374742D01*
X54650747Y45369929D01*
X54374206Y44757240D01*
X54367679Y44751109D01*
X54359090Y44751233D01*
X54003804Y44897437D01*
X53997457Y44903755D01*
X53997436Y44903805D01*
X53851232Y45259091D01*
X53851253Y45268045D01*
X53857237Y45274206D01*
X54469928Y45550749D01*
X54478878Y45551028D01*
X54483014Y45548357D01*
G37*
%TD.AperFunction*%
%TD*%
%TA.AperFunction,Conductor*%
%TO.N,/GPIO17\u005CI2C0_SCL*%
G36*
X58554272Y19850499D02*
G01*
X58554547Y19849888D01*
X58889135Y19044489D01*
X58889144Y19035534D01*
X58889135Y19035511D01*
X58554547Y18230113D01*
X58548208Y18223788D01*
X58539253Y18223797D01*
X58538642Y18224072D01*
X57118600Y18911804D01*
X57112648Y18918494D01*
X57112000Y18922334D01*
X57112000Y19157667D01*
X57115427Y19165940D01*
X57118597Y19168196D01*
X58538644Y19855930D01*
X58547582Y19856451D01*
X58554272Y19850499D01*
G37*
%TD.AperFunction*%
%TD*%
%TA.AperFunction,Conductor*%
%TO.N,/GPIO9\u005CIN4*%
G36*
X40300101Y37155486D02*
G01*
X41106214Y36822563D01*
X41112553Y36816238D01*
X41112562Y36816215D01*
X41445481Y36010111D01*
X41445472Y36001156D01*
X41439133Y35994831D01*
X41438519Y35994597D01*
X39949499Y35475380D01*
X39940559Y35475892D01*
X39937374Y35478155D01*
X39768154Y35647375D01*
X39764727Y35655648D01*
X39765378Y35659498D01*
X40284596Y37148521D01*
X40290556Y37155204D01*
X40299496Y37155716D01*
X40300101Y37155486D01*
G37*
%TD.AperFunction*%
%TD*%
%TA.AperFunction,Conductor*%
%TO.N,/GPIO0\u005CUART0_TX*%
G36*
X40231911Y65132393D02*
G01*
X41106231Y64762600D01*
X41112515Y64756221D01*
X41112524Y64756200D01*
X41465030Y63882142D01*
X41464946Y63873188D01*
X41458555Y63866915D01*
X41458267Y63866803D01*
X39687815Y63206621D01*
X39678866Y63206942D01*
X39675454Y63209311D01*
X39509491Y63375274D01*
X39506064Y63383547D01*
X39506931Y63387966D01*
X40216522Y65126041D01*
X40222821Y65132403D01*
X40231775Y65132449D01*
X40231911Y65132393D01*
G37*
%TD.AperFunction*%
%TD*%
%TA.AperFunction,Conductor*%
%TO.N,/GPIO15*%
G36*
X60540880Y21248781D02*
G01*
X60896195Y21102564D01*
X60902542Y21096246D01*
X60902563Y21096196D01*
X61048779Y20740882D01*
X61048758Y20731928D01*
X61042801Y20725779D01*
X60431498Y20447868D01*
X60422549Y20447564D01*
X60418383Y20450246D01*
X60250245Y20618384D01*
X60246818Y20626657D01*
X60247866Y20631495D01*
X60525779Y21242803D01*
X60532322Y21248915D01*
X60540880Y21248781D01*
G37*
%TD.AperFunction*%
%TD*%
%TA.AperFunction,Conductor*%
%TO.N,+5V*%
G36*
X73207746Y20370078D02*
G01*
X74182324Y19590685D01*
X74186645Y19582843D01*
X74186216Y19578161D01*
X73620490Y17708139D01*
X73614814Y17701213D01*
X73605903Y17700328D01*
X73601018Y17703254D01*
X72718121Y18586151D01*
X72715966Y18589118D01*
X72208807Y19585739D01*
X72193360Y19616094D01*
X72192663Y19625020D01*
X72196815Y19630793D01*
X73193469Y20370337D01*
X73202154Y20372514D01*
X73207746Y20370078D01*
G37*
%TD.AperFunction*%
%TD*%
%TA.AperFunction,Conductor*%
%TO.N,/RUN*%
G36*
X49168044Y63548747D02*
G01*
X49174206Y63542761D01*
X49246223Y63383204D01*
X49247174Y63379801D01*
X49263763Y63243180D01*
X49319778Y63095480D01*
X49319782Y63095474D01*
X49409513Y62965475D01*
X49409514Y62965474D01*
X49409517Y62965470D01*
X49446517Y62932691D01*
X49450437Y62924640D01*
X49447516Y62916175D01*
X49447031Y62915661D01*
X49283014Y62751644D01*
X49274741Y62748217D01*
X49269928Y62749253D01*
X48657239Y63025794D01*
X48651108Y63032321D01*
X48651232Y63040910D01*
X48673688Y63095480D01*
X48797437Y63396198D01*
X48803753Y63402543D01*
X49159090Y63548768D01*
X49168044Y63548747D01*
G37*
%TD.AperFunction*%
%TD*%
%TA.AperFunction,Conductor*%
%TO.N,Net-(D5-A)*%
G36*
X5634244Y28499059D02*
G01*
X7014268Y28263660D01*
X7021846Y28258892D01*
X7024000Y28252128D01*
X7024000Y26747873D01*
X7020573Y26739600D01*
X7014267Y26736340D01*
X5634252Y26500943D01*
X5625521Y26502930D01*
X5624530Y26503715D01*
X5348698Y26747873D01*
X4508896Y27491240D01*
X4504974Y27499289D01*
X4507891Y27507755D01*
X4508892Y27508757D01*
X5624531Y28496287D01*
X5632996Y28499203D01*
X5634244Y28499059D01*
G37*
%TD.AperFunction*%
%TD*%
%TA.AperFunction,Conductor*%
%TO.N,/GPIO26*%
G36*
X56219043Y43476888D02*
G01*
X56222470Y43468615D01*
X56222249Y43466353D01*
X56101855Y42855415D01*
X56096893Y42847960D01*
X56090405Y42845977D01*
X55707846Y42845020D01*
X55699565Y42848426D01*
X55697005Y42852250D01*
X55550722Y43206366D01*
X55550731Y43215319D01*
X55555380Y43220781D01*
X55972172Y43478567D01*
X55978326Y43480315D01*
X56210770Y43480315D01*
X56219043Y43476888D01*
G37*
%TD.AperFunction*%
%TD*%
%TA.AperFunction,Conductor*%
%TO.N,/GPIO12\u005CREL3*%
G36*
X45040880Y44248781D02*
G01*
X45396195Y44102564D01*
X45402542Y44096246D01*
X45402563Y44096196D01*
X45548779Y43740882D01*
X45548758Y43731928D01*
X45542801Y43725779D01*
X44931498Y43447868D01*
X44922549Y43447564D01*
X44918383Y43450246D01*
X44750245Y43618384D01*
X44746818Y43626657D01*
X44747866Y43631495D01*
X44812202Y43773012D01*
X44814571Y43776430D01*
X44837127Y43798986D01*
X44838997Y43800503D01*
X44857834Y43812808D01*
X44857834Y43812810D01*
X44857836Y43812810D01*
X44881564Y43843298D01*
X44882501Y43844360D01*
X44887519Y43849376D01*
X44900998Y43868257D01*
X44901176Y43868496D01*
X44934809Y43911705D01*
X44936837Y43917616D01*
X44938378Y43920611D01*
X44942010Y43925695D01*
X44957615Y43978117D01*
X44957735Y43978489D01*
X44975500Y44030234D01*
X44975500Y44036483D01*
X44975986Y44039821D01*
X44976067Y44040093D01*
X44977768Y44045806D01*
X44975510Y44100409D01*
X44975500Y44100892D01*
X44975500Y44129674D01*
X44976548Y44134514D01*
X45025779Y44242803D01*
X45032322Y44248915D01*
X45040880Y44248781D01*
G37*
%TD.AperFunction*%
%TD*%
M02*
